<svg viewBox="0 0 359 388" fill="none" class="absolute left-1/2 -translate-x-1/2 -bottom-1 w-[30cqw]">
<path d="M310.64 232.53C311.01 232.35 310.58 232.22 309.54 232.22C308.56 232.22 308.19 232.34 308.8 232.53C308.83 232.54 308.87 232.55 308.91 232.55C309.46 232.65 310.24 232.64 310.64 232.53Z" fill="black"></path>
<path d="M267.87 175.32C268.11 174.95 268.18 174.59 267.93 174.59C267.75 174.59 267.32 175.32 267.01 176.18C266.64 177.04 266.46 179.3 266.46 181.2L266.58 184.69L266.95 180.41C267.19 178.01 267.56 175.74 267.87 175.32Z" fill="black"></path>
<path d="M316.57 195.08C317 195.94 317.06 195.57 316.75 193.86C316.32 191.05 315.95 190.25 316.02 192.39C316.02 193.18 316.27 194.41 316.57 195.08Z" fill="black"></path>
<path d="M304.76 199.12C304.76 196.24 304.52 195.94 303.96 198.08C303.78 198.94 303.84 200.04 304.21 200.65C304.64 201.44 304.76 201.08 304.76 199.12Z" fill="black"></path>
<path d="M190.58 229.93C186.18 236.81 180.86 245.6 178.83 249.47C174.76 256.94 174.43 258.58 173.45 272.28L172.99 278.51L175.94 285.72C177.13 288.57 178.86 292.71 180.36 296.28C182.38 294.47 183.77 293.29 183.92 293.29C184.16 293.29 184.41 298.43 184.41 304.73C184.41 305.18 184.41 305.63 184.41 306.08C189.37 318.73 195.48 337 196.37 342.29C196.7 344.06 196.44 344.78 195.12 345.96C193.61 347.4 193.54 347.47 194.59 350.35C196.56 355.99 198.73 367.98 199.45 377.23C199.68 380.11 199.8 383.53 199.82 387.65H271.5C270.97 385.12 270.55 382.55 270.13 379.43C268.36 365.54 268.11 361.99 268.85 356.73C269.95 348.78 275.03 337.27 279.13 333.29C282.92 329.62 287.88 326.13 288.37 326.68C288.68 326.99 289.59 329.19 290.45 331.64C291.31 334.03 293.45 338.8 295.16 342.16C297.12 346.08 298.89 350.97 299.99 355.25C302.19 363.63 302.68 365.04 304.95 368.59C306.72 371.28 312.66 376.61 317.13 379.36C321.17 381.93 325.63 380.95 330.22 376.55C334.2 372.82 340.44 358.13 340.44 352.5C340.44 351.34 340.01 349.01 339.52 347.36C337.75 341.55 334.93 316.03 334.93 306C334.93 302.7 334.81 302.39 331.75 299.08C329.12 296.14 328.51 295.1 328.14 292.41C327.47 287.7 327.53 280.6 328.26 273.63C328.75 269.04 328.75 267.02 328.26 265.86C327.83 265.06 327.4 264.52 327.16 264.7C326.98 264.94 327.16 265.5 327.53 265.99C328.14 266.72 328.14 268.19 327.53 272.84C326.67 279.63 327.1 293.83 328.26 298.42C329.12 301.85 328.99 302.03 324.1 303.13C321.22 303.8 320.49 303.74 316.51 302.39C311.31 300.68 309.78 299.03 309.72 295.17C309.72 292.78 309.54 292.48 306.48 290.58C302.93 288.25 301.4 286.36 299.81 282.26C299.2 280.73 298.1 278.41 297.3 277.06L295.89 274.55L298.71 274.61C300.61 274.61 301.58 274.92 301.77 275.53C301.82 275.66 301.89 275.85 301.97 276.07C302.02 276.21 302.08 276.37 302.14 276.54C302.15 276.57 302.16 276.6 302.17 276.63C302.23 276.8 302.3 276.98 302.37 277.16C302.39 277.2 302.4 277.24 302.42 277.28C302.47 277.43 302.53 277.57 302.59 277.72C302.61 277.78 302.64 277.85 302.66 277.91C302.73 278.1 302.8 278.28 302.87 278.46C303.6 280.23 303.85 280.42 304.95 279.81C305.93 279.26 306.48 279.32 307.15 279.87C307.82 280.42 308.25 280.36 309.23 279.5C309.9 278.89 310.45 277.97 310.39 277.42C310.39 276.81 310.15 276.99 309.78 277.85C309.47 278.71 308.8 279.2 308.25 279.07C307.15 278.89 306.84 278.46 305.25 274.48L304.21 271.91L306.29 268.06L308.43 264.2L314.79 264.26C321.64 264.32 319.75 263.53 312.34 263.22C307.87 263.04 307.32 263.53 304.94 269.22C303.59 272.4 303.59 272.59 304.63 274.54C305.73 276.62 305.73 278.64 304.51 279.01C304.14 279.13 303.53 278.28 303.1 277.11C302.73 275.95 301.88 274.3 301.14 273.38C300.16 272.16 299.98 271.3 300.34 269.59C301.07 265.67 303.77 259.62 305.36 258.39C306.22 257.72 306.58 257.17 306.22 257.17C305.79 257.17 304.81 257.84 304.02 258.64C302.31 260.35 299.12 269.9 299.55 272.1C299.8 273.45 299.61 273.57 298.08 273.57C296.67 273.51 296.37 273.2 296.37 272.04C296.37 270.39 296.86 270.26 297.96 271.67C298.06 271.8 298.15 271.92 298.23 272.02C298.25 272.04 298.26 272.06 298.28 272.08C298.34 272.15 298.39 272.22 298.43 272.27C298.45 272.29 298.47 272.31 298.49 272.33C298.52 272.36 298.55 272.4 298.58 272.42C298.6 272.43 298.61 272.43 298.62 272.44C298.64 272.45 298.66 272.46 298.67 272.46C298.68 272.46 298.69 272.45 298.71 272.43C298.72 272.42 298.73 272.42 298.73 272.4C298.74 272.38 298.75 272.34 298.75 272.31C298.75 272.29 298.76 272.28 298.76 272.25C298.77 272.2 298.77 272.14 298.78 272.07C298.78 272.05 298.78 272.03 298.79 272.01C298.8 271.91 298.8 271.81 298.81 271.68C298.81 271.13 298.14 270.33 297.34 269.91C296.06 269.36 295.87 268.93 296.18 267.34C296.91 263.06 297.83 260.36 299.79 256.45C301.75 252.6 302.05 252.29 303.89 252.29C306.15 252.29 324.63 259.57 324.94 260.61C325.06 261.04 324.51 261.22 323.47 261.04C322 260.86 322.06 260.92 323.9 261.65C325.06 262.08 326.1 262.38 326.22 262.32C326.83 261.89 324.87 259.63 323.04 258.53C320.29 256.88 319.98 254.92 320.35 240.42C320.45 235.23 320.43 231.71 320.22 231.76C320.19 231.77 320.15 231.88 320.1 232.1C319.86 233.63 319.67 239.81 319.73 245.87C319.73 251.92 319.55 256.82 319.24 256.76C318.93 256.7 317.1 256.03 315.08 255.23L311.53 253.82L311.9 250.15C312.08 248.13 312.94 243.05 313.8 238.83C315.57 229.84 315.64 229.04 314.6 230.39C314.17 230.94 313.25 231.49 312.58 231.67C311.48 231.91 311.48 231.98 312.76 232.04C314.41 232.1 314.35 231.86 312.94 238.89C312.33 242.07 311.59 246.42 311.35 248.62C311.11 250.82 310.8 252.78 310.68 253.03C310.31 253.58 304.87 251.74 303.52 250.58C301.81 249.11 297.46 242.44 296.61 240.06C295.94 238.22 295.81 238.1 295.75 239.45C295.75 241.35 293.85 255.97 293.49 257.19C292.94 258.96 292.26 256.46 291.41 249.54C290.86 244.89 290.25 242.5 289.51 241.77C288.53 240.79 288.65 240.67 291.71 238.89C292.87 238.25 294.48 237.06 295.91 235.83C296.67 235.18 297.38 234.52 297.95 233.93C300.76 230.99 301.07 230.81 302.66 231.42C303.64 231.79 305.11 232.09 306.02 232.03C307.18 231.97 306.82 231.78 304.98 231.42C301.74 230.81 299.17 229.1 292.19 222.85C281.6 213.49 279.83 210.24 279.83 200.21C279.83 197.33 279.65 194.76 279.46 194.58C279.22 194.4 278.54 194.89 277.87 195.68C275.91 198.19 274.69 197.64 271.51 192.74C269.16 189.14 267.78 187.24 267.77 187.58C267.77 187.69 267.91 188.04 268.21 188.64C269.62 191.27 273.35 196.84 274.27 197.57C275 198.12 275 198.37 274.02 198.85C273.41 199.22 272.43 199.34 271.88 199.22C271.72 199.17 271.49 199.19 271.21 199.25C270.42 199.44 269.25 200.04 268.21 200.81C266.07 202.34 265.21 202.65 263.38 202.34C261.61 202.1 260.32 202.46 256.95 204.3C251.2 207.36 248.02 207.66 221.34 207.66H204.78C203.99 208.72 203.21 209.92 202.25 211.48C200.24 214.79 194.98 223.11 190.58 229.93ZM307.76 296.16C308.31 294.69 309.17 294.87 308.8 296.34C308.31 298.3 310.15 300.38 313.94 302.21C318.22 304.23 323.48 304.47 327.22 302.88C329.48 301.9 329.55 301.72 329.24 299.58C329 298.23 329.06 297.56 329.42 297.93C329.73 298.24 330.09 300.13 330.15 302.15L330.33 305.82L326.96 307.53C324.15 309 323.04 309.24 320.47 309C317.04 308.63 312.27 306.49 309.76 304.17C308.13 302.65 306.97 298.12 307.76 296.16ZM291.73 276.16C290.63 283.38 289.65 286.93 286.84 293.42C286.67 293.82 286.48 294.24 286.3 294.67C286.02 295.32 285.73 295.98 285.44 296.65C285.01 297.63 284.59 298.6 284.21 299.47C284.17 299.55 284.14 299.63 284.11 299.71C283.94 300.11 283.77 300.49 283.62 300.83C283.56 300.97 283.51 301.09 283.45 301.22C283.35 301.45 283.25 301.67 283.17 301.86C281.15 306.57 281.33 304.68 283.6 298.31C287.15 288.09 288.43 281.48 288.43 273.22C288.43 269.12 288.67 265.76 288.98 265.76C289.23 265.76 290.2 266.8 291.06 268.02L292.59 270.34L291.73 276.16ZM283.41 245.5L281.39 246.85L283.1 245.32C284.69 243.85 285.36 243.42 285.36 243.91C285.36 243.92 285.34 243.95 285.32 243.98C285.31 243.99 285.3 244 285.29 244.01C285.27 244.03 285.25 244.06 285.21 244.08C285.19 244.1 285.17 244.11 285.16 244.13C285.13 244.16 285.09 244.19 285.04 244.23C285.02 244.25 285 244.27 284.97 244.29C284.92 244.33 284.86 244.38 284.8 244.42C284.78 244.44 284.76 244.45 284.74 244.47C284.5 244.66 284.21 244.88 283.89 245.13C283.74 245.25 283.58 245.37 283.41 245.5ZM290.08 253.88L291.18 252.41L291.36 253.94C291.48 254.8 291.42 255.59 291.24 255.78C291.06 255.96 290.51 255.96 289.95 255.72C289.1 255.41 289.1 255.23 290.08 253.88ZM292.16 257.92C295.46 260.37 296.32 262.51 295.71 266.36C295.4 268.2 295.28 270.52 295.47 271.56C295.78 273.21 295.71 273.27 295.04 272.23C294.99 272.16 294.92 272.06 294.83 271.94C294.82 271.93 294.81 271.91 294.8 271.9C294.3 271.2 293.29 269.83 292.19 268.32C292.15 268.27 292.12 268.22 292.08 268.18C291.8 267.8 291.52 267.42 291.24 267.03C286.83 261.09 285.86 259.26 286.28 257.79C286.84 256.15 289.77 256.21 292.16 257.92ZM274.54 199.12C277.78 197.04 278.27 197.53 278.7 203.04C279.19 209.34 281.09 214.85 287.14 227.45C291.85 237.24 291.97 237.61 290.75 238.28C290.08 238.65 289.28 238.71 289.04 238.4C288.12 237.42 282.98 227.38 280.47 221.69C278.51 217.22 272.52 201.26 272.51 200.52C272.52 200.47 273.44 199.85 274.54 199.12ZM273.8 300.94C277.59 286.5 278.63 273.47 277.41 258.17C276.8 251.07 276.86 250.83 278.14 249.42C279.98 247.46 280.77 247.65 281.87 250.46C282.67 252.6 282.73 253.52 281.99 257.92C281.5 260.73 280.83 267.4 280.46 272.79C280.03 279.7 279.36 284.29 278.26 288.39C274.71 301.48 271.71 311.95 271.47 312.25C270.99 312.81 271.97 307.85 273.8 300.94Z" fill="black"></path>
<path d="M312.17 220.17C313.88 219.74 317.19 216.99 317.19 216.01C317.19 215.64 316.52 216.13 315.66 217.05C313.64 219.25 309.85 219.31 307.65 217.11C305.57 215.03 305.2 215.15 306.79 217.42C308.5 219.8 310.21 220.66 312.17 220.17Z" fill="black"></path>
<path d="M309.41 212.09C309.23 212.46 309.35 212.52 309.72 212.27C310.09 212.09 310.52 212.15 310.76 212.51C311.25 213.24 313.33 213.31 313.76 212.57C313.94 212.26 313.15 211.9 311.92 211.77C310.76 211.66 309.6 211.79 309.41 212.09Z" fill="black"></path>
<path d="M328.93 207.93C328.93 208.91 329.05 209.28 329.24 208.66C329.36 208.11 329.36 207.25 329.24 206.82C329.06 206.46 328.93 206.89 328.93 207.93Z" fill="black"></path>
<path d="M270.87 173.36C272.83 173.36 275.4 176.24 276.68 179.85C278.03 183.58 279.43 183.83 279.86 180.4C280.17 178.08 280.29 177.95 282 178.14C284.69 178.45 285.18 179.12 285.61 183.28C285.85 185.36 286.34 187.56 286.65 188.18C287.51 189.83 292.1 192.22 295.22 192.65C301.22 193.51 305.01 191 308.56 183.9C310.09 180.84 310.76 180.11 311.93 180.11C314.01 180.11 314.74 181.4 315.17 185.31C315.35 187.21 315.72 188.49 315.97 188.12C316.22 187.69 316.89 188.06 317.87 189.04C320.93 192.41 325.95 193.69 330.6 192.34C331.76 192.03 332.8 191.85 332.93 191.97C333.42 192.46 331.28 196.68 328.95 199.8C327.6 201.57 325.95 204.14 325.28 205.49C323.81 208.36 321.85 214.91 322.28 215.34C322.46 215.52 323.2 213.57 323.99 211C324.72 208.43 326.19 205 327.23 203.47L329.13 200.59L329.44 203.04L329.81 205.49L330.11 202.61C330.42 200.35 330.97 199.31 332.74 197.65C333.96 196.49 334.94 195.26 334.94 194.9C334.94 194.53 335.12 193.74 335.31 193.13C335.49 192.52 335.06 193.07 334.33 194.35C333.6 195.7 332.92 196.61 332.8 196.49C332.37 196.06 333.9 190.8 334.7 189.88C335.43 189.15 335.56 189.21 335.62 190.49C335.68 191.35 336.23 189.45 336.84 186.27C337.51 183.09 338.43 180.03 338.92 179.48C340.94 177.28 339.78 175.2 336.47 175.2C335.74 175.2 334.94 174.77 334.7 174.28C334.52 173.79 334.95 169.75 335.62 165.29C336.35 160.82 337.03 154.77 337.21 151.89C337.52 146.93 337.46 146.5 335.86 143.94C333.6 140.33 331.52 138.13 329.43 137.27C328.33 136.84 327.41 135.74 326.8 134.15C326 132.19 325.27 131.46 322.58 130.23C318.11 128.21 308.26 126.25 302.57 126.25C298.9 126.31 297.31 126.62 295.04 127.78C293.51 128.64 289.35 130.11 285.86 131.09C280.9 132.56 279.25 133.29 278.21 134.64C274.42 139.41 270.62 144.98 270.26 146.33C270.08 147.19 270.5 153.25 271.18 159.79C271.91 166.39 272.34 171.96 272.16 172.21C272.04 172.52 271.49 172.58 271.06 172.39C270.57 172.21 270.02 172.33 269.78 172.7C269.52 173.11 269.95 173.36 270.87 173.36ZM287.51 173.97C287.69 173.66 289.41 173.36 291.3 173.36C293.2 173.36 294.6 173.48 294.48 173.6C293.81 174.15 287.15 174.58 287.51 173.97ZM302.68 177.3C302.67 177.34 302.66 177.38 302.65 177.42C302.65 177.43 302.65 177.43 302.64 177.44C302.62 177.49 302.6 177.55 302.57 177.62C302.56 177.64 302.55 177.66 302.54 177.68C302.51 177.74 302.48 177.8 302.45 177.87C302.44 177.89 302.43 177.9 302.42 177.92C302.38 178.01 302.32 178.1 302.26 178.2C302.24 178.23 302.22 178.26 302.2 178.3C302.15 178.39 302.09 178.48 302.03 178.58C302.01 178.61 302 178.64 301.98 178.67C301.9 178.8 301.82 178.93 301.73 179.08C301.7 179.12 301.68 179.17 301.65 179.21C301.57 179.34 301.49 179.47 301.4 179.61C301.37 179.65 301.35 179.69 301.32 179.74C301.2 179.92 301.08 180.11 300.95 180.32C300.92 180.36 300.89 180.41 300.87 180.45C300.75 180.63 300.62 180.83 300.49 181.03C300.46 181.08 300.43 181.12 300.4 181.17C300.24 181.41 300.07 181.67 299.89 181.95C299.86 182 299.82 182.05 299.79 182.1C299.64 182.33 299.48 182.57 299.32 182.82C299.26 182.92 299.19 183.01 299.13 183.11C298.94 183.4 298.74 183.71 298.52 184.03C298.39 184.23 298.24 184.45 298.1 184.66C297.92 184.93 297.73 185.21 297.54 185.5C297.3 185.86 297.06 186.23 296.8 186.63C293.68 191.4 292.64 191.89 290.25 190L288.9 188.9L292.39 183.76C296.3 178.01 297.65 176.3 298.02 176.66C298.2 176.78 297.59 178.25 296.74 179.9C295.88 181.49 294.6 183.82 293.86 184.98C292.27 187.61 293.49 186.26 297.71 180.82C299.55 178.43 301.08 177.03 301.87 177.03C301.96 177.03 302.04 177.03 302.12 177.02C302.2 177.02 302.27 177.01 302.33 177.01C302.34 177.01 302.34 177.01 302.35 177.01C302.41 177.01 302.46 177.01 302.51 177.02C302.52 177.02 302.52 177.02 302.53 177.02C302.57 177.03 302.61 177.05 302.63 177.07H302.64V177.08C302.66 177.1 302.67 177.12 302.67 177.15V177.16C302.67 177.19 302.67 177.22 302.67 177.25C302.69 177.27 302.69 177.29 302.68 177.3ZM332.54 177.95C331.62 178.93 325.14 190.43 325.14 191.11C325.14 191.42 324.83 191.72 324.53 191.72C323.98 191.72 320.37 190.07 319.76 189.58C319.52 189.4 326.18 179.06 327.53 177.46C329.3 175.32 328.88 177.46 326.67 181.32C325.51 183.4 324.59 185.23 324.71 185.36C324.77 185.48 326.24 183.53 327.89 181.02C329.73 178.27 331.38 176.43 332.05 176.43C333.22 176.42 333.4 177.09 332.54 177.95ZM285.06 167.42C286.9 165.46 286.9 165.4 286.53 160.08C286.29 156.9 286.41 154.39 286.78 153.9C287.15 153.41 289.41 153.17 293.88 153.17C299.08 153.17 301.84 153.54 307.71 155.01C311.75 155.99 315.42 156.85 315.97 156.85C316.46 156.85 319.52 155.75 322.7 154.46C329.8 151.52 330.53 151.46 331.33 153.6C331.88 155.13 333.23 171.59 332.86 172.02C332.74 172.08 331.88 171.71 330.9 171.22C329.25 170.42 328.64 170.49 323.44 172.2C320.32 173.18 317.44 173.85 317.14 173.61C316.71 173.37 316.59 173.79 316.71 174.65C316.95 176.67 313.96 177.47 310.22 176.36C308.57 175.87 307.71 175.38 308.14 175.13C308.57 174.89 309.06 174.76 309.24 174.89C309.48 175.01 309.67 174.77 309.67 174.34C309.67 173.85 309.3 173.61 308.81 173.79C308.38 173.97 308.01 173.79 308.01 173.42C308.01 173.05 307.46 172.75 306.73 172.75C305.99 172.75 302.57 172.02 299.08 171.1L292.72 169.39L289.9 170.92C288.37 171.78 286.72 172.94 286.17 173.49C285.62 174.16 284.33 174.59 283.11 174.59C279.86 174.58 280.53 172.26 285.06 167.42Z" fill="black"></path>
<path d="M328.26 210.93C328.2 212.34 323.12 221.15 321.59 222.43C321.04 222.98 319.82 223.53 318.9 223.78C317.25 224.15 315.35 226.78 315.35 228.55C315.41 228.98 315.78 228.49 316.21 227.51C317.92 223.59 320.62 223.17 321.04 226.71L321.28 228.73L321.34 226.41C321.4 224.88 322.26 222.98 323.85 220.6C327.09 215.83 328.93 212.03 328.62 210.81C328.38 209.95 328.32 209.95 328.26 210.93Z" fill="black"></path>
<path d="M310.76 202.73C311.25 203.16 311.98 203.34 312.41 203.16C312.96 202.92 312.9 202.79 312.23 202.79C311.68 202.73 310.88 202.3 310.46 201.81C310.03 201.32 308.99 200.89 308.07 200.95L306.48 201.01L308.19 201.5C309.17 201.81 310.33 202.36 310.76 202.73Z" fill="black"></path>
<path d="M319.02 199.18C319.02 198.45 318.9 197.83 318.71 197.83C318.53 197.83 318.4 198.38 318.4 199.05C318.4 199.85 317.97 200.27 317.18 200.27C316.51 200.27 315.96 200.7 315.95 201.19C315.95 201.74 315.34 202.41 314.6 202.72C313.8 203.03 313.5 203.27 313.93 203.27C315.47 203.4 318.96 200.59 319.02 199.18Z" fill="black"></path>
<path d="M315.96 271.26C315.1 271.26 313.82 270.89 313.15 270.4C311.99 269.54 311.8 269.67 310.95 271.69C310.28 273.16 310.09 274.26 310.46 275.18C310.95 276.34 311.01 276.34 311.01 274.75C311.07 273.77 311.38 272.49 311.68 271.81C312.29 270.71 312.41 270.71 313.82 271.63C314.68 272.18 315.35 272.98 315.35 273.47C315.35 273.9 315.59 274.39 315.9 274.57C316.21 274.81 316.33 274.39 316.14 273.65C315.9 272.92 316.14 272.12 316.63 271.81C317.25 271.44 317.06 271.26 315.96 271.26Z" fill="black"></path>
<path d="M312.29 293.47C312.29 293.58 313.09 294.34 314.1 295.29C314.17 295.35 314.24 295.42 314.31 295.49L316.27 297.26L314.5 295.24C312.78 293.41 312.29 292.98 312.29 293.47Z" fill="black"></path>
<path d="M287.05 199.51C290.69 203.03 290.76 203.1 291.48 207.87C292.28 213.13 293.19 216.31 293.25 214.11C293.37 211.85 291.9 204.87 290.99 203.03C290.5 201.99 288.6 199.54 286.71 197.58C284.87 195.56 282.86 192.81 282.3 191.46C281.38 189.5 281.14 189.26 281.14 190.36C281.08 192.62 282.85 195.44 286.89 199.35C286.95 199.41 287 199.46 287.05 199.51Z" fill="black"></path>
<path d="M311.25 287.48C311.25 289.13 311.37 289.81 311.49 288.83C311.61 287.91 311.61 286.57 311.49 285.77C311.37 285.03 311.25 285.76 311.25 287.48Z" fill="black"></path>
<path d="M311.74 283.25C311.74 283.92 311.92 284.11 312.11 283.62C312.29 283.19 312.23 282.64 312.05 282.46C311.86 282.21 311.68 282.58 311.74 283.25Z" fill="black"></path>
<path d="M308.8 257.8C308.37 257.8 308 257.92 308 258.04C308 258.41 318.59 260.86 319.69 260.79C320.61 260.74 310.03 257.86 308.8 257.8Z" fill="black"></path>
<path d="M268.78 180.4C269.39 175.44 270.8 174.47 273 177.46L274.22 179.11L272.45 180.76C270.92 182.17 270.67 182.84 270.74 185.41L270.86 188.35L271.23 185.54C271.66 182.54 272.76 180.71 274.11 180.71C275.33 180.71 275.82 183.1 274.78 184.26C274.29 184.81 273.74 186.34 273.55 187.57C273.24 189.47 273.43 190.02 274.47 190.75C276.31 192.03 276.92 191.36 275.69 189.34C274.83 187.81 274.83 187.26 275.51 185.12C276 183.77 276.18 182 276 181.2C275.57 179.67 271.53 174.59 270.68 174.59C270.37 174.59 269.7 175.2 269.21 175.94C268.6 176.8 268.29 178.45 268.29 180.41L268.41 183.47L268.78 180.4Z" fill="black"></path>
<path d="M311.68 206.09C310.27 205.78 309.72 206.03 308.44 207.74C307.58 208.84 306.97 209.88 307.15 210.07C307.33 210.19 307.7 209.95 308.01 209.46C309.6 206.77 310.21 206.22 311.44 206.89C312.11 207.26 313.03 207.32 313.58 207.01C314.68 206.4 315.35 206.77 316.76 208.85C317.31 209.65 317.8 210.01 317.8 209.58C317.8 208.66 315.29 205.17 314.68 205.17C314.44 205.17 314.01 205.48 313.82 205.84C313.58 206.22 312.66 206.28 311.68 206.09Z" fill="black"></path>
<path d="M320.49 309.01C323.06 309.25 324.16 309.01 326.98 307.54L330.35 305.83L330.17 302.16C330.11 300.14 329.74 298.24 329.44 297.94C329.07 297.57 329.01 298.25 329.26 299.59C329.57 301.73 329.5 301.92 327.24 302.89C323.51 304.48 318.25 304.24 313.96 302.22C310.17 300.38 308.33 298.3 308.82 296.35C309.19 294.88 308.33 294.7 307.78 296.17C306.98 298.13 308.15 302.66 309.8 304.19C312.29 306.51 317.06 308.65 320.49 309.01Z" fill="white"></path>
<path d="M323.92 261.65C322.08 260.92 322.02 260.86 323.49 261.04C324.53 261.22 325.08 261.04 324.96 260.61C324.65 259.57 306.17 252.29 303.91 252.29C302.07 252.29 301.77 252.6 299.81 256.45C297.85 260.37 296.93 263.06 296.2 267.34C295.89 268.93 296.08 269.36 297.36 269.91C298.16 270.34 298.83 271.13 298.83 271.68C298.82 271.81 298.82 271.92 298.81 272.01C298.81 272.03 298.81 272.05 298.8 272.07C298.79 272.14 298.79 272.2 298.78 272.25C298.78 272.27 298.77 272.29 298.77 272.31C298.76 272.34 298.76 272.38 298.75 272.4C298.74 272.41 298.73 272.42 298.73 272.43C298.72 272.44 298.72 272.46 298.7 272.46H298.69C298.67 272.46 298.65 272.45 298.64 272.44C298.63 272.43 298.61 272.43 298.6 272.42C298.58 272.4 298.54 272.37 298.51 272.33C298.49 272.31 298.48 272.3 298.45 272.27C298.41 272.22 298.35 272.15 298.3 272.08C298.28 272.06 298.27 272.05 298.25 272.02C298.17 271.92 298.08 271.8 297.98 271.67C296.88 270.26 296.39 270.39 296.39 272.04C296.39 273.2 296.7 273.51 298.1 273.57C299.63 273.57 299.81 273.45 299.57 272.1C299.14 269.9 302.33 260.35 304.04 258.64C304.84 257.84 305.81 257.17 306.24 257.17C306.61 257.17 306.24 257.72 305.38 258.39C303.79 259.62 301.1 265.67 300.36 269.59C299.99 271.3 300.18 272.16 301.16 273.38C301.89 274.3 302.75 275.95 303.12 277.11C303.55 278.27 304.16 279.13 304.53 279.01C305.75 278.64 305.75 276.62 304.65 274.54C303.61 272.58 303.61 272.4 304.96 269.22C307.35 263.53 307.9 263.04 312.36 263.22C319.76 263.53 321.66 264.32 314.81 264.26L308.45 264.2L306.31 268.06L304.23 271.91L305.27 274.48C306.86 278.46 307.17 278.89 308.27 279.07C308.82 279.19 309.5 278.7 309.8 277.85C310.17 276.99 310.41 276.81 310.41 277.42C310.47 277.97 309.92 278.89 309.25 279.5C308.27 280.36 307.84 280.42 307.17 279.87C306.5 279.32 305.95 279.26 304.97 279.81C303.87 280.42 303.62 280.24 302.89 278.46C302.82 278.28 302.75 278.1 302.68 277.91C302.66 277.85 302.63 277.78 302.61 277.72C302.55 277.57 302.5 277.42 302.44 277.28C302.42 277.24 302.41 277.2 302.39 277.16C302.32 276.98 302.26 276.8 302.19 276.63C302.18 276.6 302.17 276.57 302.16 276.54C302 276.11 301.86 275.74 301.79 275.53C301.61 274.92 300.63 274.61 298.73 274.61L295.91 274.55L297.32 277.06C298.12 278.41 299.22 280.73 299.83 282.26C301.42 286.36 302.95 288.26 306.5 290.58C309.56 292.48 309.74 292.78 309.74 295.17C309.8 299.02 311.33 300.68 316.53 302.39C320.51 303.74 321.24 303.8 324.12 303.13C329.01 302.03 329.14 301.84 328.28 298.42C327.12 293.83 326.69 279.64 327.55 272.84C328.16 268.19 328.16 266.72 327.55 265.99C327.18 265.5 327 264.95 327.18 264.7L326.26 262.31C326.12 262.39 325.08 262.08 323.92 261.65ZM311.5 288.82C311.38 289.8 311.26 289.13 311.26 287.47C311.26 285.76 311.38 285.02 311.5 285.76C311.62 286.56 311.62 287.9 311.5 288.82ZM312.11 283.62C311.93 284.11 311.74 283.93 311.74 283.25C311.68 282.58 311.86 282.21 312.05 282.45C312.23 282.64 312.29 283.19 312.11 283.62ZM314.31 295.49C314.24 295.42 314.17 295.36 314.1 295.29C313.09 294.34 312.29 293.58 312.29 293.47C312.29 292.98 312.78 293.41 314.49 295.25L316.26 297.27L314.31 295.49ZM316.64 271.81C316.15 272.12 315.9 272.91 316.15 273.65C316.33 274.38 316.21 274.81 315.91 274.57C315.6 274.39 315.36 273.9 315.36 273.47C315.36 272.98 314.69 272.18 313.83 271.63C312.42 270.71 312.3 270.71 311.69 271.81C311.38 272.48 311.08 273.77 311.02 274.75C311.02 276.34 310.96 276.34 310.47 275.18C310.1 274.26 310.29 273.16 310.96 271.69C311.82 269.67 312 269.55 313.16 270.4C313.83 270.89 315.12 271.26 315.97 271.26C317.06 271.26 317.25 271.44 316.64 271.81ZM319.69 260.8C318.59 260.86 308 258.41 308 258.05C308 257.93 308.37 257.81 308.8 257.81C310.03 257.86 320.61 260.74 319.69 260.8Z" fill="white"></path>
<path d="M298.59 272.42C298.57 272.4 298.53 272.37 298.5 272.33C298.53 272.37 298.56 272.41 298.59 272.42Z" fill="white"></path>
<path d="M298.74 272.41C298.73 272.42 298.72 272.43 298.72 272.44C298.73 272.43 298.74 272.42 298.74 272.41Z" fill="white"></path>
<path d="M298.68 272.46C298.66 272.46 298.64 272.45 298.63 272.44C298.65 272.46 298.67 272.47 298.68 272.46Z" fill="white"></path>
<path d="M297.97 271.69C298.07 271.82 298.16 271.94 298.24 272.04C298.16 271.94 298.08 271.82 297.97 271.69Z" fill="white"></path>
<path d="M298.77 272.32C298.77 272.3 298.78 272.29 298.78 272.26C298.78 272.28 298.77 272.3 298.77 272.32Z" fill="white"></path>
<path d="M298.8 272.08C298.8 272.06 298.8 272.04 298.81 272.02C298.81 272.04 298.8 272.06 298.8 272.08Z" fill="white"></path>
<path d="M301.97 276.09C301.89 275.86 301.82 275.68 301.77 275.55C301.85 275.76 301.98 276.13 302.14 276.56C302.08 276.39 302.02 276.23 301.97 276.09Z" fill="white"></path>
<path d="M302.18 276.65C302.24 276.82 302.31 277 302.38 277.18C302.3 277 302.24 276.82 302.18 276.65Z" fill="white"></path>
<path d="M298.29 272.1C298.35 272.17 298.4 272.24 298.44 272.29C298.4 272.23 298.35 272.17 298.29 272.1Z" fill="white"></path>
<path d="M286.29 257.8C285.86 259.27 286.84 261.1 291.25 267.04C291.53 267.42 291.81 267.81 292.09 268.19C292.13 268.24 292.16 268.29 292.2 268.33C292.47 268.7 292.74 269.06 292.99 269.41C293.77 270.48 294.43 271.38 294.81 271.91C294.82 271.92 294.83 271.94 294.84 271.95C294.92 272.07 295 272.17 295.05 272.24C295.72 273.28 295.78 273.22 295.48 271.57C295.3 270.53 295.42 268.2 295.72 266.37C296.33 262.52 295.48 260.37 292.17 257.93C289.77 256.21 286.84 256.15 286.29 257.8Z" fill="white"></path>
<path d="M292.19 268.33C292.15 268.28 292.12 268.23 292.08 268.19C292.12 268.24 292.15 268.28 292.19 268.33Z" fill="white"></path>
<path d="M316.21 227.51C315.78 228.49 315.42 228.98 315.35 228.55L314.61 230.39C315.65 229.04 315.59 229.84 313.81 238.83C312.95 243.05 312.1 248.13 311.91 250.15L311.54 253.82L315.09 255.23C317.11 256.03 318.95 256.7 319.25 256.76C319.56 256.81 319.74 251.92 319.74 245.87C319.68 239.81 319.86 233.63 320.11 232.1C320.15 231.88 320.19 231.77 320.23 231.76L321.28 228.73L321.04 226.71C320.61 223.17 317.92 223.59 316.21 227.51Z" fill="white"></path>
<path d="M271.54 192.76C274.72 197.65 275.95 198.21 277.9 195.7C278.57 194.9 279.25 194.41 279.49 194.6C279.67 194.78 279.86 197.35 279.86 200.23C279.86 210.26 281.63 213.51 292.22 222.87C299.2 229.11 301.77 230.82 305.01 231.44C306.85 231.81 307.21 231.99 306.05 232.05L308.91 232.56C308.87 232.55 308.84 232.55 308.8 232.54C308.19 232.36 308.56 232.23 309.54 232.23C310.58 232.23 311.01 232.35 310.64 232.54L312.78 232.05C311.5 231.99 311.5 231.93 312.6 231.68C313.27 231.5 314.19 230.95 314.62 230.4L315.36 228.56C315.36 226.79 317.26 224.15 318.91 223.79C319.83 223.55 321.05 222.99 321.6 222.44C323.13 221.15 328.21 212.34 328.27 210.94C328.33 209.96 328.39 209.96 328.64 210.82L329.25 208.68C329.07 209.29 328.94 208.92 328.94 207.95C328.94 206.91 329.06 206.48 329.25 206.85L329.8 205.5L329.43 203.05L329.12 200.6L327.22 203.48C326.18 205.01 324.71 208.44 323.98 211.01C323.18 213.58 322.45 215.54 322.27 215.35C321.84 214.92 323.8 208.37 325.27 205.5C325.94 204.15 327.59 201.58 328.94 199.81C331.27 196.69 333.41 192.47 332.92 191.98C332.8 191.86 331.76 192.04 330.59 192.35C325.94 193.7 320.92 192.41 317.86 189.05C316.88 188.07 316.21 187.7 315.96 188.13C315.72 188.5 315.35 187.21 315.16 185.32C314.73 181.4 314 180.12 311.92 180.12C310.76 180.12 310.08 180.86 308.55 183.91C305 191.01 301.21 193.52 295.21 192.66C292.09 192.23 287.5 189.85 286.64 188.19C286.33 187.58 285.84 185.37 285.6 183.29C285.17 179.13 284.68 178.46 281.99 178.15C280.28 177.97 280.15 178.09 279.85 180.41C279.42 183.84 278.01 183.59 276.67 179.86C275.39 176.25 272.82 173.37 270.86 173.37C269.94 173.37 269.51 173.13 269.76 172.7L267.92 174.6C268.16 174.6 268.1 174.97 267.86 175.33C267.55 175.76 267.19 178.02 266.94 180.41L266.57 184.69L267.78 187.61C267.81 187.26 269.18 189.15 271.54 192.76ZM316.76 193.86C317.07 195.57 317 195.94 316.58 195.08C316.27 194.41 316.03 193.18 316.03 192.39C315.96 190.25 316.33 191.04 316.76 193.86ZM314.62 202.73C315.35 202.42 315.97 201.75 315.97 201.2C315.97 200.71 316.52 200.28 317.2 200.28C317.99 200.28 318.42 199.85 318.42 199.06C318.42 198.39 318.54 197.84 318.73 197.84C318.91 197.84 319.04 198.45 319.04 199.19C318.98 200.6 315.49 203.41 313.96 203.29C313.51 203.28 313.82 203.03 314.62 202.73ZM313.82 205.85C314 205.48 314.43 205.18 314.68 205.18C315.29 205.18 317.8 208.67 317.8 209.59C317.8 210.02 317.31 209.65 316.76 208.86C315.35 206.78 314.68 206.41 313.58 207.02C313.03 207.33 312.11 207.26 311.44 206.9C310.22 206.23 309.6 206.78 308.01 209.47C307.7 209.96 307.34 210.2 307.15 210.08C306.97 209.9 307.58 208.86 308.44 207.75C309.72 206.04 310.28 205.79 311.68 206.1C312.66 206.28 313.58 206.22 313.82 205.85ZM313.76 212.58C313.33 213.31 311.25 213.25 310.76 212.52C310.52 212.15 310.09 212.09 309.72 212.28C309.35 212.52 309.23 212.46 309.41 212.1C309.59 211.79 310.76 211.67 311.92 211.79C313.15 211.91 313.94 212.28 313.76 212.58ZM308.07 200.96C308.99 200.9 310.03 201.33 310.46 201.82C310.89 202.31 311.68 202.74 312.23 202.8C312.9 202.8 312.96 202.92 312.41 203.17C311.98 203.35 311.25 203.17 310.76 202.74C310.33 202.37 309.17 201.82 308.19 201.52L306.48 201.03L308.07 200.96ZM307.64 217.11C309.84 219.31 313.64 219.25 315.65 217.05C316.51 216.13 317.18 215.64 317.18 216.01C317.18 216.99 313.88 219.74 312.16 220.17C310.2 220.66 308.49 219.8 306.77 217.42C305.19 215.15 305.56 215.03 307.64 217.11ZM303.97 198.08C304.52 195.94 304.77 196.24 304.77 199.12C304.77 201.08 304.65 201.44 304.22 200.65C303.85 200.04 303.79 198.94 303.97 198.08ZM282.31 191.47C282.86 192.82 284.88 195.57 286.72 197.59C288.62 199.55 290.51 202 291 203.04C291.92 204.88 293.39 211.85 293.26 214.12C293.2 216.32 292.28 213.14 291.49 207.88C290.77 203.11 290.7 203.05 287.06 199.52C287.01 199.47 286.96 199.42 286.9 199.37C282.86 195.45 281.09 192.64 281.15 190.38C281.15 189.27 281.39 189.51 282.31 191.47ZM269.21 175.93C269.7 175.2 270.37 174.58 270.68 174.58C271.54 174.58 275.57 179.66 276 181.19C276.18 181.99 276 183.76 275.51 185.11C274.84 187.25 274.84 187.8 275.69 189.33C276.91 191.35 276.3 192.02 274.47 190.74C273.43 190.01 273.25 189.45 273.55 187.56C273.73 186.34 274.29 184.81 274.78 184.25C275.82 183.09 275.33 180.7 274.11 180.7C272.76 180.7 271.66 182.54 271.23 185.53L270.86 188.34L270.74 185.4C270.68 182.83 270.92 182.16 272.45 180.75L274.22 179.1L273 177.45C270.8 174.45 269.39 175.43 268.78 180.39L268.41 183.45L268.29 180.39C268.3 178.44 268.6 176.79 269.21 175.93Z" fill="white"></path>
<path d="M283.1 174.58C284.32 174.58 285.61 174.15 286.16 173.48C286.71 172.93 288.36 171.77 289.89 170.91L292.71 169.38L299.07 171.09C302.56 172.01 305.98 172.74 306.72 172.74C307.45 172.74 308 173.05 308 173.41C308 173.78 308.37 173.96 308.8 173.78C309.29 173.6 309.66 173.84 309.66 174.33C309.66 174.76 309.48 175 309.23 174.88C309.05 174.76 308.56 174.88 308.13 175.12C307.7 175.36 308.56 175.86 310.21 176.35C313.94 177.45 316.94 176.66 316.7 174.64C316.58 173.78 316.7 173.35 317.13 173.6C317.44 173.84 320.31 173.17 323.43 172.19C328.63 170.48 329.24 170.42 330.89 171.21C331.87 171.7 332.73 172.07 332.85 172.01C333.22 171.58 331.87 155.12 331.32 153.59C330.52 151.45 329.79 151.51 322.69 154.45C319.51 155.74 316.45 156.84 315.96 156.84C315.41 156.84 311.74 155.98 307.7 155C301.83 153.53 299.07 153.16 293.87 153.16C289.4 153.16 287.14 153.4 286.77 153.89C286.4 154.38 286.28 156.89 286.52 160.07C286.89 165.39 286.89 165.46 285.05 167.41C280.53 172.26 279.86 174.58 283.1 174.58Z" fill="white"></path>
<path d="M289.04 238.4C289.28 238.71 290.08 238.64 290.75 238.28C291.97 237.61 291.85 237.24 287.14 227.45C281.08 214.85 279.19 209.34 278.7 203.04C278.27 197.53 277.78 197.04 274.54 199.12C273.44 199.85 272.52 200.47 272.52 200.53C272.52 201.27 278.52 217.23 280.48 221.7C282.98 227.39 288.12 237.42 289.04 238.4Z" fill="white"></path>
<path d="M271.48 312.26C271.72 311.95 274.72 301.49 278.27 288.4C279.37 284.3 280.05 279.71 280.47 272.8C280.84 267.42 281.51 260.75 282 257.93C282.73 253.53 282.67 252.61 281.88 250.47C280.78 247.66 279.98 247.47 278.15 249.43C276.87 250.84 276.8 251.08 277.42 258.18C278.64 273.48 277.6 286.51 273.81 300.95C271.97 307.85 270.99 312.81 271.48 312.26Z" fill="white"></path>
<path d="M288.98 265.75C288.67 265.75 288.43 269.11 288.43 273.21C288.43 281.47 287.14 288.08 283.6 298.3C281.34 304.66 281.15 306.56 283.17 301.85C283.25 301.66 283.35 301.44 283.45 301.21C283.5 301.09 283.56 300.96 283.62 300.82C283.77 300.47 283.93 300.1 284.11 299.7C284.14 299.62 284.18 299.54 284.21 299.46C284.85 297.98 285.61 296.25 286.3 294.66C286.49 294.23 286.67 293.81 286.84 293.41C289.65 286.92 290.63 283.37 291.73 276.15L292.59 270.34L291.06 268.02C290.2 266.79 289.22 265.76 288.98 265.75Z" fill="white"></path>
<path d="M285.43 296.64C285.72 295.97 286.01 295.31 286.29 294.66C285.6 296.25 284.84 297.99 284.2 299.46C284.58 298.59 285.01 297.62 285.43 296.64Z" fill="white"></path>
<path d="M284.82 244.42C284.88 244.37 284.93 244.33 284.99 244.29C285.01 244.27 285.04 244.25 285.06 244.23C285.1 244.19 285.14 244.16 285.18 244.13C285.2 244.11 285.22 244.1 285.23 244.08C285.26 244.05 285.28 244.03 285.31 244.01C285.32 244 285.33 243.99 285.34 243.98C285.36 243.95 285.38 243.93 285.38 243.91C285.38 243.42 284.71 243.85 283.12 245.32L281.41 246.85L283.43 245.5C283.94 245.11 284.42 244.75 284.78 244.47C284.78 244.45 284.8 244.44 284.82 244.42Z" fill="white"></path>
<path d="M284.98 244.29C284.93 244.33 284.87 244.38 284.81 244.42C284.88 244.37 284.93 244.33 284.98 244.29Z" fill="white"></path>
<path d="M285.17 244.13C285.14 244.16 285.1 244.19 285.05 244.23C285.1 244.2 285.13 244.16 285.17 244.13Z" fill="white"></path>
<path d="M285.3 244.01C285.28 244.03 285.26 244.06 285.22 244.08C285.25 244.06 285.28 244.03 285.3 244.01Z" fill="white"></path>
<path d="M284.76 244.47C284.4 244.75 283.92 245.11 283.41 245.5C283.58 245.37 283.74 245.25 283.9 245.12C284.22 244.88 284.52 244.66 284.76 244.47Z" fill="white"></path>
<path d="M289.96 255.72C290.51 255.96 291.06 255.96 291.25 255.78C291.43 255.6 291.49 254.8 291.37 253.94L291.19 252.41L290.09 253.88C289.1 255.23 289.1 255.41 289.96 255.72Z" fill="white"></path>
<path d="M302.69 177.16C302.68 177.13 302.67 177.11 302.66 177.09L302.65 177.08C302.63 177.06 302.59 177.04 302.55 177.03C302.54 177.03 302.54 177.03 302.53 177.03C302.49 177.02 302.43 177.02 302.37 177.02C302.36 177.02 302.36 177.02 302.35 177.02C302.29 177.02 302.21 177.02 302.14 177.03C302.06 177.03 301.98 177.04 301.89 177.04C301.09 177.04 299.56 178.45 297.73 180.83C293.51 186.28 292.29 187.62 293.88 184.99C294.61 183.83 295.9 181.5 296.76 179.91C297.62 178.26 298.23 176.79 298.04 176.67C297.67 176.3 296.33 178.02 292.41 183.77L288.92 188.91L290.27 190.01C292.66 191.91 293.7 191.42 296.82 186.64C297.08 186.25 297.32 185.87 297.56 185.51C297.75 185.22 297.94 184.94 298.12 184.67C298.26 184.45 298.4 184.24 298.54 184.04C298.75 183.72 298.95 183.41 299.15 183.12C299.22 183.02 299.28 182.93 299.34 182.83C299.5 182.58 299.66 182.34 299.81 182.11C299.84 182.06 299.88 182.01 299.91 181.96C300.09 181.69 300.26 181.43 300.42 181.18C300.45 181.13 300.48 181.09 300.51 181.04C300.64 180.84 300.77 180.64 300.89 180.46C300.92 180.42 300.95 180.37 300.97 180.33C301.1 180.12 301.23 179.93 301.34 179.75C301.37 179.71 301.39 179.66 301.42 179.62C301.51 179.48 301.59 179.35 301.67 179.22C301.7 179.18 301.73 179.13 301.75 179.09C301.84 178.94 301.93 178.81 302 178.68C302.02 178.65 302.03 178.62 302.05 178.59C302.11 178.49 302.16 178.4 302.22 178.31C302.24 178.28 302.26 178.24 302.28 178.21C302.34 178.11 302.39 178.01 302.44 177.93C302.45 177.91 302.46 177.9 302.47 177.88C302.51 177.81 302.54 177.75 302.56 177.69C302.57 177.67 302.58 177.65 302.59 177.63C302.62 177.56 302.64 177.5 302.66 177.45C302.66 177.44 302.66 177.44 302.67 177.43C302.68 177.38 302.69 177.34 302.7 177.31C302.7 177.3 302.7 177.29 302.7 177.28C302.69 177.23 302.69 177.2 302.69 177.16C302.69 177.17 302.69 177.17 302.69 177.16Z" fill="white"></path>
<path d="M301.41 179.61C301.38 179.65 301.36 179.69 301.33 179.74C301.36 179.7 301.39 179.66 301.41 179.61Z" fill="white"></path>
<path d="M300.96 180.32C300.93 180.36 300.9 180.41 300.88 180.45C300.91 180.4 300.94 180.36 300.96 180.32Z" fill="white"></path>
<path d="M301.75 179.08C301.72 179.12 301.7 179.17 301.67 179.21C301.69 179.17 301.72 179.13 301.75 179.08Z" fill="white"></path>
<path d="M302.27 178.21C302.25 178.24 302.23 178.27 302.21 178.31C302.24 178.27 302.26 178.24 302.27 178.21Z" fill="white"></path>
<path d="M302.45 177.87C302.44 177.89 302.43 177.9 302.42 177.92C302.44 177.91 302.45 177.89 302.45 177.87Z" fill="white"></path>
<path d="M299.33 182.82C299.27 182.92 299.2 183.01 299.14 183.11C299.2 183.01 299.26 182.92 299.33 182.82Z" fill="white"></path>
<path d="M327.89 181.01C326.24 183.52 324.77 185.48 324.71 185.35C324.59 185.23 325.51 183.39 326.67 181.31C328.87 177.46 329.3 175.31 327.53 177.45C326.18 179.04 319.52 189.38 319.76 189.57C320.37 190.06 323.98 191.71 324.53 191.71C324.84 191.71 325.14 191.4 325.14 191.1C325.14 190.43 331.62 178.93 332.54 177.94C333.4 177.08 333.21 176.41 332.05 176.41C331.38 176.42 329.73 178.25 327.89 181.01Z" fill="white"></path>
<path d="M294.48 173.6C294.6 173.48 293.19 173.36 291.3 173.36C289.4 173.36 287.69 173.67 287.51 173.97C287.15 174.58 293.81 174.15 294.48 173.6Z" fill="white"></path>
<path d="M291.73 238.89C288.67 240.66 288.55 240.79 289.53 241.77C290.26 242.5 290.87 244.89 291.43 249.54C292.29 256.45 292.96 258.96 293.51 257.19C293.88 255.96 295.77 241.34 295.77 239.45L295.93 235.84C294.5 237.06 292.89 238.25 291.73 238.89Z" fill="white"></path>
<path d="M17.8103 6.84993C17.8303 7.02993 17.8503 7.16993 17.8703 7.28993C17.8703 7.29993 17.8703 7.31993 17.8803 7.32993C17.9003 7.43993 17.9103 7.52993 17.9203 7.58993C17.9203 7.59993 17.9203 7.60993 17.9303 7.61993C17.9403 7.66993 17.9503 7.69993 17.9603 7.69993C17.9603 7.69993 17.9603 7.69993 17.9703 7.69993C17.9703 7.69993 17.9803 7.68993 17.9803 7.67993C17.9803 7.66993 17.9803 7.66993 17.9903 7.65993C17.9903 7.64993 17.9903 7.62993 18.0003 7.60993C18.0003 7.58993 18.0003 7.57993 18.0103 7.55993C18.0103 7.53993 18.0103 7.50993 18.0203 7.47993C18.0203 7.45993 18.0203 7.42993 18.0303 7.39993C18.0303 7.36993 18.0303 7.31993 18.0403 7.27993C18.0403 7.24993 18.0403 7.21993 18.0403 7.17993C18.0403 7.13993 18.0403 7.09993 18.0403 7.05993C18.0403 7.00993 18.0403 6.95993 18.0503 6.89993C18.0503 6.85993 18.0503 6.80993 18.0503 6.75993C18.0503 6.69993 18.0503 6.63993 18.0603 6.56993C18.0603 6.50993 18.0603 6.44993 18.0703 6.37993C18.0803 6.17993 18.0803 5.95993 18.0903 5.70993C18.2203 2.75993 19.6003 0.399927 20.7203 1.11993C21.1803 1.37993 21.5703 3.60993 21.6403 6.29993L21.7703 11.0199L21.9703 7.08993C22.1003 4.98993 22.1003 2.56993 21.8403 1.70993C21.3103 -0.450073 19.2103 -0.190073 18.2303 2.09993C17.8403 3.14993 17.5703 4.97993 17.7703 6.15993C17.8003 6.39993 17.8303 6.61993 17.8503 6.79993C17.8103 6.83993 17.8103 6.83993 17.8103 6.84993Z" fill="black"></path>
<path d="M11.8904 4.15992C12.4204 4.15992 13.2704 6.64992 14.2504 11.4999C14.3204 11.8199 14.3904 12.1399 14.4604 12.4499C14.4804 12.5399 14.5004 12.6399 14.5204 12.7299C14.5804 12.9799 14.6304 13.2299 14.6904 13.4799C14.7004 13.5299 14.7104 13.5799 14.7204 13.6399C14.7904 13.9499 14.8504 14.2499 14.9204 14.5399C14.9304 14.5899 14.9404 14.6299 14.9504 14.6799C15.0004 14.9199 15.0504 15.1599 15.1004 15.3899C15.1204 15.4599 15.1304 15.5299 15.1404 15.5999C15.1904 15.8199 15.2404 16.0399 15.2804 16.2499C15.3004 16.3599 15.3304 16.4599 15.3504 16.5699C15.3904 16.7399 15.4204 16.8999 15.4504 17.0499C15.4604 17.1099 15.4804 17.1699 15.4904 17.2299C15.5304 17.4099 15.5604 17.5799 15.6004 17.7399C15.6104 17.7699 15.6104 17.7999 15.6204 17.8299C15.6804 18.0999 15.7304 18.3399 15.7704 18.5499C15.7804 18.5699 15.7804 18.5999 15.7904 18.6199C15.8004 18.6899 15.8204 18.7499 15.8304 18.7999C15.8504 18.8699 15.8604 18.9399 15.8704 18.9999C15.8704 19.0199 15.8804 19.0399 15.8804 19.0599C15.8904 19.1099 15.9004 19.1499 15.9104 19.1999C15.9104 19.2199 15.9204 19.2499 15.9204 19.2599C15.9304 19.3099 15.9404 19.3399 15.9404 19.3599C15.9604 19.4499 15.9804 19.5599 15.9904 19.6799C16.0004 19.7299 16.0104 19.7899 16.0104 19.8499C16.0204 19.9399 16.0304 20.0199 16.0504 20.1099C16.0804 20.3099 16.1004 20.5099 16.1304 20.6699C16.4604 22.8299 17.4404 18.4399 17.3804 14.9699C17.3804 14.9499 17.3804 14.9299 17.3804 14.9099C17.3204 11.4299 17.3104 11.3099 16.9204 13.6599L16.4604 16.2799L15.6704 13.6599C15.2104 12.2199 14.5504 9.32993 14.0904 7.23993C13.2404 3.23993 11.6604 2.18992 10.2804 4.74992C9.95043 5.46992 9.69043 6.84993 9.69043 7.89993C9.76043 9.20993 9.89041 9.33992 10.0804 8.41992C10.2104 7.69992 10.4704 6.44992 10.6704 5.59992C10.8404 4.80992 11.3604 4.15992 11.8904 4.15992Z" fill="black"></path>
<path d="M319.26 18.5798C319.98 26.5098 320.24 27.8198 322.08 29.9198C324.31 32.4798 325.82 35.0998 327 38.5698C327.53 40.0098 327.98 40.8598 327.98 40.4698C328.11 38.9598 326.01 33.9798 324.37 31.8798L322.73 29.7198L325.22 26.8398C326.73 25.1398 329.36 20.4798 331.59 15.4998C336.32 5.20981 336.91 4.15981 338.55 4.15981C340.45 4.15981 340.26 6.12981 337.63 13.7298C334.81 21.6598 334.15 25.3998 335.33 26.1198C336.25 26.7098 337.23 25.6598 344.65 16.0198C349.77 9.39981 351.81 7.95981 352.79 10.5098C353.25 11.7598 353.05 12.2098 345.96 22.4398C342.94 26.7698 340.51 30.5698 340.51 30.9598C340.51 32.5298 342.02 31.4198 347.99 25.3898C351.4 21.9198 354.62 19.2298 355.08 19.3598C357.25 20.0798 356.26 22.4398 351.53 27.4898C348.9 30.3698 346.08 33.5898 345.23 34.7698C342.87 38.0498 343.52 40.1498 346.54 38.9698C346.73 38.8898 346.89 38.8198 347.03 38.7598C347.06 38.7498 347.08 38.7398 347.11 38.7198C347.21 38.6698 347.31 38.6298 347.38 38.5998C347.41 38.5898 347.42 38.5798 347.44 38.5598C347.49 38.5298 347.55 38.4998 347.58 38.4798C347.6 38.4698 347.59 38.4598 347.6 38.4498C347.62 38.4298 347.64 38.4198 347.63 38.3998C347.63 38.3898 347.6 38.3798 347.57 38.3698C347.55 38.3598 347.55 38.3598 347.53 38.3498C347.49 38.3398 347.42 38.3398 347.36 38.3298C347.33 38.3298 347.31 38.3198 347.27 38.3198C347.19 38.3198 347.08 38.3098 346.98 38.3098C346.93 38.3098 346.9 38.3098 346.85 38.3098C346.68 38.3098 346.49 38.3098 346.27 38.3098C345.22 38.2398 344.43 37.8498 344.43 37.3898C344.43 36.9298 347.25 33.3298 350.73 29.4598C355.72 23.7598 356.9 21.9898 356.77 20.6098C356.38 17.3298 354.47 18.1798 347.97 24.5398C344.62 27.8798 341.8 30.3098 341.8 29.9798C341.8 29.6498 343.11 27.4898 344.75 25.1298C354.4 11.3598 354.47 11.1698 352.82 9.52981C350.72 7.42981 348.62 9.26981 340.41 20.1498C338.11 23.2298 336.01 25.7898 335.75 25.7898C334.7 25.7898 335.29 22.8398 337.92 14.9698C339.36 10.5098 340.48 6.18981 340.35 5.32981C340.09 3.42981 337.86 3.03981 336.41 4.60981C335.82 5.26981 334.44 7.81981 333.26 10.3798C328.53 20.7398 327.09 23.4298 324.92 25.8498C323.61 27.2898 322.36 28.4098 322.1 28.4098C321.18 28.4098 320.13 24.4098 320.06 20.9398C320.06 19.0998 319.8 17.0098 319.47 16.2898C319.19 15.4298 319.06 16.2798 319.26 18.5798Z" fill="black"></path>
<path d="M10.7703 10.84C10.5703 10.25 10.4404 10.91 10.5104 12.35C10.5104 13.79 10.6403 14.32 10.7703 13.46C10.9003 12.68 10.9003 11.5 10.7703 10.84Z" fill="black"></path>
<path d="M9.52041 17.92C10.4404 20.61 11.2904 23.23 11.4204 23.75C11.9504 25.78 12.1404 23.88 11.8104 20.08C11.6104 17.79 11.1504 16.15 10.8904 16.34C10.5604 16.54 9.84042 15.49 9.25042 14.05C8.00042 10.97 5.97042 10.38 5.31042 12.87C5.11042 13.72 5.24044 15.43 5.64044 16.67L6.30041 18.9L6.17044 15.95C5.98044 11.24 7.62041 12.22 9.52041 17.92Z" fill="black"></path>
<path d="M317.49 13.4698L319.13 14.9798L318.08 13.3398C317.55 12.4198 316.31 11.6398 315.32 11.4998L313.61 11.2998L313.87 21.5298L314.07 16.7398C314.33 11.5598 314.79 11.1098 317.49 13.4698Z" fill="black"></path>
<path d="M22.72 23.17C23.11 24.61 23.38 24.28 24.69 20.55C25.54 18.19 26.8601 15.63 27.6401 14.85C29.4101 13.01 31.51 12.69 31.84 14.13C31.97 14.92 31.6401 15.31 30.9201 15.31C30.0001 15.31 29.94 15.51 30.53 16.1C31.58 17.15 32.7 15.64 32.5 13.67C32.24 11.97 30.79 11.77 28.5 13.21C26.92 14.19 25.74 16.09 23.71 20.88C23.32 21.86 23.05 20.95 22.79 17.6L22.4 13.01L22.33 17.27C22.26 19.63 22.46 22.25 22.72 23.17Z" fill="black"></path>
<path d="M4.67016 29.5299C7.36016 32.3499 7.76016 32.5499 8.67016 31.6899C9.59016 30.7699 9.52015 30.1199 8.28015 25.1299C6.97015 19.9499 6.38015 18.1799 6.38015 19.6199C6.38015 19.9499 6.84013 21.9799 7.36013 24.1399C8.34013 28.1399 8.61014 31.6799 8.02014 31.6799C7.82014 31.6799 6.71015 30.6299 5.59015 29.3899C3.10015 26.5099 1.39016 25.5199 0.73016 26.5699C0.54016 26.8899 0.520151 27.0199 0.690151 26.9799C0.760151 26.9599 0.860139 26.9099 0.990139 26.8399C1.45014 26.5799 2.96016 27.6899 4.67016 29.5299Z" fill="black"></path>
<path d="M30.0703 20.2799C30.0703 20.8399 30.1903 21.0899 30.3403 20.9199C30.3803 20.8699 30.4203 20.7899 30.4703 20.6799C30.6703 20.2199 30.6003 19.6299 30.4003 19.4299C30.2003 19.1699 30.0103 19.5599 30.0703 20.2799Z" fill="black"></path>
<path d="M29.4201 22.9099C29.4201 23.6299 29.62 23.8299 29.81 23.2999C30.01 22.8399 29.94 22.2499 29.74 22.0499C29.55 21.7899 29.3501 22.1799 29.4201 22.9099Z" fill="black"></path>
<path d="M141.76 370.39C126.16 336.86 124.5 333.06 120.71 322.66C119.79 320.09 117.1 307.97 117.1 306.38C117.1 302.71 121.81 296.22 136.5 279.7C144.94 270.15 149.9 264.95 166.48 248C174.62 239.74 175.9 238.09 176.88 235.15C177.86 232.21 178.35 231.6 181.04 230.07C183.49 228.66 184.53 227.56 186.24 224.44C187.4 222.24 190.83 217.59 193.83 214.1L199.34 207.67H204.81C206.81 204.99 208.93 203.19 214.62 198.78C223.68 191.7 228.28 187.44 231.36 183.31C237.33 175.18 253.62 158.27 264.64 148.7C267.07 146.54 270.35 143 271.8 140.83C275.35 135.59 279.68 129.95 284.08 124.77C286.12 122.41 292.94 114.15 299.31 106.41C305.68 98.67 313.56 89.23 316.77 85.43C322.28 79.01 322.61 78.48 321.76 77.1C320.97 75.85 321.04 75.53 322.15 74.08C323.59 72.31 323.86 70.34 322.81 70.34C319.46 70.34 324.65 62.6 329.57 60.05C331.6 59.07 335.81 55.53 340.01 51.46C345.72 45.89 348.22 43.92 352.81 41.56C356.49 39.59 358.65 38.09 358.78 37.3C359.04 36.12 357.93 34.94 356.61 34.94C356.28 35.01 356.48 35.27 357.14 35.66C359.31 36.91 358.26 38.09 352.54 40.9C347.62 43.26 345.84 44.64 340.2 50.41C335.67 54.93 332.32 57.69 329.7 59.06C326.75 60.57 325.1 62.01 323.2 64.7L320.64 68.31L318.28 66.34C318.13 66.21 317.96 66.07 317.77 65.91C317.71 65.86 317.65 65.81 317.58 65.76C317.44 65.65 317.3 65.53 317.15 65.4C317.08 65.34 317 65.28 316.93 65.22C316.73 65.05 316.52 64.88 316.3 64.7C316.28 64.68 316.26 64.67 316.25 64.66C316.01 64.47 315.77 64.26 315.52 64.06C315.36 63.93 315.19 63.79 315.03 63.65C314.92 63.56 314.8 63.46 314.69 63.37C314.6 63.3 314.51 63.23 314.43 63.15C313.56 62.43 312.67 61.7 311.86 61.04C309.56 59.27 307.72 57.63 307.72 57.5C307.72 57.3 309.16 55.01 310.87 52.39L314.09 47.54L313.5 43.08C313.17 40.59 313.04 34.95 313.3 30.49C313.5 26.1 313.56 22.49 313.37 22.49C313.24 22.49 312.91 25.05 312.65 28.13C312.39 31.21 312.39 37.05 312.58 41.04L313.04 48.38L310.15 52.31C308.05 55.26 307 56.18 305.95 56.05C305.1 55.92 304.18 56.44 303.59 57.23C303 58.08 302.08 58.54 301.29 58.41C300.11 58.21 297.22 61.29 289.34 71.26C285.4 76.24 258.09 108.3 250.02 117.41C247.98 119.64 244.11 123.24 241.35 125.41C235.7 129.8 230.45 135.24 227.17 140.23C225.59 142.52 224.08 143.97 222.18 144.82C220.67 145.54 217.39 148.1 214.83 150.52C212.34 153.01 208.86 156.35 207.15 158.06C205.44 159.7 203.93 160.94 203.8 160.75C203.67 160.62 202.88 159.5 202.09 158.32C199 153.86 195.92 153.47 188.04 156.62C184.69 157.93 181.61 159.31 181.15 159.7C180.56 160.16 179.97 159.96 179.05 159.18C177.34 157.61 177.41 156.89 179.25 156.89C181.74 156.89 189.75 152.63 192.31 149.94C195.72 146.4 197.37 142.2 198.02 135.45C198.35 132.3 199.53 126.8 200.65 123.19C203.14 115.32 203.34 109.03 201.37 102.21C199.79 96.7 197.5 93.03 194.41 91.2C192.7 90.22 192.18 89.5 192.18 87.99C192.18 83.07 188.44 78.81 181.09 75.4C177.15 73.56 176.17 73.37 170.13 73.3C163.63 73.3 163.5 73.3 157.66 76.25C152.01 79.07 151.55 79.46 145.38 87.07C139.01 94.94 138.09 96.64 136.39 104.31C135.93 106.21 134.42 109.42 133.04 111.46C128.97 117.56 128.12 125.62 130.81 133.36C131.99 136.77 135.67 141.36 138.62 143.19C140.39 144.24 140.59 144.7 140.52 147.52C140.45 149.36 140.59 149.88 140.78 148.77C141.04 146.93 141.31 147.2 144 152.11C147.68 158.8 151.55 162.53 155.62 163.12C157.26 163.38 159.03 163.38 159.49 163.12C160.08 162.73 160.15 162.79 159.69 163.25C158.9 164.1 144.85 168.04 142.69 168.04C141.38 168.04 140.98 167.45 140.13 164.57C139.6 162.73 139.08 161.62 139.08 162.21C139.01 162.8 139.41 164.5 139.93 165.95C140.85 168.51 140.85 168.57 139.27 168.97C138.42 169.23 135.46 171.33 132.7 173.76C128.76 177.17 127.78 177.76 128.17 176.51C128.89 174.15 130.4 171.27 132.17 168.97C133.02 167.79 134.66 164.91 135.78 162.55C138.01 157.9 138.93 156.78 139.06 158.68C139.19 160.12 140.11 156.58 140.24 154.35C140.31 152.84 140.17 152.91 137.42 155.2C135.84 156.51 134.14 157.56 133.74 157.56C133.35 157.56 131.77 156.71 130.26 155.72C120.54 149.16 117.33 148.44 112.67 151.79C111.09 152.9 109.58 154.15 109.32 154.48C109.06 154.87 108.14 154.48 106.96 153.5C104.6 151.53 99.2101 145.57 98.3601 143.93C98.0301 143.27 96.3201 142.09 94.5501 141.24C91.6601 139.93 91.2702 139.4 89.5602 135.34C88.5102 132.72 86.4102 129.31 84.5702 127.21C80.3002 122.36 71.8302 110.36 68.8802 105.12C67.6302 102.76 62.7102 94.96 57.9202 87.75C53.1902 80.54 47.8802 72.15 46.1002 69.07C39.8002 57.86 37.1102 53.99 35.6002 53.99C34.6802 53.99 33.8901 53.33 33.4301 52.35C33.0401 51.43 32.1201 50.71 31.5301 50.71C29.5601 50.71 27.8502 46.91 27.3902 41.53L26.9301 36.61L26.8601 40.94C26.7301 44.41 27.0601 45.86 28.3001 48.28L29.9402 51.3L28.0402 51.96C26.9902 52.29 24.3602 53.8 22.2002 55.24L18.2602 57.93L14.9802 54.46C12.6802 52.17 11.1101 49.61 9.86014 46.53C8.88014 44.04 7.96016 42.4 7.82016 42.79C7.29016 44.3 11.6901 52.23 14.5801 55.11C16.2201 56.68 17.5301 58.26 17.5301 58.52C17.5301 58.85 16.8701 59.9 16.0901 60.88C14.7101 62.65 14.7102 62.78 15.7602 64.62C16.6102 66.06 16.6801 66.85 16.1501 68.03C15.3001 69.87 15.4302 70.19 24.4202 85.14C31.1202 96.42 34.4002 102.38 43.9802 120.87C46.8702 126.44 50.7401 132.93 52.6501 135.29C54.4901 137.65 59.2201 144.27 63.1501 150.04C67.0901 155.81 74.1802 165.97 78.9102 172.66C83.6402 179.35 88.3602 186.3 89.4102 188.13L91.2502 191.41L88.1002 201.24C83.9002 214.22 83.6402 219.07 86.1302 232.71C87.7102 241.04 87.9002 243.53 87.5702 249.69C86.8502 262.08 84.9402 270.73 81.2002 278.21C78.1802 284.24 77.0602 287.98 78.5102 287.06C79.8902 286.21 79.7602 288.24 77.7902 295.32C76.6702 299.45 74.8401 306.46 73.6501 310.99C72.4701 315.51 70.4301 323.18 69.1201 328.03C67.8101 332.88 66.7602 337.21 66.7602 337.6C66.7602 338.58 71.9502 340.68 80.2202 343.04L86.7902 344.94L86.6602 364.41L78.9802 387.35C78.9402 387.46 78.9101 387.57 78.8701 387.68H150.07C147.11 381.67 143.9 375.03 141.76 370.39ZM303.63 58.24C304.02 57.32 304.68 56.6 305.01 56.6C305.34 56.6 307.96 58.57 310.85 60.99C313.74 63.48 317.55 66.69 319.45 68.27C321.29 69.84 322.8 71.35 322.8 71.61C322.8 71.94 322.21 72.92 321.42 73.9L320.04 75.6L313.41 69.77C303.44 61.12 302.71 60.27 303.63 58.24ZM196.62 123.47C196.29 122.55 195.9 118.88 195.77 115.28C195.57 109.97 195.57 109.38 196.03 112.33C196.36 114.3 196.75 117.97 196.95 120.52C197.22 123.99 197.15 124.71 196.62 123.47ZM195.31 100.2C195.64 100.53 196.43 102.43 197.02 104.4C197.61 106.37 198.07 109.05 198 110.3C198 112 197.67 111.22 196.82 107.42C196.16 104.54 195.44 101.59 195.11 100.86C194.79 99.93 194.79 99.74 195.31 100.2ZM189.8 100.26C191.11 103.01 192.23 110.36 191.77 112.91C191.11 115.93 190 115.53 187.9 111.4C186.06 107.73 184.29 106.81 178.77 106.81C175.03 106.74 174.11 106.94 174.11 107.73C174.11 108.52 175.29 108.78 179.49 109.04C183.95 109.3 185.14 109.63 186.51 110.94C187.43 111.86 188.09 112.64 187.95 112.78C187.82 112.98 185.32 112.32 182.5 111.47C179.68 110.55 175.61 109.63 173.44 109.37C166.94 108.71 160.84 106.55 162.54 105.5C164.38 104.32 163.2 102.62 159.26 100.85C154.93 98.95 151.64 98.88 149.48 100.85C148.43 101.83 146.85 102.16 146.85 101.44C146.85 101.24 148.16 99.08 149.74 96.65C154.14 89.83 158.14 87.47 165.56 87.41C169.37 87.41 170.55 87.67 172.52 88.98C173.77 89.83 177.25 91.21 180.14 92.06C185.79 93.57 187.24 94.75 189.8 100.26ZM185.27 113.7C186.25 113.7 185.73 114.42 182.97 116.91C178.11 121.24 174.7 123.66 173.71 123.33C172.6 122.94 183.69 113.7 185.27 113.7ZM171.81 120.98C171.81 120.06 181.2 112.33 182.25 112.33C182.84 112.4 181.13 114.43 178.38 116.92C173.84 121.11 171.81 122.35 171.81 120.98ZM147.26 114.95C152.84 109.9 157.7 105.77 158.09 105.77C158.35 105.77 158.75 106.03 158.94 106.29C159.07 106.55 156.64 109.04 153.43 111.86C149.88 114.94 147.46 116.65 147.13 116.19C146.93 115.8 146.99 115.27 147.26 114.95ZM144.89 114.36C144.89 113.31 154.87 104.46 155.52 104.85C155.91 105.11 153.88 107.47 151.06 110.09C146.01 114.82 144.89 115.54 144.89 114.36ZM153.3 103.15C151.2 102.69 149.69 102.04 149.89 101.71C150.48 100.79 153.83 101.12 156.85 102.43C158.43 103.09 160.07 104.13 160.59 104.72C161.38 105.7 161.31 105.7 159.28 104.85C158.02 104.33 155.33 103.6 153.3 103.15ZM181.26 81.12C182.18 82.17 183.03 83.61 183.16 84.27C183.69 86.17 183.16 85.65 181.39 82.3L179.68 79.22L181.26 81.12ZM173.39 76.33C174.11 76.26 176.08 77.71 177.85 79.54C179.56 81.31 181 83.28 181 83.87C181 84.59 180.28 84 179.1 82.43C177 79.55 174.57 77.25 173.13 76.73C172.4 76.46 172.47 76.33 173.39 76.33ZM158.22 78.23C160.45 77.38 163.41 77.44 166.62 78.56C168.2 79.15 170.56 80.53 171.81 81.64C173.91 83.48 173.98 83.54 172.14 82.43C167.41 79.61 166.17 79.22 161.51 79.22C158.88 79.22 156.72 79.15 156.72 79.02C156.71 78.96 157.37 78.56 158.22 78.23ZM144.56 91.48C146.92 89.12 152.37 86.1 154.34 86.1C155.19 86.17 154.47 86.62 152.63 87.35C150.92 88.07 148.43 89.45 147.05 90.5C143.38 93.38 142.33 93.77 144.56 91.48ZM133.4 114.95C133.27 114.95 134.12 113.11 135.3 110.82C136.55 108.59 137.99 105.05 138.65 102.89C139.24 100.79 139.83 99.22 140.03 99.42C140.23 99.62 139.77 101.78 139.05 104.27C137.87 108.19 134.32 114.95 133.4 114.95ZM138.72 118.95C137.47 117.9 137.34 116.07 138.52 116.39C138.91 116.59 139.44 117.37 139.5 118.23C139.71 119.6 139.64 119.67 138.72 118.95ZM158.88 156.9C154.28 156.9 149.75 154.54 145.68 150.02C140.95 144.64 140.1 142.61 139.77 135.4C139.44 129.04 138.79 127.66 136.68 129.37C135.83 130.09 135.7 129.63 135.7 125.9C135.7 121.77 136.55 119.54 137.21 121.97C137.41 122.63 137.54 122.17 137.6 120.99C137.67 118.04 138.98 118.96 139.04 122.04C139.11 123.74 139.37 122.89 140.02 119.35C140.48 116.53 141.2 113.19 141.66 111.81L142.51 109.38L142.97 111.48C143.17 112.66 143.89 114.36 144.48 115.35C146.58 118.5 152.49 120.14 157.08 118.89C159.44 118.23 160.63 117.32 162.53 114.89C166.08 110.24 167.85 110.69 169.16 116.53C170.14 120.92 171.52 123.35 173.95 124.86C179.86 128.47 184.78 127.88 188.13 123.09C189.31 121.45 190.43 120.27 190.56 120.4C190.76 120.6 190.36 122.89 189.77 125.51C189.18 128.2 188.59 131.08 188.52 132C188.45 132.92 188.06 134.29 187.6 135.15C187.14 136 186.94 137.18 187.14 137.71C187.4 138.3 187.07 139.28 186.48 139.94C185.82 140.66 185.63 141.19 186.02 141.19C186.81 141.19 188.06 138.76 188.32 136.67C188.58 134.57 189.96 134.18 190.36 136.08C190.56 137.19 190.62 137.13 190.49 135.75C190.42 134.77 190.62 133.98 190.95 133.98C191.21 133.98 191.48 133.65 191.48 133.26C191.48 132.87 190.89 132.74 190.04 133C188.6 133.46 188.6 133.39 189.65 132.34C191.29 130.64 192.93 131.55 192.41 133.78C191.49 137.78 189.26 141.91 187.22 143.48C184.79 145.32 183.67 145.64 184.92 144.14C185.31 143.62 185.51 142.89 185.25 142.5C184.33 141.06 182.82 141.98 180.65 145.38C176.91 151.21 175.13 152.59 168.24 154.82C164.72 156.05 160.71 156.9 158.88 156.9ZM143.51 169.36C143.9 169.36 144.23 169.62 144.23 170.02C144.23 170.35 144.1 170.68 143.97 170.68C143.77 170.68 143.44 170.35 143.25 170.02C143.05 169.62 143.19 169.36 143.51 169.36ZM136.88 185.22C137.73 182.6 138.52 181.55 140.29 180.57C141.54 179.85 142.78 179.26 143.05 179.26C143.31 179.19 141.87 181.42 139.83 184.11C137.79 186.8 136.02 188.96 135.89 188.83C135.83 188.7 136.23 187.06 136.88 185.22ZM30.6002 55.55C27.7102 56.73 21.6102 61.19 18.9102 64.07C17.3302 65.71 17.2702 65.71 16.4202 64.46C15.7602 63.54 15.7002 62.82 16.1602 61.97C17.4102 59.61 22.9201 55.15 26.9301 53.25C27.2801 53.09 27.5902 52.94 27.8902 52.8C27.9702 52.76 28.0502 52.72 28.1302 52.69C28.4002 52.57 28.6401 52.45 28.8701 52.35C28.9201 52.33 28.9702 52.3 29.0102 52.28C29.2602 52.17 29.4801 52.07 29.6801 51.98C29.7301 51.96 29.7702 51.94 29.8202 51.92C29.9802 51.85 30.1202 51.79 30.2502 51.74C30.2902 51.72 30.3402 51.71 30.3802 51.69C30.5402 51.63 30.6801 51.58 30.8101 51.54C30.8301 51.53 30.8401 51.53 30.8601 51.53C30.9701 51.5 31.0601 51.48 31.1501 51.46C31.1801 51.46 31.2102 51.45 31.2302 51.45C31.3202 51.44 31.4002 51.44 31.4702 51.44C31.4802 51.44 31.4901 51.44 31.4901 51.44C31.5701 51.45 31.6401 51.47 31.7101 51.49C31.7201 51.49 31.7302 51.49 31.7302 51.5C31.7402 51.5 31.7402 51.51 31.7502 51.51C31.8602 51.56 31.9701 51.63 32.0801 51.72C32.0901 51.73 32.1001 51.74 32.1101 51.75C32.2301 51.85 32.3501 51.97 32.4901 52.12C33.8801 53.52 33.3502 54.44 30.6002 55.55ZM113.97 186.27C114.3 185.29 128.94 170.01 129.53 170.01C129.66 170.01 129.2 171.52 128.48 173.29C127.76 175.13 127.17 177.22 127.17 178.01C127.17 179.32 127.3 179.32 129.34 177.35C131.7 175.06 132.43 175.19 132.43 177.74C132.43 178.85 130.66 181.08 126.19 185.54C117.98 193.67 116.28 196.75 114.31 207.04L113.78 209.66L113.32 205.73C112.86 201.48 113.32 188.11 113.97 186.27ZM98.5402 333.18C98.3402 332.85 99.0601 329.84 100.18 326.49C101.23 323.21 102.74 317.97 103.53 314.89C106.35 303.48 107.01 302.76 107.73 310.43C108.39 316.4 110.82 325.97 112.98 330.62C113.9 332.59 114.69 334.55 114.69 334.88C114.69 336.13 99.3302 334.43 98.5402 333.18Z" fill="black"></path>
<path d="M180.36 296.28C178.96 297.53 177.27 299.08 175.47 300.75C171.13 304.91 166.05 309.62 164.33 311.21C161.27 314.02 161.15 314.27 161.64 316.17C162.07 317.58 161.95 318.62 161.4 319.78C160.6 321.25 160.85 322.29 164.28 332.88C166.3 339.18 169.36 347.69 171.07 351.73C172.72 355.77 175.11 361.46 176.33 364.4C177.49 367.4 178.72 369.78 178.9 369.78C179.45 369.78 180.25 363.48 181.96 346.84C183.67 329.77 184.36 318.62 184.4 306.09C183.53 303.86 182.69 301.8 181.92 300.02C181.47 298.92 180.93 297.64 180.36 296.28Z" fill="black"></path>
<path d="M193.83 214.11C190.83 217.6 187.41 222.25 186.24 224.45C184.53 227.57 183.49 228.67 181.04 230.08C178.35 231.61 177.86 232.22 176.88 235.16C175.9 238.1 174.62 239.75 166.48 248.01C149.9 264.96 144.94 270.16 136.5 279.71C121.82 296.23 117.1 302.72 117.1 306.39C117.1 307.98 119.79 320.09 120.71 322.67C124.5 333.07 126.16 336.87 141.76 370.4C143.9 375.04 147.12 381.69 150.07 387.67H199.81C199.8 383.54 199.68 380.13 199.44 377.25C198.72 368.01 196.55 356.01 194.58 350.37C193.53 347.49 193.6 347.42 195.11 345.98C196.42 344.8 196.69 344.08 196.36 342.31C195.47 337.02 189.36 318.75 184.4 306.1C184.35 318.63 183.67 329.78 181.96 346.85C180.25 363.49 179.45 369.79 178.9 369.79C178.72 369.79 177.49 367.4 176.33 364.41C175.11 361.47 172.72 355.78 171.07 351.74C169.36 347.7 166.3 339.2 164.28 332.89C160.85 322.3 160.61 321.26 161.4 319.79C161.95 318.63 162.07 317.59 161.64 316.18C161.15 314.28 161.27 314.04 164.33 311.22C166.04 309.63 171.12 304.92 175.47 300.76C177.27 299.08 178.96 297.54 180.36 296.29C178.87 292.72 177.13 288.57 175.94 285.73L172.99 278.52L173.45 272.29C174.43 258.59 174.76 256.95 178.83 249.48C180.87 245.61 186.18 236.83 190.58 229.94C194.98 223.12 200.23 214.8 202.27 211.52C203.24 209.96 204.01 208.76 204.8 207.7H199.33L193.83 214.11Z" fill="black"></path>
<path d="M161.04 124.58C161.17 124.45 160.91 123.92 160.32 123.47C159.73 122.95 159.34 122.95 159.34 123.34C159.34 124.12 160.58 125.04 161.04 124.58Z" fill="black"></path>
<path d="M166.82 126.29C167.35 125.7 165.9 124.13 164.85 124.13C164.32 124.13 163.93 124.39 163.93 124.79C163.93 125.57 166.23 126.81 166.82 126.29Z" fill="black"></path>
<path d="M150.6 126.09C150.47 126.09 149.81 126.75 149.09 127.53L147.84 129.04L149.35 127.79C150.74 126.61 151.13 126.09 150.6 126.09Z" fill="black"></path>
<path d="M171.81 137.5C171.81 136.12 168.59 132.71 165.64 131.01C162.29 129.04 156.84 128.45 152.77 129.63L149.82 130.42L149.95 134.22C150.15 139.2 151.79 142.41 155.07 144.25C158.16 146.02 161.24 146.15 164.06 144.71C166.69 143.33 171.81 138.61 171.81 137.5ZM168.99 138.55C168.53 138.55 166.36 137.63 164.2 136.45C161.11 134.75 159.47 134.29 156.19 134.22C151.73 134.15 151.13 133.89 151.66 132.32C152.19 131.01 157.31 131.01 161.84 132.32C166.43 133.69 171.94 138.55 168.99 138.55Z" fill="black"></path>
<path d="M173.65 135.01C173.78 134.35 173.65 133.57 173.26 133.17C172.87 132.78 172.8 133.17 173 134.42C173.32 135.79 173.45 135.92 173.65 135.01Z" fill="black"></path>
<path d="M180.93 137.63C180.73 137.43 180.21 137.96 179.75 138.74C178.9 140.12 178.96 140.12 180.08 139.07C180.74 138.41 181.13 137.76 180.93 137.63Z" fill="black"></path>
<path d="M28.8903 26.7699C28.8903 27.7699 28.9503 28.3299 29.0403 28.2899C29.0803 28.2699 29.1203 28.1399 29.1603 27.8799C29.2903 27.0899 29.2903 25.9099 29.1603 25.2599C28.9603 24.6799 28.8203 25.3299 28.8903 26.7699Z" fill="black"></path>
<path d="M16.8104 33.4599C17.2704 32.2099 18.1904 30.6399 18.9104 29.9899C20.4904 28.6099 23.0504 25.1399 22.5204 25.1399C22.3904 25.1399 21.1403 26.3899 19.8303 27.8899C17.4003 30.6399 15.1704 34.8399 15.7604 35.4299C15.9604 35.5599 16.4204 34.7099 16.8104 33.4599Z" fill="black"></path>
<path d="M4.34021 34.57C3.22021 33.13 1.85023 31.1 1.39023 30.05C0.930228 28.94 0.540215 28.54 0.470215 29.13C0.470215 30.11 5.46021 37.59 6.12021 37.59C6.63021 37.59 6.37021 37.07 4.34021 34.57Z" fill="black"></path>
<path d="M28.1704 31.0299C28.1704 31.9499 28.3004 32.2799 28.5004 31.8199C28.6304 31.4299 28.6304 30.6399 28.5004 30.1799C28.3004 29.7899 28.1704 30.1199 28.1704 31.0299Z" fill="black"></path>
<path d="M27.5104 34.3099C27.5104 34.3899 27.4904 34.4899 27.4704 34.5999C27.4704 34.6199 27.4604 34.6499 27.4604 34.6699C27.4404 34.7799 27.4104 34.8899 27.3704 34.9999C27.3604 35.0199 27.3604 35.0299 27.3504 35.0499C27.3204 35.1599 27.2804 35.2699 27.2404 35.3799C27.2304 35.3999 27.2304 35.4199 27.2204 35.4399C27.1704 35.5699 27.1304 35.6899 27.0904 35.8099C27.0704 35.8699 27.0504 35.9299 27.0304 35.9799C27.0204 36.0099 27.0104 36.0399 27.0004 36.0599C26.9804 36.1099 26.9704 36.1399 26.9604 36.1799C26.9504 36.1999 26.9504 36.2199 26.9404 36.2399C26.9304 36.2799 26.9204 36.3099 26.9204 36.3299C26.9204 36.3299 26.9204 36.3399 26.9204 36.3499C26.9204 36.3699 26.9304 36.3799 26.9504 36.3699C26.9504 36.3699 26.9604 36.3599 26.9704 36.3499C26.9904 36.3399 27.0104 36.3199 27.0304 36.2799C27.0404 36.2599 27.0604 36.2399 27.0704 36.2199C27.1004 36.1799 27.1404 36.1299 27.1804 36.0799C27.2004 36.0499 27.2204 36.0199 27.2504 35.9799C27.3004 35.9099 27.3604 35.8199 27.4204 35.7299C27.4504 35.6899 27.4704 35.6599 27.5004 35.6099C27.6004 35.4599 27.7104 35.2999 27.8404 35.0999C27.9704 34.7099 27.9704 33.9199 27.8404 33.4599C27.6404 33.0699 27.5104 33.3899 27.5104 34.3099Z" fill="black"></path>
<path d="M355.3 35.75C354.97 35.75 353.2 36.27 351.36 37C349.92 37.53 349.22 37.93 349.57 37.96C349.65 37.97 349.79 37.95 349.99 37.92C352.02 37.46 356.35 35.75 355.3 35.75Z" fill="black"></path>
<path d="M15.3702 37.7199C15.5702 37.2599 15.5002 36.6699 15.3002 36.4699C15.1002 36.2099 14.9102 36.5999 14.9702 37.3199C14.9702 38.0499 15.1702 38.2499 15.3702 37.7199Z" fill="black"></path>
<path d="M6.44043 38.5699C6.51043 39.8199 7.62042 41.9099 7.62042 40.8599C7.62042 40.3399 7.36043 39.4199 7.03043 38.8899C6.70043 38.3799 6.44043 38.1799 6.44043 38.5699Z" fill="black"></path>
<path d="M313.28 30.5099C313.02 34.9699 313.15 40.6099 313.48 43.0999L314.07 47.5599L310.85 52.4099C309.14 55.0299 307.7 57.3299 307.7 57.5199C307.7 57.6499 309.54 59.2899 311.84 61.0599C312.36 61.4899 312.91 61.9399 313.47 62.3999C313.78 62.6599 314.09 62.9099 314.41 63.1699C314.5 63.2399 314.59 63.3099 314.67 63.3899C314.78 63.4799 314.9 63.5799 315.01 63.6699C315.18 63.8099 315.34 63.9399 315.5 64.0799C315.75 64.2899 316 64.4899 316.23 64.6799C316.25 64.6999 316.27 64.7099 316.28 64.7199C316.5 64.8999 316.71 65.0699 316.91 65.2399C316.99 65.2999 317.06 65.3599 317.13 65.4199C317.28 65.5499 317.43 65.6699 317.56 65.7799C317.62 65.8299 317.69 65.8899 317.75 65.9299C317.94 66.0899 318.11 66.2299 318.26 66.3599L320.62 68.3299L323.18 64.7199C325.08 62.0299 326.73 60.5899 329.68 59.0799C332.31 57.6999 335.65 54.9499 340.18 50.4299C345.83 44.6599 347.6 43.2799 352.52 40.9199C358.23 38.0999 359.28 36.9199 357.12 35.6799L355.28 35.7499C356.33 35.7499 352 37.4499 349.96 37.9099C349.76 37.9499 349.63 37.9599 349.54 37.9499L346.28 38.2999C346.5 38.2999 346.7 38.2999 346.86 38.2999C346.91 38.2999 346.94 38.2999 346.99 38.2999C347.1 38.2999 347.2 38.2999 347.28 38.3099C347.32 38.3099 347.34 38.3199 347.37 38.3199C347.43 38.3199 347.5 38.3299 347.54 38.3399C347.56 38.3399 347.57 38.3499 347.58 38.3599C347.6 38.3699 347.63 38.3799 347.64 38.3899C347.64 38.3999 347.62 38.4199 347.6 38.4399C347.59 38.4499 347.59 38.4599 347.58 38.4699C347.55 38.4899 347.49 38.5199 347.44 38.5499C347.42 38.5599 347.4 38.5699 347.38 38.5899C347.31 38.6299 347.21 38.6699 347.11 38.7099C347.08 38.7199 347.06 38.7299 347.03 38.7499C346.89 38.8099 346.73 38.8799 346.54 38.9599C343.52 40.1399 342.86 38.0399 345.23 34.7599C346.08 33.5799 348.91 30.3699 351.53 27.4799C356.26 22.4299 357.24 20.0699 355.08 19.3499C354.62 19.2199 351.4 21.9099 347.99 25.3799C342.02 31.4099 340.51 32.5299 340.51 30.9499C340.51 30.5599 342.94 26.7499 345.96 22.4299C353.05 12.1999 353.25 11.7399 352.79 10.4999C351.81 7.9399 349.77 9.3899 344.65 16.0099C337.23 25.6499 336.25 26.6999 335.33 26.1099C334.15 25.3899 334.81 21.6499 337.63 13.7199C340.26 6.1199 340.45 4.1499 338.55 4.1499C336.91 4.1499 336.32 5.1999 331.59 15.4899C329.36 20.4699 326.73 25.1299 325.22 26.8299L322.73 29.7099L324.37 31.8699C326.01 33.9699 328.11 38.9499 327.98 40.4599C327.98 40.8499 327.52 39.9999 327 38.5599C325.82 35.0899 324.31 32.4599 322.08 29.9099C320.24 27.8099 319.98 26.4999 319.26 18.5699C319.06 16.2799 319.19 15.4199 319.52 16.2799L319.13 14.9699L317.49 13.4599C314.8 11.0999 314.34 11.5599 314.08 16.7399L313.88 21.5299L313.35 22.5099C313.55 22.5099 313.48 26.1199 313.28 30.5099Z" fill="white"></path>
<path d="M347.47 38.55C347.45 38.56 347.43 38.57 347.41 38.59C347.44 38.58 347.45 38.57 347.47 38.55Z" fill="white"></path>
<path d="M347.4 38.3298C347.46 38.3298 347.53 38.3398 347.57 38.3498C347.53 38.3398 347.46 38.3398 347.4 38.3298Z" fill="white"></path>
<path d="M347.61 38.3699C347.63 38.3799 347.66 38.3899 347.67 38.3999C347.66 38.3799 347.63 38.3799 347.61 38.3699Z" fill="white"></path>
<path d="M347.63 38.4399C347.62 38.4499 347.62 38.4599 347.61 38.4699C347.63 38.4599 347.63 38.4499 347.63 38.4399Z" fill="white"></path>
<path d="M314.67 63.3799C314.58 63.3099 314.49 63.2399 314.41 63.1599C314.5 63.2399 314.58 63.3099 314.67 63.3799Z" fill="white"></path>
<path d="M315.51 64.0699C315.35 63.9399 315.18 63.7999 315.02 63.6599C315.18 63.7999 315.34 63.9399 315.51 64.0699Z" fill="white"></path>
<path d="M317.14 65.42C317.07 65.36 316.99 65.3 316.92 65.24C317 65.3 317.07 65.36 317.14 65.42Z" fill="white"></path>
<path d="M316.29 64.7199C316.27 64.6999 316.25 64.6899 316.24 64.6799C316.26 64.6899 316.27 64.6999 316.29 64.7199Z" fill="white"></path>
<path d="M313.42 69.7799L320.05 75.6099L321.43 73.9099C322.22 72.9299 322.81 71.9399 322.81 71.6199C322.81 71.3599 321.3 69.8499 319.46 68.2799C317.56 66.7099 313.75 63.4899 310.86 60.9999C307.97 58.5699 305.35 56.6099 305.02 56.6099C304.69 56.6099 304.04 57.3299 303.64 58.2499C302.71 60.2699 303.44 61.1199 313.42 69.7799Z" fill="white"></path>
<path d="M32.1205 51.7699C32.1105 51.7599 32.1005 51.75 32.0905 51.74C31.9805 51.65 31.8705 51.58 31.7605 51.53C31.7505 51.52 31.7305 51.52 31.7205 51.51C31.6505 51.48 31.5805 51.46 31.5005 51.46C31.4905 51.46 31.4805 51.46 31.4805 51.46C31.4105 51.45 31.3205 51.46 31.2405 51.47C31.2105 51.47 31.1905 51.48 31.1605 51.48C31.0705 51.49 30.9705 51.52 30.8705 51.55C30.8505 51.55 30.8405 51.56 30.8205 51.56C30.6905 51.6 30.5505 51.65 30.3905 51.71C30.3505 51.73 30.3005 51.74 30.2605 51.76C30.1305 51.81 29.9804 51.87 29.8304 51.94C29.7804 51.96 29.7405 51.98 29.6905 52C29.4905 52.09 29.2605 52.19 29.0205 52.3C28.9705 52.32 28.9205 52.34 28.8805 52.37C28.6505 52.47 28.4105 52.59 28.1405 52.71C28.0605 52.75 27.9805 52.78 27.9005 52.82C27.6005 52.96 27.2905 53.0999 26.9405 53.2699C22.9405 55.1699 17.4205 59.63 16.1705 61.99C15.7105 62.84 15.7805 63.56 16.4305 64.48C17.2805 65.73 17.3505 65.7299 18.9205 64.0899C21.6105 61.2099 27.7204 56.75 30.6104 55.57C33.3704 54.46 33.8905 53.54 32.5105 52.16C32.3605 52 32.2305 51.8799 32.1205 51.7699Z" fill="white"></path>
<path d="M31.1504 51.48C31.1804 51.48 31.2104 51.47 31.2304 51.47C31.2004 51.48 31.1704 51.48 31.1504 51.48Z" fill="white"></path>
<path d="M29.6802 51.9899C29.7302 51.9699 29.7702 51.9499 29.8202 51.9299C29.7702 51.9599 29.7302 51.9699 29.6802 51.9899Z" fill="white"></path>
<path d="M30.25 51.76C30.29 51.74 30.34 51.73 30.38 51.71C30.34 51.72 30.29 51.74 30.25 51.76Z" fill="white"></path>
<path d="M30.8003 51.56C30.8203 51.55 30.8303 51.55 30.8503 51.55C30.8403 51.56 30.8203 51.56 30.8003 51.56Z" fill="white"></path>
<path d="M27.8804 52.81C27.9604 52.77 28.0404 52.74 28.1204 52.7C28.0404 52.74 27.9604 52.78 27.8804 52.81Z" fill="white"></path>
<path d="M31.7402 51.52C31.7302 51.52 31.7202 51.52 31.7202 51.51C31.7302 51.52 31.7502 51.52 31.7602 51.53C31.7502 51.53 31.7502 51.53 31.7402 51.52Z" fill="white"></path>
<path d="M9.85025 46.51C11.1003 49.59 12.6702 52.15 14.9702 54.44L18.2502 57.91L22.1902 55.22C24.3602 53.78 26.9802 52.27 28.0302 51.94L29.9302 51.28L28.2903 48.26C27.0403 45.83 26.7103 44.39 26.8503 40.92L26.9203 36.59L27.8402 35.08C27.7102 35.28 27.6002 35.45 27.5002 35.59C27.4702 35.63 27.4503 35.67 27.4203 35.71C27.3603 35.8 27.3002 35.89 27.2502 35.96C27.2302 35.99 27.2002 36.03 27.1802 36.06C27.1402 36.12 27.1003 36.16 27.0703 36.2C27.0503 36.22 27.0402 36.24 27.0302 36.26C27.0002 36.29 26.9802 36.31 26.9702 36.33C26.9602 36.33 26.9603 36.34 26.9503 36.35C26.9303 36.36 26.9203 36.35 26.9203 36.33C26.9203 36.33 26.9203 36.32 26.9203 36.31C26.9203 36.29 26.9302 36.26 26.9402 36.22C26.9402 36.2 26.9502 36.18 26.9602 36.16C26.9702 36.12 26.9802 36.08 27.0002 36.04C27.0102 36.01 27.0202 35.98 27.0302 35.96C27.0502 35.91 27.0702 35.85 27.0902 35.79C27.0902 35.78 27.0903 35.78 27.1003 35.77C27.1403 35.66 27.1803 35.54 27.2303 35.42C27.2403 35.4 27.2402 35.38 27.2502 35.36C27.2902 35.25 27.3302 35.14 27.3602 35.03C27.3702 35.01 27.3702 34.99 27.3802 34.98C27.4202 34.86 27.4402 34.75 27.4702 34.65C27.4802 34.63 27.4803 34.6 27.4803 34.58C27.5003 34.47 27.5202 34.38 27.5202 34.29C27.5202 33.37 27.6503 33.04 27.8503 33.44L28.5103 31.8C28.3103 32.26 28.1802 31.93 28.1802 31.01C28.1802 30.09 28.3103 29.76 28.5103 30.16L29.0502 28.27C28.9702 28.31 28.9002 27.75 28.9002 26.75C28.8302 25.31 28.9702 24.65 29.1602 25.24L29.8203 23.27C29.6203 23.79 29.4302 23.6 29.4302 22.88C29.3602 22.16 29.5603 21.77 29.7603 22.03L30.3503 20.9C30.2003 21.07 30.0802 20.83 30.0802 20.26C30.0102 19.54 30.2102 19.15 30.4102 19.41L30.5403 16.07C29.9503 15.48 30.0102 15.28 30.9302 15.28C31.6502 15.28 31.9803 14.89 31.8503 14.1C31.5203 12.66 29.4202 12.99 27.6502 14.82C26.8602 15.61 25.5503 18.16 24.7003 20.52C23.3903 24.26 23.1203 24.58 22.7303 23.14C22.4703 22.22 22.2702 19.6 22.3402 17.24L22.4102 12.98L21.7502 11.01L21.6202 6.29001C21.5502 3.60001 21.1603 1.37001 20.7003 1.11001C19.5803 0.390014 18.2103 2.75001 18.0703 5.70001C18.0603 5.95001 18.0602 6.17001 18.0502 6.37001C18.0502 6.43001 18.0503 6.50001 18.0403 6.56001C18.0403 6.63001 18.0402 6.68001 18.0302 6.75001C18.0302 6.80001 18.0302 6.85001 18.0302 6.89001C18.0302 6.95001 18.0302 7.00001 18.0202 7.05001C18.0202 7.09001 18.0202 7.14001 18.0202 7.17001C18.0202 7.21001 18.0202 7.24001 18.0202 7.27001C18.0202 7.31001 18.0203 7.35001 18.0103 7.39001C18.0103 7.42001 18.0102 7.44001 18.0002 7.47001C18.0002 7.50001 18.0002 7.53001 17.9902 7.55001C17.9902 7.57001 17.9903 7.59001 17.9803 7.60001C17.9803 7.62001 17.9802 7.63001 17.9702 7.65001C17.9702 7.66001 17.9702 7.67001 17.9602 7.67001C17.9602 7.68001 17.9503 7.68001 17.9503 7.69001C17.9403 7.69001 17.9303 7.66001 17.9203 7.61001C17.9203 7.60001 17.9202 7.59002 17.9102 7.58002C17.9002 7.52002 17.8802 7.43001 17.8702 7.32001C17.8702 7.31001 17.8702 7.29001 17.8602 7.28001C17.8402 7.16001 17.8202 7.01001 17.8002 6.84001C17.8002 6.83001 17.8002 6.83001 17.8002 6.82001C17.7802 6.63001 17.7502 6.42001 17.7202 6.18001L16.9302 13.65C17.3202 11.3 17.3203 11.42 17.3903 14.9C17.3903 14.92 17.3903 14.94 17.3903 14.96C17.4603 18.43 16.4703 22.83 16.1403 20.66C16.1103 20.5 16.0902 20.3 16.0602 20.1C16.0602 20.09 16.0602 20.09 16.0602 20.08C16.0502 20 16.0402 19.92 16.0302 19.83C16.0202 19.77 16.0103 19.71 16.0103 19.66C15.9903 19.54 15.9702 19.43 15.9602 19.34C15.9602 19.32 15.9502 19.29 15.9402 19.24C15.9402 19.22 15.9302 19.2 15.9302 19.18C15.9202 19.14 15.9102 19.1 15.9002 19.04C15.9002 19.02 15.8903 19 15.8903 18.98C15.8803 18.92 15.8603 18.86 15.8503 18.78C15.8403 18.72 15.8202 18.66 15.8102 18.6C15.8002 18.58 15.8003 18.55 15.7903 18.53C15.7803 18.47 15.7702 18.42 15.7502 18.36C15.7202 18.2 15.6802 18.01 15.6302 17.81C15.6202 17.78 15.6202 17.75 15.6102 17.72C15.5802 17.56 15.5402 17.39 15.5002 17.21C15.4902 17.15 15.4702 17.09 15.4602 17.03C15.4302 16.88 15.3902 16.71 15.3602 16.55C15.3402 16.44 15.3203 16.34 15.2903 16.23C15.2403 16.02 15.2002 15.8 15.1502 15.58C15.1402 15.51 15.1202 15.44 15.1102 15.37C15.0602 15.14 15.0102 14.91 14.9602 14.66C14.9502 14.61 14.9402 14.57 14.9302 14.52C14.8702 14.23 14.8003 13.93 14.7303 13.62C14.7203 13.57 14.7103 13.52 14.7003 13.46C14.6503 13.21 14.5902 12.96 14.5302 12.71C14.5102 12.62 14.4902 12.52 14.4702 12.43C14.4002 12.12 14.3303 11.8 14.2603 11.48C13.2803 6.63001 12.4202 4.14001 11.9002 4.14001C11.3802 4.14001 10.8502 4.80002 10.7202 5.58002C10.5202 6.43002 10.2602 7.68001 10.1302 8.40001L10.7903 10.83C10.9203 11.49 10.9203 12.67 10.7903 13.45L10.9203 16.33C11.1803 16.13 11.6402 17.77 11.8402 20.07C12.1702 23.87 11.9703 25.77 11.4503 23.74C11.3203 23.22 10.4702 20.59 9.55023 17.91C7.65023 12.21 6.00026 11.22 6.20026 15.94L6.33023 18.89L6.40024 19.61C6.40024 18.17 6.99023 19.94 8.30023 25.12C9.55023 30.1 9.61025 30.76 8.69025 31.68C7.77025 32.53 7.38025 32.34 4.69025 29.52C2.98025 27.68 1.47025 26.57 1.01025 26.83C0.880254 26.91 0.770236 26.96 0.710236 26.97L0.490234 29.12C0.560234 28.53 0.950248 28.92 1.41025 30.04C1.87025 31.09 3.25023 33.12 4.36023 34.56C6.40023 37.05 6.66025 37.58 6.13025 37.58L6.46024 38.56C6.46024 38.17 6.72023 38.36 7.05023 38.89C7.38023 39.41 7.64026 40.33 7.64026 40.86L7.84024 42.76C7.95024 42.38 8.87025 44.01 9.85025 46.51ZM19.8302 27.89C21.1402 26.38 22.3902 25.14 22.5202 25.14C23.0502 25.14 20.4802 28.61 18.9102 29.99C18.1902 30.65 17.2702 32.22 16.8102 33.46C16.4202 34.71 15.9603 35.56 15.7603 35.43C15.1703 34.84 17.4002 30.64 19.8302 27.89ZM15.3002 36.48C15.5002 36.68 15.5602 37.27 15.3702 37.73C15.1702 38.25 14.9803 38.06 14.9803 37.34C14.9103 36.61 15.1002 36.21 15.3002 36.48Z" fill="white"></path>
<path d="M18.01 7.29004C18.01 7.33004 18.01 7.37004 18 7.41004C18.01 7.38004 18.01 7.34004 18.01 7.29004Z" fill="white"></path>
<path d="M18.0002 7.48999C18.0002 7.51999 18.0002 7.54999 17.9902 7.56999C17.9902 7.53999 18.0002 7.50999 18.0002 7.48999Z" fill="white"></path>
<path d="M17.9904 7.61987C17.9904 7.63987 17.9905 7.64987 17.9805 7.66987C17.9805 7.64987 17.9804 7.62987 17.9904 7.61987Z" fill="white"></path>
<path d="M17.7305 6.18994C17.7605 6.42994 17.7905 6.64994 17.8105 6.82994C17.7905 6.63994 17.7605 6.42994 17.7305 6.18994Z" fill="white"></path>
<path d="M17.8701 7.28986C17.8501 7.16986 17.8301 7.01985 17.8101 6.84985C17.8401 7.01985 17.8501 7.16986 17.8701 7.28986Z" fill="white"></path>
<path d="M17.97 7.68994C17.97 7.69994 17.96 7.69994 17.96 7.70994C17.97 7.69994 17.97 7.69994 17.97 7.68994Z" fill="white"></path>
<path d="M16.0302 19.8499C16.0202 19.7899 16.0103 19.7299 16.0103 19.6799C16.0203 19.7399 16.0302 19.7999 16.0302 19.8499Z" fill="white"></path>
<path d="M14.9504 14.68C14.9404 14.63 14.9304 14.59 14.9204 14.54C14.9304 14.58 14.9404 14.63 14.9504 14.68Z" fill="white"></path>
<path d="M15.8803 19C15.8703 18.94 15.8503 18.87 15.8403 18.8C15.8503 18.88 15.8603 18.94 15.8803 19Z" fill="white"></path>
<path d="M15.9604 19.37C15.9604 19.35 15.9504 19.32 15.9404 19.27C15.9404 19.31 15.9504 19.35 15.9604 19.37Z" fill="white"></path>
<path d="M14.7302 13.64C14.7202 13.59 14.7102 13.54 14.7002 13.48C14.7002 13.53 14.7202 13.58 14.7302 13.64Z" fill="white"></path>
<path d="M14.5302 12.7299C14.5102 12.6399 14.4902 12.54 14.4702 12.45C14.4802 12.54 14.5102 12.6399 14.5302 12.7299Z" fill="white"></path>
<path d="M15.6304 17.83C15.6204 17.8 15.6204 17.77 15.6104 17.74C15.6204 17.76 15.6204 17.8 15.6304 17.83Z" fill="white"></path>
<path d="M16.1503 20.6799C16.1203 20.5199 16.1003 20.3199 16.0703 20.1199C16.1003 20.3099 16.1303 20.5099 16.1503 20.6799Z" fill="white"></path>
<path d="M15.36 16.56C15.34 16.45 15.32 16.35 15.29 16.24C15.32 16.35 15.34 16.46 15.36 16.56Z" fill="white"></path>
<path d="M27.3604 35.05C27.3704 35.03 27.3704 35.01 27.3804 35C27.3704 35.02 27.3604 35.03 27.3604 35.05Z" fill="white"></path>
<path d="M27.46 34.6699C27.47 34.6499 27.47 34.6199 27.47 34.5999C27.47 34.6199 27.47 34.6399 27.46 34.6699Z" fill="white"></path>
<path d="M27.2305 35.4399C27.2405 35.4199 27.2405 35.3999 27.2505 35.3799C27.2405 35.3999 27.2305 35.4199 27.2305 35.4399Z" fill="white"></path>
<path d="M26.9204 36.32C26.9204 36.3 26.9304 36.27 26.9404 36.23C26.9304 36.27 26.9304 36.3 26.9204 36.32Z" fill="white"></path>
<path d="M27.0303 35.9798C27.0503 35.9298 27.0703 35.8698 27.0903 35.8098C27.0703 35.8698 27.0503 35.9198 27.0303 35.9798Z" fill="white"></path>
<path d="M180.67 145.36C182.84 141.95 184.35 141.03 185.27 142.48C185.53 142.87 185.34 143.59 184.94 144.12C183.69 145.63 184.81 145.3 187.24 143.46C189.27 141.89 191.51 137.76 192.43 133.76C192.96 131.53 191.31 130.61 189.67 132.32C188.62 133.37 188.62 133.43 190.06 132.98C190.91 132.72 191.5 132.85 191.5 133.24C191.5 133.63 191.24 133.96 190.97 133.96C190.64 133.96 190.44 134.75 190.51 135.73C190.64 137.11 190.58 137.17 190.38 136.06C189.99 134.16 188.61 134.55 188.34 136.65C188.08 138.75 186.83 141.17 186.04 141.17C185.65 141.17 185.84 140.65 186.5 139.92C187.09 139.26 187.42 138.28 187.16 137.69C186.96 137.17 187.16 135.99 187.62 135.13C188.08 134.28 188.47 132.9 188.54 131.98C188.61 131.06 189.2 128.18 189.79 125.49C190.38 122.87 190.77 120.57 190.58 120.38C190.45 120.25 189.33 121.43 188.15 123.07C184.8 127.86 179.88 128.45 173.97 124.84C171.54 123.33 170.16 120.91 169.18 116.51C167.87 110.68 166.09 110.22 162.55 114.87C160.65 117.3 159.46 118.21 157.1 118.87C152.5 120.12 146.6 118.48 144.5 115.33C143.91 114.35 143.19 112.64 142.99 111.46L142.53 109.36L141.68 111.79C141.22 113.17 140.5 116.51 140.04 119.33C139.38 122.87 139.12 123.72 139.06 122.02C138.99 118.94 137.68 118.02 137.62 120.97C137.55 122.15 137.42 122.61 137.23 121.95C136.57 119.52 135.72 121.75 135.72 125.88C135.72 129.62 135.85 130.08 136.7 129.35C138.8 127.65 139.46 129.02 139.79 135.38C140.12 142.59 140.97 144.62 145.7 150C149.77 154.52 154.3 156.88 158.9 156.88C160.74 156.88 164.74 156.03 168.29 154.78C175.16 152.57 176.93 151.2 180.67 145.36ZM179.75 138.74C180.21 137.95 180.73 137.43 180.93 137.63C181.13 137.76 180.73 138.42 180.08 139.07C178.96 140.12 178.9 140.12 179.75 138.74ZM173.25 133.17C173.64 133.56 173.78 134.35 173.64 135.01C173.44 135.93 173.31 135.8 172.98 134.42C172.79 133.17 172.86 132.78 173.25 133.17ZM164.85 124.12C165.9 124.12 167.34 125.69 166.82 126.28C166.23 126.8 163.93 125.56 163.93 124.77C163.93 124.39 164.32 124.12 164.85 124.12ZM160.32 123.47C160.91 123.93 161.17 124.45 161.04 124.58C160.58 125.04 159.33 124.12 159.33 123.33C159.34 122.94 159.73 122.94 160.32 123.47ZM147.85 129.04L149.1 127.53C149.82 126.74 150.48 126.09 150.61 126.09C151.14 126.09 150.74 126.61 149.36 127.79L147.85 129.04ZM155.07 144.25C151.79 142.41 150.15 139.2 149.95 134.22L149.82 130.42L152.77 129.63C156.84 128.45 162.29 129.04 165.64 131.01C168.59 132.71 171.81 136.12 171.81 137.5C171.81 138.61 166.69 143.33 164.06 144.71C161.24 146.15 158.15 146.02 155.07 144.25Z" fill="white"></path>
<path d="M160.58 104.72C160.05 104.13 158.41 103.08 156.84 102.43C153.82 101.12 150.47 100.79 149.88 101.71C149.68 102.04 151.19 102.69 153.29 103.15C155.33 103.61 158.02 104.33 159.26 104.85C161.31 105.7 161.37 105.7 160.58 104.72Z" fill="white"></path>
<path d="M182.25 112.32C181.2 112.32 171.81 120.06 171.81 120.97C171.81 122.35 173.85 121.1 178.38 116.91C181.13 114.42 182.84 112.39 182.25 112.32Z" fill="white"></path>
<path d="M173.71 123.34C174.69 123.67 178.11 121.24 182.97 116.92C185.73 114.43 186.25 113.71 185.27 113.71C183.69 113.7 172.6 122.94 173.71 123.34Z" fill="white"></path>
<path d="M153.43 111.87C156.65 109.05 159.08 106.56 158.94 106.3C158.74 106.04 158.35 105.78 158.09 105.78C157.7 105.78 152.84 109.91 147.26 114.96C147 115.29 146.93 115.81 147.13 116.21C147.45 116.65 149.88 114.95 153.43 111.87Z" fill="white"></path>
<path d="M155.53 104.85C154.87 104.46 144.9 113.31 144.9 114.36C144.9 115.54 146.02 114.82 151.07 110.1C153.89 107.47 155.92 105.11 155.53 104.85Z" fill="white"></path>
<path d="M140.03 99.4099C139.83 99.2099 139.24 100.79 138.65 102.88C137.99 105.04 136.55 108.58 135.3 110.81C134.12 113.1 133.26 114.94 133.4 114.94C134.32 114.94 137.86 108.19 139.05 104.25C139.77 101.77 140.23 99.6099 140.03 99.4099Z" fill="white"></path>
<path d="M147.06 90.4899C148.44 89.4399 150.93 88.0598 152.64 87.3398C154.48 86.6198 155.2 86.1598 154.35 86.0898C152.38 86.0898 146.93 89.1098 144.57 91.4698C142.33 93.7698 143.38 93.3799 147.06 90.4899Z" fill="white"></path>
<path d="M172.14 82.43C173.98 83.54 173.91 83.48 171.81 81.64C170.56 80.53 168.2 79.15 166.62 78.56C163.4 77.45 160.45 77.38 158.22 78.23C157.37 78.56 156.71 78.95 156.71 79.02C156.71 79.15 158.88 79.22 161.5 79.22C166.16 79.22 167.41 79.61 172.14 82.43Z" fill="white"></path>
<path d="M173.12 76.7298C174.56 77.2498 176.99 79.5498 179.09 82.4298C180.27 83.9998 180.99 84.5898 180.99 83.8698C180.99 83.2798 179.55 81.3098 177.84 79.5398C176.07 77.6998 174.1 76.2598 173.38 76.3298C172.47 76.3298 172.4 76.4598 173.12 76.7298Z" fill="white"></path>
<path d="M183.17 84.27C183.04 83.61 182.19 82.17 181.27 81.12L179.69 79.22L181.4 82.3C183.17 85.64 183.69 86.17 183.17 84.27Z" fill="white"></path>
<path d="M196.82 107.41C197.67 111.21 198 112 198 110.29C198.07 109.04 197.61 106.36 197.02 104.39C196.43 102.42 195.64 100.52 195.31 100.19C194.79 99.7299 194.79 99.9299 195.11 100.85C195.44 101.57 196.17 104.52 196.82 107.41Z" fill="white"></path>
<path d="M196.03 112.32C195.57 109.37 195.57 109.96 195.77 115.27C195.9 118.88 196.3 122.55 196.62 123.46C197.15 124.71 197.21 123.98 196.95 120.51C196.76 117.96 196.36 114.29 196.03 112.32Z" fill="white"></path>
<path d="M161.83 132.32C157.3 131.01 152.18 131.01 151.65 132.32C151.12 133.89 151.72 134.16 156.18 134.22C159.46 134.29 161.1 134.74 164.19 136.45C166.36 137.63 168.52 138.55 168.98 138.55C171.94 138.55 166.43 133.69 161.83 132.32Z" fill="white"></path>
<path d="M139.05 158.67C138.92 156.77 138 157.88 135.77 162.54C134.65 164.9 133.01 167.78 132.16 168.96C130.39 171.25 128.88 174.14 128.16 176.5C127.77 177.75 128.75 177.16 132.69 173.75C135.45 171.32 138.4 169.23 139.26 168.96C140.84 168.57 140.84 168.5 139.92 165.94C139.39 164.5 139 162.79 139.07 162.2C139.07 161.61 139.6 162.72 140.12 164.56C140.97 167.44 141.37 168.03 142.68 168.03C144.85 168.03 158.9 164.1 159.68 163.24C160.14 162.78 160.07 162.72 159.48 163.11C159.02 163.37 157.25 163.37 155.61 163.11C151.54 162.52 147.67 158.78 143.99 152.1C141.3 147.18 141.04 146.92 140.77 148.76L140.24 154.33C140.1 156.57 139.18 160.11 139.05 158.67Z" fill="white"></path>
<path d="M113.77 209.67L114.3 207.05C116.27 196.76 117.98 193.68 126.18 185.55C130.64 181.09 132.42 178.86 132.42 177.75C132.42 175.19 131.7 175.06 129.33 177.36C127.29 179.33 127.16 179.33 127.16 178.02C127.16 177.23 127.75 175.14 128.47 173.3C129.19 171.53 129.65 170.02 129.52 170.02C128.93 170.02 114.29 185.29 113.96 186.28C113.3 188.12 112.84 201.49 113.3 205.75L113.77 209.67Z" fill="white"></path>
<path d="M139.84 184.11C141.88 181.42 143.32 179.19 143.06 179.26C142.8 179.26 141.55 179.85 140.3 180.57C138.53 181.55 137.74 182.6 136.89 185.22C136.23 187.06 135.84 188.69 135.91 188.83C136.03 188.96 137.8 186.8 139.84 184.11Z" fill="white"></path>
<path d="M107.74 310.43C107.02 302.76 106.36 303.48 103.54 314.89C102.75 317.97 101.24 323.22 100.19 326.49C99.0704 329.83 98.3504 332.85 98.5504 333.18C99.3404 334.43 114.7 336.13 114.7 334.88C114.7 334.55 113.91 332.59 112.99 330.62C110.82 325.97 108.39 316.4 107.74 310.43Z" fill="white"></path>
<path d="M172.53 88.9899C170.56 87.6799 169.38 87.4199 165.57 87.4199C158.15 87.4899 154.15 89.8499 149.75 96.6599C148.17 99.0899 146.86 101.25 146.86 101.45C146.86 102.17 148.44 101.84 149.49 100.86C151.66 98.8899 154.94 98.9599 159.27 100.86C163.21 102.63 164.39 104.33 162.55 105.51C160.84 106.56 166.95 108.72 173.45 109.38C175.62 109.64 179.69 110.56 182.51 111.48C185.33 112.33 187.83 112.99 187.96 112.79C188.09 112.66 187.43 111.87 186.52 110.95C185.14 109.64 183.96 109.31 179.5 109.05C175.3 108.79 174.12 108.53 174.12 107.74C174.12 106.95 175.04 106.76 178.78 106.82C184.29 106.82 186.07 107.74 187.91 111.41C190.01 115.54 191.13 115.93 191.78 112.92C192.24 110.36 191.12 103.02 189.81 100.27C187.25 94.7599 185.81 93.5799 180.16 92.0799C177.26 91.2099 173.78 89.8399 172.53 88.9899Z" fill="white"></path>
</svg>