<svg fill="none" xmlns="http://www.w3.org/2000/svg" viewBox="-26 934 1050.76 346.11"><g clip-path="url(#clip0_301_350)"><path d="M24.65 1216.69s-10.328 -53.75 -10.191 -79.25l10.929 -8.72 44.451 -27.71s48.031 -1.42 51.419 0 13.66 7.4 16.83 7.48c3.169 0.09 34.479 2.41 38.523 1.13 4.043 -1.29 4.836 -4.3 7.486 -5.99s32.157 0 32.157 0 20.518 2.98 25.436 2.24 8.196 -3.77 11.584 -4.86c3.388 -1.1 9.972 1.06 13.087 1.5 4.775 0.07 9.503 -0.95 13.825 -2.98a70.7 70.7 0 0 1 10.491 -7.87c3.36 -1.5 12.076 0.82 15.71 0 3.633 -0.82 8.524 -7.11 11.966 -9.35s11.803 1.07 16.393 0c4.59 -1.06 5.027 -4.01 7.104 -5.24s6.447 0.21 8.961 0c2.514 -0.22 3.333 -1.26 6.366 -5.22 10.136 -13.31 28.223 -12.79 31.775 -13.48 1.229 -9.43 10.546 -9.75 14.972 -10.11s9.453 -4.65 13.824 -5.6a31.66 31.66 0 0 1 15.355 0c5.191 1.58 14.152 0.87 20.928 6.36 6.775 5.5 30.818 0.41 34.78 0 3.529 -0.49 7.12 0.3 10.109 2.25a22.96 22.96 0 0 0 11.966 3.36c3.415 -0.3 15.109 3.77 18.688 6.37 3.579 2.59 4.18 7.02 6.721 9.34 2.541 2.33 13.415 2.02 16.092 2.74 2.678 0.71 5.328 1.33 8.606 1.85a13.14 13.14 0 0 0 8.579 -1.5c2.733 -1.31 9.945 0 14.59 -0.74s15.081 -6.47 18.715 -6.72 3.798 1.09 5.983 2.73c2.186 1.64 20.409 -2.18 26.174 0 5.765 2.19 6.448 6.37 13.087 7.46 15.027 0 20.245 8.2 22.431 11.62 2.185 3.41 19.48 10.14 22.43 10.93 7.785 0.16 15.564 -0.54 23.196 -2.08 3.989 -1.12 25.819 -1.12 32.786 -2.73s22.075 2.73 22.075 2.73l9.727 5.06 78.904 3.36 72.783 3.2 27.704 47.42 -12.759 59.9H314.091z" fill="#0065A5"></path><path d="m755.898 1117.39 88.897 -7.56v126.76h-87.006z" fill="#D9D9D9"></path><path x="691.589" y="1049.28" width="43.5029" height="126.766" fill="#D9D9D9" d="M691.589 1049.28H735.092V1176.046H691.589V1049.28z"></path><path x="678.349" y="1123.07" width="79.44" height="126.766" fill="#D9D9D9" d="M678.349 1123.07H757.789V1249.836H678.349V1123.07z"></path><path d="m962.063 956.572 22.697 -13.244h36.88L1020.7 1212h-58.637z" fill="#D9D9D9"></path><path x="862.663" y="1071.89" width="149" height="187" fill="#D9D9D9" d="M862.663 1071.89H1011.663V1258.89H862.663V1071.89z"></path><path d="M248.881 1139.27h-54.586v2.76h54.586z" fill="black"></path><path d="M197.926 1072.99c0 -0.56 0.448 -1 1 -1h47.177c0.553 0 1 0.44 1 1v102.06c0 0.55 -0.447 1 -1 1h-47.177c-0.552 0 -1 -0.45 -1 -1z" fill="#D9D9D9"></path><path x="-0.673828" y="1119.29" width="124.834" height="138.118" fill="#D9D9D9" d="M-0.674 1119.29H124.16V1257.408H-0.674V1119.29z"></path><path d="M248.881 1077.13h-54.586v2.76h54.586z" fill="black"></path><path d="M248.881 1083.38h-54.586v2.76h54.586z" fill="black"></path><path d="M248.881 1090.3h-54.586v2.76h54.586z" fill="black"></path><path d="M248.881 1097.22h-54.586v2.77h54.586z" fill="black"></path><path d="M248.881 1104.15h-54.586v2.76h54.586z" fill="black"></path><path d="M248.881 1111.07h-54.586v2.77h54.586z" fill="black"></path><path d="M248.881 1118.02h-54.586v2.76h54.586z" fill="black"></path><path d="M248.881 1125.4h-54.586v2.76h54.586z" fill="black"></path><path d="M248.881 1132.32h-54.586v2.76h54.586z" fill="black"></path><path d="M246.971 1070.4v-7.12h-2.667v-4.24h-0.983v4.3c-11.784 0.26 -24.23 -2.33 -32.533 -1.72v8.61h-8.72v2.51h46.435v-2.33zm-32.778 -4.51h-1.722v-2.61h1.722zm3.612 0h-2.856v-2.61h2.781zm2.44 0h-1.721v-2.61h1.721zm2.648 0h-1.797v-2.61h1.797zm3.461 0h-1.778v-2.61h1.722zm3.367 0h-1.74v-2.61h1.74zm3.518 0h-1.797v-2.61h1.797z" fill="black"></path><path d="M199.458 1074.09h-2.459v66.42h2.459z" fill="black"></path><path d="M207.232 1071.46h-2.459v70h2.459z" fill="black"></path><path d="M216.954 1071.34h-2.459v71.9h2.459z" fill="black"></path><path d="M275.475 1072.99c0 -0.56 0.448 -1 1 -1h47.177c0.552 0 1 0.44 1 1v102.06c0 0.55 -0.448 1 -1 1h-47.177c-0.552 0 -1 -0.45 -1 -1z" fill="#D9D9D9"></path><path d="M227.849 1071.34h-2.459v71.9h2.459z" fill="black"></path><path d="M237.363 1070.96h-2.459v73.79h2.459z" fill="black"></path><path d="M245.855 1071.34h-2.459v71.9h2.459z" fill="black"></path><path d="M273.035 1079.91h54.586v-2.76h-54.586z" fill="black"></path><path d="M273.035 1086.14h54.586v-2.76h-54.586z" fill="black"></path><path d="M273.035 1093.06h54.586v-2.76h-54.586z" fill="black"></path><path d="M273.035 1100.01h54.586v-2.77h-54.586z" fill="black"></path><path d="M273.035 1106.93h54.586v-2.76h-54.586z" fill="black"></path><path d="M273.035 1113.86h54.586v-2.77h-54.586z" fill="black"></path><path d="M273.035 1120.78h54.586v-2.76h-54.586z" fill="black"></path><path d="M273.035 1128.18h54.586v-2.76h-54.586z" fill="black"></path><path d="M273.035 1135.1h54.586v-2.76h-54.586z" fill="black"></path><path d="M273.319 1070.4v2.32h46.453v-2.51h-8.719v-8.61c-8.304 -0.61 -20.806 1.89 -32.533 1.72v-4.3h-0.908v4.24h-2.667v7.12zm34.31 -7.12h1.892v2.61h-1.892zm-3.594 0h2.781v2.61h-2.781zm-2.458 0h1.74v2.61h-1.74zm-2.63 0h1.778v2.61h-1.778zm-3.48 0h1.797v2.61h-1.797zm-3.348 0h1.741v2.61h-1.741zm-3.518 0h1.778v2.61h-1.664z" fill="black"></path><path d="M322.458 1157.33h2.459v-83.24h-2.459z" fill="black"></path><path d="M314.684 1155.48h2.459v-83.25h-2.459z" fill="black"></path><path d="M304.433 1149.2h2.458v-77.42h-2.458z" fill="black"></path><path d="M293.519 1149.2h2.459v-77.42h-2.459z" fill="black"></path><path d="M284.024 1150.83h2.459v-79.47h-2.459z" fill="black"></path><path d="M275.513 1149.2h2.458v-77.42h-2.458z" fill="black"></path><path d="M273.035 1142.03h54.586v-2.76h-54.586z" fill="black"></path><path d="M273.035 1148.95h54.586v-2.76h-54.586z" fill="black"></path><path d="m655.425 1041.92 -68.564 128.28h-12.2l70.985 -125.4s7.566 -1.1 9.779 -2.88" fill="black"></path><path d="m546.97 1161.76 95.253 -107.37" stroke="#1D1D1B" stroke-width="0.75" stroke-miterlimit="10"></path><path d="m533.106 1160.68 108.379 -102.05" stroke="#1D1D1B" stroke-width="0.75" stroke-miterlimit="10"></path><path d="m516.481 1162.01 127.482 -105.12" stroke="#1D1D1B" stroke-width="0.75" stroke-miterlimit="10"></path><path d="m500.536 1163.26 138.698 -99.15" stroke="#1D1D1B" stroke-width="0.75" stroke-miterlimit="10"></path><path d="m488.488 1162.76 152.997 -97.91" stroke="#1D1D1B" stroke-width="0.75" stroke-miterlimit="10"></path><path d="m471.919 1163.5 165.821 -92.16" stroke="#1D1D1B" stroke-width="0.75" stroke-miterlimit="10"></path><path x="600.801" y="1117.39" width="145.64" height="104.061" fill="#D9D9D9" d="M600.801 1117.39H746.441V1221.451H600.801V1117.39z"></path><path d="m457.676 1163.01 171.345 -81.21" stroke="#1D1D1B" stroke-width="0.75" stroke-miterlimit="10"></path><path d="m443.453 1162.76 184.83 -73.99" stroke="#1D1D1B" stroke-width="0.75" stroke-miterlimit="10"></path><path x="572.429" y="1132.53" width="143.749" height="88.9251" fill="#D9D9D9" d="M572.429 1132.53H716.178V1221.455H572.429V1132.53z"></path><path d="M1021.51 965.881v-10.369l2.88 -0.738v-12.09h-2.99v-7.114h2.93V934h-17.02v0.927h-1.01v7.757h-21.842l-10.384 5.866 -3.877 2.194v1.041l3.877 -2.214v5.922l-12.011 6.887v1.892l7.169 -4.143v12.828l-7.566 4.314v92.119h-10.535v-31.31h-1.4l-4.104 0.62s-18.139 1.12 -22.262 4c-1.286 0.9 -2.062 3.35 -2.516 6.28l-44.297 20.05h-19.709v4.17h5.315v11.61h-12.01v9.58h11.462v8.7h-8.947v7.68h8.947v9.22h-8.947v8.76h8.947v9.99h-8.777v3.25h-2.704v-23.9l2.648 -3.55h-3.216v-10.39h-87.668s-0.302 5.34 -1.286 5.35h-4.388l1.986 3.03v2.71h-20.806v-69.08h-1.891v-4.03h-6.09v-16.31h-10.101v-3.48h-1.04v3.48h-20.806v16.31h-5.258v-5.11h-1.721v5.11h-0.775v1.89h0.775v2.2h-1.891v64.02h-35.332v3.56h-8.285l-0.435 3.05c-2.856 0 -16.928 -0.93 -20.143 -0.91v-3.3h-17.723s-0.208 3.6 -1.513 3.6h-5.41v9.63h-32.4l2.951 5.43v29.16l-236.542 -0.91 -8.115 -6 -6.62 -0.3 -2.704 -6.02 -54.095 -0.6a7.3 7.3 0 0 0 -2.144 -2.5 7.3 7.3 0 0 0 -3.02 -1.31 7.2 7.2 0 0 0 -3.289 0.14c-1.071 0.3 -2.062 0.83 -2.896 1.57l-3.915 -0.31v-5.11l-69.415 -1.51a11.42 11.42 0 0 0 -4.246 -6.94 11.43 11.43 0 0 0 -7.784 -2.37c-4.502 0.38 -3.348 3.92 -6.62 4.2 -3.272 0.29 -4.899 -3.9 -8.417 -3.29s-0.908 4.14 -4.199 5.11c-3.291 0.96 -13.24 -0.91 -13.24 -0.91l10.214 -21.95H-26l13.826 21.08v61.94h-2.704l2.704 3.32v64.32c45.054 23.75 209.514 -15.28 215.491 -16.83 5.977 -1.56 61.982 -2.26 70.645 -11.72 10.157 6.4 32.608 2.09 35.464 1.5s5.069 0.15 8.114 -1.21 3.083 -5.28 2.402 -6.91a4.5 4.5 0 0 0 -3.007 -2.1s74.295 -5.03 77.851 -7.57c-3.159 -3.91 -18.744 -4.73 -22.243 -6.01 -3.499 -1.29 -1.551 -5.07 -3.613 -6.02 -2.061 -0.95 -12.616 0 -12.616 0s0.492 -5.77 1.797 -7.57c5.353 -0.15 176.262 0.31 181.842 0.89 1.892 12.28 -7.017 18.92 -18.044 7.82 -3.518 6.07 -12.011 2.42 -12.011 2.42a15.2 15.2 0 0 1 -4.52 4.8c-3.329 2.44 -19.52 3.62 -19.52 3.62s23.473 3.57 25.535 5.41c2.061 1.83 -1.57 1.34 -0.587 2.99 0.984 1.64 5.164 -0.29 8.398 1.21 -3.272 4.9 -1.456 8.87 0.606 9.63s26.007 1.61 28.258 0.89 2.326 -6.66 1.21 -7.57 -5.41 0 -5.41 0 -0.661 -2.89 0.284 -3.92c8.72 3.16 37.28 3.01 37.28 3.01a5.28 5.28 0 0 1 -0.908 3.01c-1.021 1.57 -9.305 -0.3 -9.305 -0.3s2.742 8.44 1.494 10.82c-1.249 2.38 61.698 3.78 63.722 3.31 0.492 11.54 19.217 34.4 19.217 34.4h369.108V965.881zM107.497 1126.12c0.715 0 1.413 0.21 2.007 0.61 0.594 0.39 1.057 0.96 1.331 1.62 0.273 0.66 0.345 1.38 0.205 2.08a3.62 3.62 0 0 1 -0.988 1.86 3.65 3.65 0 0 1 -3.937 0.78 3.7 3.7 0 0 1 -1.622 -1.33 3.625 3.625 0 0 1 0.45 -4.57 3.64 3.64 0 0 1 2.554 -1.05m-24.286 0c0.715 0 1.413 0.21 2.007 0.61 0.594 0.39 1.057 0.96 1.33 1.62s0.346 1.38 0.206 2.08c-0.14 0.71 -0.483 1.35 -0.988 1.86a3.64 3.64 0 0 1 -3.937 0.78 3.7 3.7 0 0 1 -1.622 -1.33 3.626 3.626 0 0 1 0.45 -4.57 3.64 3.64 0 0 1 2.554 -1.05m-23.472 0c0.714 0 1.412 0.21 2.007 0.61 0.594 0.39 1.057 0.96 1.33 1.62s0.345 1.38 0.206 2.08c-0.14 0.71 -0.484 1.35 -0.989 1.86a3.64 3.64 0 0 1 -3.937 0.78 3.7 3.7 0 0 1 -1.621 -1.33c-0.397 -0.6 -0.61 -1.3 -0.61 -2.01 0.006 -0.96 0.388 -1.87 1.064 -2.55a3.6 3.6 0 0 1 2.55 -1.06m-24.192 0c0.715 0 1.413 0.21 2.007 0.61 0.594 0.39 1.057 0.96 1.33 1.62s0.346 1.38 0.206 2.08c-0.14 0.71 -0.483 1.35 -0.988 1.86a3.64 3.64 0 0 1 -3.937 0.78 3.7 3.7 0 0 1 -1.622 -1.33c-0.397 -0.6 -0.608 -1.3 -0.608 -2.01 0.004 -0.96 0.387 -1.87 1.063 -2.55a3.6 3.6 0 0 1 2.55 -1.06m-24.097 0c0.715 0 1.413 0.21 2.007 0.61 0.594 0.39 1.057 0.96 1.33 1.62s0.346 1.38 0.206 2.08c-0.139 0.71 -0.483 1.35 -0.988 1.86a3.64 3.64 0 0 1 -3.937 0.78 3.7 3.7 0 0 1 -1.622 -1.33 3.626 3.626 0 0 1 0.45 -4.57 3.64 3.64 0 0 1 2.554 -1.05m10.082 127.5H2.617v-38.54a9.454 9.454 0 0 1 9.458 -9.46 9.454 9.454 0 0 1 9.457 9.46zm0 -60.17H2.617v-38.56c0 -2.51 0.997 -4.91 2.77 -6.69a9.47 9.47 0 0 1 6.688 -2.77c2.508 0 4.913 1 6.687 2.77a9.47 9.47 0 0 1 2.77 6.69zm23.434 60.17H26.052v-38.54a9.454 9.454 0 0 1 9.457 -9.46 9.454 9.454 0 0 1 9.457 9.46zm0 -60.17H26.052v-38.56c0 -2.51 0.997 -4.91 2.77 -6.69a9.47 9.47 0 0 1 6.687 -2.77c2.508 0 4.914 1 6.688 2.77a9.47 9.47 0 0 1 2.77 6.69zm23.946 60.17h-2.648v-27.51H52.608v27.51h-2.535v-38.54a9.454 9.454 0 0 1 9.457 -9.46 9.454 9.454 0 0 1 9.457 9.46zm0 -60.17H49.998v-38.56c0 -2.51 0.996 -4.91 2.77 -6.69a9.47 9.47 0 0 1 6.687 -2.77c2.508 0 4.913 1 6.687 2.77a9.47 9.47 0 0 1 2.77 6.69zm23.718 60.17H73.716v-38.54a9.454 9.454 0 0 1 9.457 -9.46 9.454 9.454 0 0 1 9.457 9.46zm0 -60.17H73.716v-38.56c0 -2.51 0.997 -4.91 2.77 -6.69a9.47 9.47 0 0 1 6.687 -2.77c2.508 0 4.914 1 6.688 2.77a9.47 9.47 0 0 1 2.77 6.69zm23.681 60.17H97.397v-38.54a9.454 9.454 0 0 1 9.457 -9.46c2.508 0 4.914 1 6.687 2.77a9.45 9.45 0 0 1 2.77 6.69zm0 -60.17H97.397v-38.56c0 -2.51 0.996 -4.91 2.77 -6.69a9.47 9.47 0 0 1 6.687 -2.77c2.508 0 4.914 1 6.687 2.77a9.47 9.47 0 0 1 2.77 6.69zm228.731 -13.24h-4.597v-14h4.597zm2.61 0h-1.892v-14h1.892zm3.518 0h-1.929v-14h1.891zm6.828 0h-5.277v-14h5.277zm3.31 0H359.7v-14h1.608zm2.686 0h-1.759v-14h1.759zm6.828 0h-5.107v-14h5.107zm2.704 0h-1.891v-14h1.891zm3.348 0h-2.629v-14h2.629zm6.999 0h-6.167v-14h6.167zm3.404 0h-2.478v-14h2.478zm2.686 0h-1.891v-14h1.891zm7.566 0h-6.091v-14h6.091zm2.648 0h-1.759v-14h1.891zm1.759 0h-0.984v-14h0.984zm6.922 0h-5.315v-14h5.315zm2.232 0h-1.324v-14h1.4zm5.58 0h-4.445v-14h4.445zm2.497 0h-1.759v-14h1.815zm4.085 0h-3.064v-14h3.064zm2.799 0h-1.891v-14h1.891zm2.478 0h-1.664v-14h1.664zm7.812 0h-6.053v-14h6.053zm3.367 0h-2.497v-14h2.497zm3.612 0h-2.629v-14h2.629zm6.885 0h-6.166v-14h6.166zm3.461 0h-1.891v-14h1.891zm3.367 0h-2.44v-14h2.459zm7.566 0h-6.374v-14h6.393zm3.612 0h-2.477v-14h2.477zm2.648 0h-1.891v-14h1.891zm7.566 0h-5.882v-14h5.882zm3.367 0h-2.27v-14h2.27zm2.856 0h-1.759v-14h1.759zm7.566 0h-6.223v-14h6.26zm3.461 0h-2.44v-14h2.44zm2.837 0h-1.74v-14h1.797zm7.566 0h-5.958v-14h5.958zm3.518 0h-2.175v-14h2.175zm3.31 0h-2.289v-14h2.289zm7.13 0h-5.939v-14h5.939zm3.367 0h-2.042v-14h2.118zm3.367 0h-2.383v-14h2.383zm6.923 0h-5.675v-14h5.675zm3.461 0h-1.702v-14h1.702zm2.705 0h-1.665v-14h1.665zm102.799 -59.32h5.428v5.32h-5.334zm0 5.81h5.428v1.89h-5.334zm-6.79 -5.81h5.314v5.32h-5.314zm0 5.81h5.314v1.89h-5.314zm-6.81 -5.81h5.315v5.32h-5.201zm0 5.81h5.315v1.89h-5.201zm-6.79 -5.81h5.315v5.32h-5.315zm0 5.81h5.315v1.89h-5.315zm-6.809 -5.81h5.315v5.32h-5.315zm0 5.81h5.315v1.89h-5.315zm-6.809 -5.81h5.391v5.32h-5.334zm0 5.81h5.391v1.89h-5.334zm-6.79 -5.81h5.315v5.32h-5.315zm-6.374 5.81h3.915v1.89h-3.915zm-3.953 0h3.045v1.89h-3.045zm-4.162 0h2.8v1.89h-2.8zm-3.65 0h2.724v1.89h-2.667zm-8.474 0h2.516v1.89h-2.516zm-3.631 0h1.891v1.89h-1.891zm-24.059 53.51h-6.109v-14h6.109zm3.461 0h-1.759v-14h1.759zm3.424 0h-2.384v-14h2.384zm7.717 0h-6.526v-14h6.526zm3.347 0h-1.494v-14h1.494zm3.632 0h-2.326v-14h2.326zm2.743 0h-1.892v-14h1.892zm4.009 -38.94h-2.326v-5.67h2.364zm3.897 0h-2.724v-5.67h2.724zm2.25 -12.66h-2.723v-1.89h2.723zm11.198 54.44h-4.464v-6.21h4.464zm0.34 -8.86h-4.804v-12.96h4.804zm-0.34 -17.48v3.2h-4.464v-3.2zm-4.464 -1.53v-5.87h4.464v5.92zm11.84 -13.95h-18.176v-5.67h18.176zm1.249 -14.57h5.315v1.9h-5.315zm11.462 56.48h-4.464v-6.19h4.464zm0.359 -8.83h-4.823v-12.96h4.823zm-0.359 -17.51v3.22h-4.464v-3.22zm-4.464 -1.53v-5.84h4.464v5.8zm9.306 -14.04h-15.472v-5.67h15.453zm12.256 41.82h-4.445v-6.21h4.445zm0.36 -8.86h-4.805v-12.96h4.805zm-0.36 -17.48v3.2h-4.445v-3.2zm-4.445 -1.53v-5.87h4.445v5.92zm10.933 -13.95h-17.023v-5.67h17.023zm16.853 0h-15.699v-5.67h15.699zm1.021 -12.65h-5.315v-1.9h5.315zm0 -2.41h-5.315v-5.31h5.315zm21.884 -5.31h5.466v5.31h-5.334zm0 5.8h5.466v1.9h-5.334zm-6.791 -5.8h5.315v5.31h-5.315zm0 5.8h5.315v1.9h-5.315zm-6.809 -5.8h5.315v5.31h-5.315zm0 5.8h5.315v1.9h-5.315zm-6.809 -5.8h5.334v5.31h-5.334zm0 5.8h5.334v1.9h-5.334zm14.432 14.57h-15.132v-5.67h15.132zm18.101 0h-16.115v-5.67h16.077zm0 -12.65h-5.315v-1.9h5.315zm0 -2.41h-5.315v-5.31h5.315zm35.161 -92.71h3.916v8.67h-3.916zm-0.643 10.5h3.67v2.2h-3.67zm-3.272 -10.5h2.497v8.67h-2.497zm-0.283 10.5h2.78v2.2h-2.78zm-4.332 -10.5h2.837v8.67h-2.837zm0 10.5h3.442v2.2h-3.442zm-4.918 -10.5h3.613v8.67h-3.613zm-11.348 0h1.891v8.67h-1.891zm1.229 29.16c0 3.78 -1.418 6.87 -3.158 6.87 -1.741 0 -3.178 -3.07 -3.178 -6.87s1.418 -6.89 3.178 -6.89c1.759 0 3.177 3.01 3.177 6.89zm-1.891 26.13v26.75h-2.573v-26.75zm-6.128 -44.79h5.258v2.2h-5.258zm0 44.79h2.572v26.75h-2.572zm0 34.28h2.326v3.28h-2.326zm4.388 31.07h-2.062v-2.86h2.062zm1.891 -5.05h-1.891v-10.64h1.891zm0 -13.45h-5.163v-3.22h5.163zm0 -4.77h-5.163v-3.2h5.163zm3.216 -15.31h-2.573v-26.77h2.573zm1.456 -69.36h-4.161v-2.2h4.256zm1.078 -4.03h-2.667v-8.67h2.667zm5.088 1.89h4.199v2.2h-4.199zm6.034 71.48h-5.164v-27.68h5.164zm2.61 18.47h-1.892v-4.77h1.892zm-0.851 -18.47v-27.68h6.317v27.68zm6.922 18.47h-1.891v-4.77h1.891zm-4.407 -64.33a6.989 6.989 0 0 1 -4.928 -11.93 7.03 7.03 0 0 1 3.578 -1.9 6.96 6.96 0 0 1 7.163 2.98 7 7 0 0 1 1.167 3.89 7.019 7.019 0 0 1 -2.038 4.95 6.9 6.9 0 0 1 -2.266 1.51c-0.848 0.36 -1.758 0.54 -2.676 0.54zm5.372 18.14h5.05v27.72h-5.05zm6.28 46.17h-1.551v-4.77h1.551zm2.496 -87.83h-4.52v-2.19h4.501zm7.188 87.83h-1.892v-4.77h1.892zm9.57 0h-1.551v-4.77h1.551zm6.185 0.98h-2.194v-7.34h2.194zm5.183 5.43h-3.235v-22.19h3.235zm6.714 -4.27h-4.52v-17.96h4.52zm8.001 -3.11h-5.031v-14.85h4.955zm7.566 -1.41h-4.256v-13.44h4.256zm16.304 6.2h-10.592v-9.02h10.592zm0 -10.18h-10.592v-9.46h10.592zm19.879 10.07h-10.592v-9.07h10.592zm0 -10.2h-10.592V1118h10.592zm19.879 10.31h-10.592v-9.02h10.592zm0 -10.18h-10.592v-9.46h10.592zm23.435 11.13h-1.306v-9.97h1.306zm0 -18.81h-1.306v-9.21h1.306zm0 -16.9h-1.306v-8.7h1.306zm0.907 -18.27h-1.891v-11.62h1.891zm2.743 54.01h-2.44v-10h2.44zm0 -18.8h-2.44v-9.22h2.44zm0 -16.9h-2.44v-8.7h2.44zm0 -18.27h-1.74v-11.62h1.74zm4.123 -3.79h-2.232v-7h2.403zm5.126 0h-3.386v-7.89h3.462zm0.927 -7.89h3.461v7.89h-3.461zm13.732 19.7v10.2h-10.195v-10.2zm-9.457 -11.81v-7.89h3.593v7.89zm9.457 51.67v10.18h-10.195v-10.12zm-0.171 49.2h-10.194v-10.2h10.194zm0.284 -19.51h-10.195v-10.2h10.195zm0 -39.62h-10.195v-10.2h10.195zm-11.481 -53.77 16.096 -7.25 -3.083 7.3zm17.023 -5.68 4.842 5.83h-7.66zm7.698 18.03h-8.89v-9.02h9.004zm0.568 11.49v10.2h-10.195v-10.2zm0 39.86v10.18h-10.195v-10.12zm-0.171 49.2h-10.194v-10.2h10.194zm0.284 -19.51h-10.138v-10.2h10.195zm0 -39.62h-10.138v-10.2h10.195zm14.28 59.13h-10.195v-10.2h10.195zm0.171 -89.08v10.2H909.69v-10.18zm-9.609 -11.54v-9.03h9.022v9.03zm9.703 81.11h-10.195v-10.2h10.195zm-10.289 -19.53v-10.1h10.195v10.18zm10.289 -20.09h-10.195v-10.2h10.195zm0.208 -59.62v5.98h-10.838l10.914 -14.68c-0.17 3.78 0 7.26 0 8.74zm0.152 -10.03 -12.049 15.97h-4.577l-5.958 -7.09 0.548 -1.16 22.281 -10.02c-0.132 0.77 -0.132 1.57 -0.132 2.38zm13.239 128.78h-10.194v-10.2h10.308zm0.171 -89.08v10.2h-10.082v-10.18zm-9.892 -11.81v-8.76h9.589v8.76zm10.005 81.36h-10.195v-10.2h10.195zm-10.308 -19.53v-10.08h10.195v10.18zm10.308 -20.09h-10.195v-10.2h10.195zm14.394 59.13h-10.195v-10.2h10.195zm0.17 -89.08v10.2h-10.195v-10.16zm-9.93 -11.81v-8.76h9.684v8.76zm10.044 81.36h-10.195v-10.2h10.195zm-10.309 -19.53v-10.06h10.195v10.18zm10.309 -20.09h-10.195v-10.2h10.195zm1.059 -53.54h-27.256v-5.26h23.265v-23.94l4.104 -0.56zm70.531 -126.579H1015v-7.001h5.13zm-12.56 -5.922h4.22v5.922h-4.22zm-21.996 7.568h2.667v5.203h-2.667zm-10.838 4.787 4.861 -2.782v5.904l-4.861 2.8zm-22.13 123.286h9.268v8.68h-9.268zm-0.87 20.51h10.195v10.2h-10.195zm0 39.86h10.195v10.18h-10.195zm10.025 49.2h-10.195v-10.2h10.195zm0.302 -19.44H951.85v-10.19h10.213zm0 -39.61H951.85v-10.2h10.213zm8.152 59.12h-7.281v-11.16l7.281 -0.21zm0 -20.15 -7.281 0.38V1151l7.281 -0.61zm0 -21.63 -7.281 0.8v-11.16l7.281 -1.01zm0 -19.52 -7.281 1.21v-11.16l7.281 -1.42zm0 -20.4 -7.281 1.59v-11.16l7.281 -1.89zm0 -21.89 -7.281 2.05v-11.17l7.281 -2.25zm0 -20.64 -7.281 2.44v-11.16l7.281 -2.65zm0 -22.5 -7.281 2.86v-11.16l7.281 -3.07zm0 -20.94 -7.281 3.27v-11.16l7.281 -3.5zm0 -21.872 -7.281 3.651v-11.087l7.281 -3.878zm0 -32.902 4.162 -2.403v12.847l-4.162 2.365zm9.458 222.404h-7.736v-11.35l7.736 -0.23zm0 -20.64 -7.736 0.4v-11.35l7.736 -0.63zm0 -22.15 -7.736 0.83v-11.35l7.736 -1.08zm0 -20.06 -7.736 1.27v-11.35l7.736 -1.52zm0 -20.91 -7.736 1.69v-11.36l7.736 -1.89zm0 -22.47 -7.736 2.15v-11.35l7.736 -2.4zm0 -21.16 -7.736 2.58v-11.36l7.736 -2.8zm0 -23.06 -7.736 3.05v-11.36l7.736 -3.25zm0 -21.51 -7.736 3.5v-11.35l7.736 -3.789zm0 -22.367 -7.736 3.898v-11.352l7.736 -4.125zm1.702 -21.645 -6.072 3.463v-12.809l6.091 -3.5zm2.988 0h-2.213v-13.244l2.213 -1.267zm0 -16.29 -4.066 2.327v-5.922l4.123 -2.346zm4.824 16.29h-3.538v-12.449h3.538zm0 -21.531h8.416v5.203h-8.416zm14.583 21.531h-10.006v-9.819h10.006zm2.5 -16.328h-7.57v-5.203h7.57zm8.53 0h-7.76v-5.203h7.76zm1.09 -5.203h7.76v5.203h-7.76z" fill="#1D1D1B"></path></g><defs><clipPath id="clip0_301_350"><path width="1022" height="1280" fill="white" d="M0 0H1022V1280H0V0z"></path></clipPath></defs></svg>