<svg width="1280" height="804" viewBox="0 0 1280 804" fill="none" xmlns="http://www.w3.org/2000/svg">
<path d="M1097.87 202.2C1096.69 202.2 1095.73 201.22 1095.73 200.012C1095.73 198.804 1096.69 197.825 1097.87 197.825C1099.05 197.825 1100.01 198.804 1100.01 200.012C1100.01 201.22 1099.05 202.2 1097.87 202.2Z" fill="#37021A"/>
<path d="M977.934 127.805C976.75 127.805 975.79 126.826 975.79 125.618C975.79 124.41 976.75 123.431 977.934 123.431C979.118 123.431 980.077 124.41 980.077 125.618C980.077 126.826 979.118 127.805 977.934 127.805Z" fill="#37021A"/>
<path d="M903.968 81.7291C902.784 81.7291 901.824 80.7498 901.824 79.5418C901.824 78.3338 902.784 77.3545 903.968 77.3545C905.152 77.3545 906.112 78.3338 906.112 79.5418C906.112 80.7498 905.152 81.7291 903.968 81.7291Z" fill="#37021A"/>
<path d="M1089.29 14.1562C1089.29 15.3644 1090.25 16.3434 1091.44 16.3434C1092.62 16.3434 1093.58 15.3644 1093.58 14.1562C1093.58 12.9479 1092.62 11.9677 1091.44 11.9677C1090.25 11.9677 1089.29 12.9467 1089.29 14.1562Z" fill="#37021A"/>
<path d="M998.823 68.6013C998.823 69.8096 999.783 70.7886 1000.97 70.7886C1002.15 70.7886 1003.11 69.8096 1003.11 68.6013C1003.11 67.3931 1002.15 66.4141 1000.97 66.4141C999.783 66.4141 998.823 67.3931 998.823 68.6013Z" fill="#37021A"/>
<path d="M920.546 27.2823C919.362 27.2823 918.402 26.303 918.402 25.095C918.402 23.887 919.362 22.9077 920.546 22.9077C921.73 22.9077 922.69 23.887 922.69 25.095C922.69 26.303 921.73 27.2823 920.546 27.2823Z" fill="#37021A"/>
<path d="M1016.6 66.4145C1016.6 67.6227 1017.56 68.6017 1018.74 68.6017C1019.93 68.6017 1020.88 67.6227 1020.88 66.4145C1020.88 65.2062 1019.93 64.226 1018.74 64.226C1017.56 64.226 1016.6 65.2062 1016.6 66.4145Z" fill="#37021A"/>
<path d="M998.823 48.3906C997.639 48.3906 996.679 47.4113 996.679 46.2033C996.679 44.9953 997.639 44.016 998.823 44.016C1000.01 44.016 1000.97 44.9953 1000.97 46.2033C1000.97 47.4113 1000.01 48.3906 998.823 48.3906Z" fill="#37021A"/>
<path d="M1062.97 252.771C1061.79 252.771 1060.83 251.792 1060.83 250.584C1060.83 249.376 1061.79 248.396 1062.97 248.396C1064.16 248.396 1065.12 249.376 1065.12 250.584C1065.12 251.792 1064.16 252.771 1062.97 252.771Z" fill="#37021A"/>
<path d="M1016.6 285.604C1016.6 286.812 1017.56 287.792 1018.74 287.792C1019.93 287.792 1020.88 286.812 1020.88 285.604C1020.88 284.396 1019.93 283.416 1018.74 283.416C1017.56 283.417 1016.6 284.396 1016.6 285.604Z" fill="#37021A"/>
<path d="M1003.11 184.829C1003.11 186.037 1004.07 187.018 1005.26 187.018C1006.44 187.018 1007.4 186.039 1007.4 184.829C1007.4 183.62 1006.44 182.642 1005.26 182.642C1004.07 182.642 1003.11 183.621 1003.11 184.829Z" fill="#37021A"/>
<path d="M1062.97 339.018C1061.79 339.018 1060.83 338.039 1060.83 336.831C1060.83 335.623 1061.79 334.644 1062.97 334.644C1064.16 334.644 1065.12 335.623 1065.12 336.831C1065.12 338.039 1064.16 339.018 1062.97 339.018Z" fill="#37021A"/>
<path d="M1053 322.287C1053 323.495 1053.96 324.474 1055.14 324.474C1056.32 324.474 1057.28 323.495 1057.28 322.287C1057.28 321.079 1056.32 320.099 1055.14 320.099C1053.96 320.099 1053 321.079 1053 322.287Z" fill="#37021A"/>
<path d="M1093.58 101.647C1092.4 101.647 1091.44 100.668 1091.44 99.46C1091.44 98.252 1092.4 97.2727 1093.58 97.2727C1094.77 97.2727 1095.72 98.252 1095.72 99.46C1095.72 100.668 1094.77 101.647 1093.58 101.647Z" fill="#37021A"/>
<path d="M1076.52 20.7193C1076.52 21.9275 1077.48 22.9078 1078.66 22.9078C1079.85 22.9078 1080.81 21.9287 1080.81 20.7193C1080.81 19.5098 1079.85 18.532 1078.66 18.532C1077.48 18.532 1076.52 19.5111 1076.52 20.7193Z" fill="#37021A"/>
<path d="M985.602 68.6013C985.602 69.8096 986.562 70.7886 987.746 70.7886C988.93 70.7886 989.89 69.8096 989.89 68.6013C989.89 67.3931 988.93 66.4141 987.746 66.4141C986.562 66.4141 985.602 67.3931 985.602 68.6013Z" fill="#6D0939"/>
<path d="M930.111 83.9163C928.927 83.9163 927.967 82.937 927.967 81.729C927.967 80.521 928.927 79.5417 930.111 79.5417C931.295 79.5417 932.255 80.521 932.255 81.729C932.255 82.937 931.295 83.9163 930.111 83.9163Z" fill="#6D0939"/>
<path d="M882.584 18.5306C881.4 18.5306 880.44 17.5513 880.44 16.3433C880.44 15.1353 881.4 14.156 882.584 14.156C883.768 14.156 884.727 15.1353 884.727 16.3433C884.727 17.5513 883.768 18.5306 882.584 18.5306Z" fill="#6D0939"/>
<path d="M975.788 18.5319C975.788 19.7401 976.748 20.7192 977.932 20.7192C979.117 20.7192 980.076 19.7401 980.076 18.5319C980.076 17.3237 979.117 16.3434 977.932 16.3434C976.748 16.3434 975.788 17.3225 975.788 18.5319Z" fill="#6D0939"/>
<path d="M1078.66 171.275C1077.48 171.275 1076.52 170.296 1076.52 169.088C1076.52 167.88 1077.48 166.901 1078.66 166.901C1079.85 166.901 1080.81 167.88 1080.81 169.088C1080.81 170.296 1079.85 171.275 1078.66 171.275Z" fill="#6D0939"/>
<path d="M1042.26 300.43C1041.08 300.43 1040.12 299.451 1040.12 298.243C1040.12 297.035 1041.08 296.056 1042.26 296.056C1043.45 296.056 1044.41 297.035 1044.41 298.243C1044.41 299.451 1043.45 300.43 1042.26 300.43Z" fill="#372631"/>
<path d="M1033.68 156.612C1032.5 156.612 1031.54 155.633 1031.54 154.425C1031.54 153.217 1032.5 152.238 1033.68 152.238C1034.87 152.238 1035.83 153.217 1035.83 154.425C1035.83 155.633 1034.87 156.612 1033.68 156.612Z" fill="#372631"/>
<path d="M882.583 49.3719C882.583 50.5801 883.543 51.5591 884.727 51.5591C885.912 51.5591 886.872 50.5801 886.872 49.3719C886.872 48.1636 885.913 47.1846 884.727 47.1846C883.542 47.1846 882.583 48.1624 882.583 49.3719Z" fill="#372631"/>
<path d="M694.061 66.4142C692.876 66.4142 691.916 65.4344 691.916 64.2257C691.916 63.0171 692.876 62.0372 694.061 62.0372C695.246 62.0372 696.206 63.0171 696.206 64.2257C696.206 65.4344 695.246 66.4142 694.061 66.4142Z" fill="#372631"/>
<path d="M612.078 94.2132C610.894 94.2132 609.935 93.2339 609.935 92.0259C609.935 90.8179 610.894 89.8386 612.078 89.8386C613.262 89.8386 614.222 90.8179 614.222 92.0259C614.222 93.2339 613.262 94.2132 612.078 94.2132Z" fill="#372631"/>
<path d="M612.078 78.2584C610.894 78.2584 609.935 77.2791 609.935 76.0711C609.935 74.8631 610.894 73.8838 612.078 73.8838C613.262 73.8838 614.222 74.8631 614.222 76.0711C614.222 77.2791 613.262 78.2584 612.078 78.2584Z" fill="#372631"/>
<path d="M761.701 14.1562C761.701 15.3644 762.66 16.3434 763.845 16.3434C765.029 16.3434 765.99 15.3644 765.99 14.1562C765.99 12.9479 765.03 11.9677 763.845 11.9677C762.66 11.9677 761.701 12.9467 761.701 14.1562Z" fill="#372631"/>
<path d="M1018.74 18.5319C1018.74 19.7401 1019.7 20.7192 1020.88 20.7192C1022.07 20.7192 1023.03 19.7401 1023.03 18.5319C1023.03 17.3237 1022.07 16.3434 1020.88 16.3434C1019.7 16.3434 1018.74 17.3225 1018.74 18.5319Z" fill="#372631"/>
<path d="M627.022 219.318C625.838 219.318 624.878 218.339 624.878 217.131C624.878 215.923 625.838 214.944 627.022 214.944C628.206 214.944 629.166 215.923 629.166 217.131C629.166 218.339 628.206 219.318 627.022 219.318Z" fill="#372631"/>
<path d="M547.894 341.337C547.894 342.545 548.854 343.525 550.038 343.525C551.222 343.525 552.182 342.546 552.182 341.337C552.182 340.128 551.222 339.149 550.038 339.149C548.854 339.148 547.894 340.128 547.894 341.337Z" fill="#372631"/>
<path d="M1078.66 263.337C1078.66 264.546 1079.62 265.526 1080.81 265.526C1081.99 265.526 1082.95 264.547 1082.95 263.337C1082.95 262.129 1081.99 261.15 1080.81 261.15C1079.62 261.15 1078.66 262.129 1078.66 263.337Z" fill="#6D0939"/>
<path d="M1046.55 242.615C1045.37 242.615 1044.41 241.636 1044.41 240.428C1044.41 239.22 1045.37 238.24 1046.55 238.24C1047.73 238.24 1048.69 239.22 1048.69 240.428C1048.69 241.636 1047.73 242.615 1046.55 242.615Z" fill="#6D0939"/>
<path d="M1040.12 41.8273C1038.93 41.8273 1037.97 40.848 1037.97 39.64C1037.97 38.432 1038.93 37.4528 1040.12 37.4528C1041.3 37.4528 1042.26 38.432 1042.26 39.64C1042.26 40.848 1041.3 41.8273 1040.12 41.8273Z" fill="#6D0939"/>
<path d="M1082.95 64.2259C1081.77 64.2259 1080.81 63.2466 1080.81 62.0386C1080.81 60.8306 1081.77 59.8513 1082.95 59.8513C1084.14 59.8513 1085.1 60.8306 1085.1 62.0386C1085.1 63.2466 1084.14 64.2259 1082.95 64.2259Z" fill="#6D0939"/>
<path d="M989.891 143.258C988.707 143.258 987.747 142.279 987.747 141.071C987.747 139.863 988.707 138.884 989.891 138.884C991.075 138.884 992.035 139.863 992.035 141.071C992.035 142.279 991.075 143.258 989.891 143.258Z" fill="#6D0939"/>
<path d="M1044.41 123.429C1043.22 123.429 1042.26 122.45 1042.26 121.242C1042.26 120.034 1043.22 119.055 1044.41 119.055C1045.59 119.055 1046.55 120.034 1046.55 121.242C1046.55 122.45 1045.59 123.429 1044.41 123.429Z" fill="#6D0939"/>
<path d="M1105.35 125.617C1104.17 125.617 1103.21 124.637 1103.21 123.429C1103.21 122.221 1104.17 121.242 1105.35 121.242C1106.54 121.242 1107.49 122.221 1107.49 123.429C1107.49 124.637 1106.54 125.617 1105.35 125.617Z" fill="#6D0939"/>
<path d="M1033.68 330.334C1033.68 331.542 1034.64 332.521 1035.83 332.521C1037.01 332.521 1037.97 331.542 1037.97 330.334C1037.97 329.126 1037.01 328.147 1035.83 328.147C1034.64 328.147 1033.68 329.126 1033.68 330.334Z" fill="#6D0939"/>
<path d="M550.038 200.012C550.038 201.221 549.078 202.201 547.894 202.201C546.71 202.201 545.749 201.222 545.749 200.012C545.749 198.803 546.709 197.825 547.894 197.825C549.078 197.825 550.038 198.804 550.038 200.012Z" fill="#37021A"/>
<path d="M667.83 127.806C666.646 127.806 665.685 126.827 665.685 125.618C665.685 124.409 666.646 123.429 667.83 123.429C669.015 123.429 669.975 124.409 669.975 125.618C669.975 126.827 669.015 127.806 667.83 127.806Z" fill="#37021A"/>
<path d="M741.796 81.73C740.611 81.73 739.651 80.7502 739.651 79.5415C739.651 78.3329 740.611 77.353 741.796 77.353C742.981 77.353 743.941 78.3329 743.941 79.5415C743.941 80.7502 742.981 81.73 741.796 81.73Z" fill="#37021A"/>
<path d="M783.419 53.748C783.419 54.9562 782.459 55.9352 781.275 55.9352C780.091 55.9352 779.131 54.9562 779.131 53.748C779.131 52.5397 780.091 51.5594 781.275 51.5594C782.459 51.5594 783.419 52.5385 783.419 53.748Z" fill="#37021A"/>
<path d="M852.403 31.658C851.219 31.658 850.259 30.6787 850.259 29.4707C850.259 28.2627 851.219 27.2834 852.403 27.2834C853.587 27.2834 854.547 28.2627 854.547 29.4707C854.547 30.6787 853.587 31.658 852.403 31.658Z" fill="#37021A"/>
<path d="M556.472 14.1562C556.472 15.3644 555.512 16.3434 554.327 16.3434C553.142 16.3434 552.183 15.3644 552.183 14.1562C552.183 12.9479 553.142 11.9677 554.327 11.9677C555.511 11.9677 556.472 12.9467 556.472 14.1562Z" fill="#37021A"/>
<path d="M646.94 68.6013C646.94 69.8096 645.98 70.7886 644.795 70.7886C643.61 70.7886 642.651 69.8096 642.651 68.6013C642.651 67.3931 643.61 66.4141 644.795 66.4141C645.98 66.4141 646.94 67.3931 646.94 68.6013Z" fill="#37021A"/>
<path d="M715.652 39.639C714.468 39.639 713.508 38.6597 713.508 37.4517C713.508 36.2437 714.468 35.2644 715.652 35.2644C716.836 35.2644 717.796 36.2437 717.796 37.4517C717.796 38.6597 716.836 39.639 715.652 39.639Z" fill="#37021A"/>
<path d="M781.275 20.7193C781.275 21.9275 780.316 22.9078 779.131 22.9078C777.947 22.9078 776.987 21.9287 776.987 20.7193C776.987 19.5098 777.947 18.532 779.131 18.532C780.316 18.532 781.275 19.5111 781.275 20.7193Z" fill="#37021A"/>
<path d="M844.655 66.4129C843.471 66.4129 842.511 65.4336 842.511 64.2256C842.511 63.0176 843.471 62.0383 844.655 62.0383C845.839 62.0383 846.799 63.0176 846.799 64.2256C846.799 65.4336 845.839 66.4129 844.655 66.4129Z" fill="#37021A"/>
<path d="M725.217 27.2823C724.033 27.2823 723.073 26.303 723.073 25.095C723.073 23.887 724.033 22.9077 725.217 22.9077C726.401 22.9077 727.361 23.887 727.361 25.095C727.361 26.303 726.401 27.2823 725.217 27.2823Z" fill="#37021A"/>
<path d="M798.968 41.8273C797.784 41.8273 796.824 40.848 796.824 39.64C796.824 38.432 797.784 37.4528 798.968 37.4528C800.152 37.4528 801.111 38.432 801.111 39.64C801.111 40.848 800.152 41.8273 798.968 41.8273Z" fill="#37021A"/>
<path d="M627.022 68.6019C625.838 68.6019 624.878 67.6226 624.878 66.4146C624.878 65.2066 625.838 64.2273 627.022 64.2273C628.206 64.2273 629.166 65.2066 629.166 66.4146C629.166 67.6226 628.206 68.6019 627.022 68.6019Z" fill="#37021A"/>
<path d="M646.94 48.3906C645.756 48.3906 644.796 47.4113 644.796 46.2033C644.796 44.9953 645.756 44.016 646.94 44.016C648.124 44.016 649.083 44.9953 649.083 46.2033C649.083 47.4113 648.124 48.3906 646.94 48.3906Z" fill="#37021A"/>
<path d="M582.791 252.771C581.607 252.771 580.647 251.792 580.647 250.584C580.647 249.376 581.607 248.396 582.791 248.396C583.975 248.396 584.935 249.376 584.935 250.584C584.935 251.792 583.975 252.771 582.791 252.771Z" fill="#37021A"/>
<path d="M627.022 287.792C625.838 287.792 624.878 286.813 624.878 285.605C624.878 284.397 625.838 283.417 627.022 283.417C628.206 283.417 629.166 284.397 629.166 285.605C629.166 286.813 628.206 287.792 627.022 287.792Z" fill="#37021A"/>
<path d="M642.651 184.829C642.651 186.037 641.691 187.018 640.507 187.018C639.323 187.018 638.363 186.039 638.363 184.829C638.363 183.62 639.323 182.642 640.507 182.642C641.691 182.642 642.651 183.621 642.651 184.829Z" fill="#37021A"/>
<path d="M582.791 339.018C581.607 339.018 580.647 338.039 580.647 336.831C580.647 335.623 581.607 334.644 582.791 334.644C583.975 334.644 584.935 335.623 584.935 336.831C584.935 338.039 583.975 339.018 582.791 339.018Z" fill="#37021A"/>
<path d="M590.621 324.475C589.437 324.475 588.477 323.495 588.477 322.287C588.477 321.079 589.437 320.1 590.621 320.1C591.805 320.1 592.765 321.079 592.765 322.287C592.765 323.495 591.805 324.475 590.621 324.475Z" fill="#37021A"/>
<path d="M554.327 99.46C554.327 100.668 553.367 101.647 552.183 101.647C550.999 101.647 550.039 100.668 550.039 99.46C550.039 98.2518 550.999 97.2727 552.183 97.2727C553.367 97.2715 554.327 98.2518 554.327 99.46Z" fill="#37021A"/>
<path d="M569.244 20.7193C569.244 21.9275 568.284 22.9078 567.1 22.9078C565.915 22.9078 564.956 21.9287 564.956 20.7193C564.956 19.5098 565.915 18.532 567.1 18.532C568.284 18.532 569.244 19.5111 569.244 20.7193Z" fill="#37021A"/>
<path d="M660.161 68.6013C660.161 69.8096 659.201 70.7886 658.017 70.7886C656.832 70.7886 655.873 69.8096 655.873 68.6013C655.873 67.3931 656.832 66.4141 658.017 66.4141C659.201 66.4141 660.161 67.3931 660.161 68.6013Z" fill="#6D0939"/>
<path d="M699.732 2.18728C699.732 3.39549 698.772 4.37456 697.588 4.37456C696.404 4.37456 695.444 3.39549 695.444 2.18728C695.444 0.979069 696.404 0 697.588 0C698.772 0 699.732 0.979069 699.732 2.18728Z" fill="#6D0939"/>
<path d="M715.652 83.9163C714.468 83.9163 713.508 82.937 713.508 81.729C713.508 80.521 714.468 79.5417 715.652 79.5417C716.836 79.5417 717.796 80.521 717.796 81.729C717.796 82.937 716.836 83.9163 715.652 83.9163Z" fill="#6D0939"/>
<path d="M729.506 68.6019C728.322 68.6019 727.362 67.6226 727.362 66.4146C727.362 65.2066 728.322 64.2273 729.506 64.2273C730.69 64.2273 731.65 65.2066 731.65 66.4146C731.65 67.6226 730.69 68.6019 729.506 68.6019Z" fill="#6D0939"/>
<path d="M834.321 55.9351C833.137 55.9351 832.177 54.9558 832.177 53.7478C832.177 52.5398 833.137 51.5605 834.321 51.5605C835.505 51.5605 836.465 52.5398 836.465 53.7478C836.465 54.9558 835.505 55.9351 834.321 55.9351Z" fill="#6D0939"/>
<path d="M669.974 18.5319C669.974 19.7401 669.014 20.7192 667.83 20.7192C666.646 20.7192 665.685 19.7401 665.685 18.5319C665.685 17.3237 666.645 16.3434 667.83 16.3434C669.014 16.3434 669.974 17.3225 669.974 18.5319Z" fill="#6D0939"/>
<path d="M569.244 169.088C569.244 170.296 568.284 171.275 567.1 171.275C565.915 171.275 564.956 170.296 564.956 169.088C564.956 167.88 565.915 166.899 567.1 166.899C568.284 166.899 569.244 167.88 569.244 169.088Z" fill="#6D0939"/>
<path d="M521.992 248.395C521.992 249.603 521.033 250.584 519.849 250.584C518.664 250.584 517.704 249.604 517.704 248.395C517.704 247.186 518.663 246.208 519.849 246.208C521.033 246.208 521.992 247.187 521.992 248.395Z" fill="#6D0939"/>
<path d="M567.098 263.337C567.098 264.546 566.139 265.526 564.955 265.526C563.77 265.526 562.811 264.547 562.811 263.337C562.811 262.129 563.77 261.15 564.955 261.15C566.139 261.15 567.098 262.129 567.098 263.337Z" fill="#6D0939"/>
<path d="M599.212 242.615C598.028 242.615 597.068 241.636 597.068 240.428C597.068 239.22 598.028 238.24 599.212 238.24C600.396 238.24 601.356 239.22 601.356 240.428C601.356 241.636 600.396 242.615 599.212 242.615Z" fill="#6D0939"/>
<path d="M607.789 39.64C607.789 40.8483 606.83 41.8273 605.646 41.8273C604.461 41.8273 603.502 40.8483 603.502 39.64C603.502 38.4318 604.461 37.4515 605.646 37.4515C606.83 37.4515 607.789 38.4318 607.789 39.64Z" fill="#6D0939"/>
<path d="M564.955 62.0386C564.955 63.2468 563.995 64.2259 562.811 64.2259C561.627 64.2259 560.667 63.2468 560.667 62.0386C560.667 60.8304 561.627 59.8513 562.811 59.8513C563.995 59.8501 564.955 60.8304 564.955 62.0386Z" fill="#6D0939"/>
<path d="M658.015 141.071C658.015 142.279 657.056 143.258 655.872 143.258C654.687 143.258 653.728 142.279 653.728 141.071C653.728 139.863 654.687 138.884 655.872 138.884C657.056 138.884 658.015 139.863 658.015 141.071Z" fill="#6D0939"/>
<path d="M601.357 123.429C600.173 123.429 599.213 122.45 599.213 121.242C599.213 120.034 600.173 119.055 601.357 119.055C602.541 119.055 603.501 120.034 603.501 121.242C603.501 122.45 602.541 123.429 601.357 123.429Z" fill="#6D0939"/>
<path d="M540.412 126.688C539.227 126.688 538.268 125.708 538.268 124.5C538.268 123.292 539.227 122.313 540.412 122.313C541.596 122.313 542.555 123.292 542.555 124.5C542.555 125.708 541.596 126.688 540.412 126.688Z" fill="#6D0939"/>
<path d="M612.078 330.334C612.078 331.542 611.119 332.521 609.935 332.521C608.75 332.521 607.791 331.542 607.791 330.334C607.791 329.126 608.75 328.147 609.935 328.147C611.119 328.147 612.078 329.126 612.078 330.334Z" fill="#6D0939"/>
<mask id="mask0_79_793" style="mask-type:luminance" maskUnits="userSpaceOnUse" x="0" y="37" width="1479" height="515">
<path d="M1479 37.608H0V551.608H1479V37.608Z" fill="white"/>
</mask>
<g mask="url(#mask0_79_793)">
<path d="M839 479.817C1592.54 479.817 2203.41 412.179 2203.41 328.743C2203.41 245.307 1592.54 177.669 839 177.669C85.4594 177.669 -525.406 245.307 -525.406 328.743C-525.406 412.179 85.4594 479.817 839 479.817Z" fill="url(#paint0_radial_79_793)"/>
</g>
<path d="M825.5 496.701C947.831 496.701 1047 394.58 1047 268.607C1047 142.635 947.831 40.5139 825.5 40.5139C703.169 40.5139 604 142.635 604 268.607C604 394.58 703.169 496.701 825.5 496.701Z" fill="url(#paint1_radial_79_793)" stroke="url(#paint2_radial_79_793)" stroke-miterlimit="10"/>
<path d="M825.266 425.65C909.774 425.65 978.281 355.262 978.281 268.435C978.281 181.607 909.774 111.22 825.266 111.22C740.759 111.22 672.251 181.607 672.251 268.435C672.251 355.262 740.759 425.65 825.266 425.65Z" fill="url(#paint3_linear_79_793)"/>
<path d="M825.266 421.417C907.499 421.417 974.162 352.925 974.162 268.435C974.162 183.944 907.499 115.452 825.266 115.452C743.033 115.452 676.37 183.944 676.37 268.435C676.37 352.925 743.033 421.417 825.266 421.417Z" fill="url(#paint4_linear_79_793)"/>
<path d="M1280 336.608H0V551.608H1280V336.608Z" fill="url(#paint5_linear_79_793)"/>
<path d="M107.634 338.608L-2052.18 803.259" stroke="#84E9FE" stroke-miterlimit="10"/>
<path d="M168.465 338.608L-1737.25 803.259" stroke="#84E9FE" stroke-miterlimit="10"/>
<path d="M229.297 338.608L-1422.32 803.259" stroke="#84E9FE" stroke-miterlimit="10"/>
<path d="M290.128 338.608L-1107.4 803.259" stroke="#84E9FE" stroke-miterlimit="10"/>
<path d="M350.96 338.608L-792.47 803.259" stroke="#84E9FE" stroke-miterlimit="10"/>
<path d="M411.791 338.608L-477.543 803.259" stroke="#84E9FE" stroke-miterlimit="10"/>
<path d="M472.624 338.608L-162.616 803.259" stroke="#84E9FE" stroke-miterlimit="10"/>
<path d="M533.454 338.608L152.312 803.259" stroke="#84E9FE" stroke-miterlimit="10"/>
<path d="M594.287 338.608L467.239 803.259" stroke="#84E9FE" stroke-miterlimit="10"/>
<path d="M655.117 338.608L782.166 803.259" stroke="#84E9FE" stroke-miterlimit="10"/>
<path d="M715.95 338.608L1097.09 803.259" stroke="#84E9FE" stroke-miterlimit="10"/>
<path d="M776.781 338.608L1412.02 803.259" stroke="#84E9FE" stroke-miterlimit="10"/>
<path d="M837.613 338.608L1726.94 803.259" stroke="#84E9FE" stroke-miterlimit="10"/>
<path d="M898.446 338.608L2041.87 803.259" stroke="#84E9FE" stroke-miterlimit="10"/>
<path d="M959.277 338.608L2356.8 803.259" stroke="#84E9FE" stroke-miterlimit="10"/>
<path d="M1020.11 338.608L2671.73 803.259" stroke="#84E9FE" stroke-miterlimit="10"/>
<path d="M1080.94 338.608L2986.65 803.259" stroke="#84E9FE" stroke-miterlimit="10"/>
<path d="M1141.77 338.608L3301.58 803.259" stroke="#84E9FE" stroke-miterlimit="10"/>
<path d="M1465.01 338.608H-215.604" stroke="#84E9FE" stroke-miterlimit="10"/>
<path d="M1495.56 342.654H-246.156" stroke="#84E9FE" stroke-miterlimit="10"/>
<path d="M1528.42 347.003H-279.016" stroke="#84E9FE" stroke-miterlimit="10"/>
<path d="M1563.86 351.695H-314.452" stroke="#84E9FE" stroke-miterlimit="10"/>
<path d="M1602.19 356.767H-352.779" stroke="#84E9FE" stroke-miterlimit="10"/>
<path d="M1643.77 362.274H-394.367" stroke="#84E9FE" stroke-miterlimit="10"/>
<path d="M1689.06 368.268H-439.653" stroke="#84E9FE" stroke-miterlimit="10"/>
<path d="M1738.56 374.822H-489.15" stroke="#84E9FE" stroke-miterlimit="10"/>
<path d="M1792.88 382.012H-543.477" stroke="#84E9FE" stroke-miterlimit="10"/>
<path d="M1852.78 389.942H-603.374" stroke="#84E9FE" stroke-miterlimit="10"/>
<path d="M1919.14 398.726H-669.73" stroke="#84E9FE" stroke-miterlimit="10"/>
<path d="M1993.08 408.514H-743.671" stroke="#84E9FE" stroke-miterlimit="10"/>
<path d="M2075.98 419.489H-826.57" stroke="#84E9FE" stroke-miterlimit="10"/>
<path d="M2169.57 431.877H-920.159" stroke="#84E9FE" stroke-miterlimit="10"/>
<path d="M2276.06 445.975H-1026.65" stroke="#84E9FE" stroke-miterlimit="10"/>
<path d="M2398.32 462.16H-1148.91" stroke="#84E9FE" stroke-miterlimit="10"/>
<path d="M2540.13 480.933H-1290.73" stroke="#84E9FE" stroke-miterlimit="10"/>
<path d="M2706.6 502.969H-1457.19" stroke="#84E9FE" stroke-miterlimit="10"/>
<path d="M2904.75 529.2H-1655.34" stroke="#84E9FE" stroke-miterlimit="10"/>
<path d="M3144.58 560.951H-1895.17" stroke="#84E9FE" stroke-miterlimit="10"/>
<path d="M3440.8 600.163H-2191.4" stroke="#84E9FE" stroke-miterlimit="10"/>
<path d="M3815.95 649.827H-2566.54" stroke="#84E9FE" stroke-miterlimit="10"/>
<path d="M4306.41 714.752H-3057" stroke="#84E9FE" stroke-miterlimit="10"/>
<path d="M1280 336.608H0V550.608H1280V336.608Z" fill="url(#paint6_linear_79_793)"/>
<mask id="mask1_79_793" style="mask-type:luminance" maskUnits="userSpaceOnUse" x="106" y="6" width="1196" height="546">
<path d="M1302 6.60803H106V551.608H1302V6.60803Z" fill="white"/>
</mask>
<g mask="url(#mask1_79_793)">
<path d="M473 336.725L486.087 329.334L492.413 318.974L507.028 328.31L515.536 325.437L529.119 315.472C529.119 315.472 544.59 323.265 545.186 323.502C545.782 323.739 558.789 319.943 558.789 319.943L568.177 315.472L581.073 323.83L594.499 319.068L606.938 323.83L611.683 315.605L619.762 311.653L624.892 319.067L629.509 324.19L644.143 327.471L655.414 324.848L661.057 318.975L675.507 328.311L687.494 327.343L700.795 331.271L716.888 336.727H473V336.725Z" fill="#0A0D36"/>
<path d="M895.636 336.726L913.202 326.804L921.693 312.898L941.31 325.428L952.73 321.572L970.962 308.195C970.962 308.195 991.728 318.656 992.528 318.974C993.328 319.293 1010.79 314.198 1010.79 314.198L1023.39 308.196L1040.7 319.416L1058.72 313.023L1075.42 319.416L1081.79 308.377L1092.63 303.072L1099.52 313.024L1105.71 319.9L1125.35 324.306L1140.48 320.784L1148.06 312.9L1167.45 325.43L1183.54 324.131L1201.4 329.403L1223 336.726H895.636Z" fill="#202675"/>
<path d="M608.965 336.726L629.177 325.31L638.947 309.31L661.518 323.727L674.658 319.29L695.636 303.899C695.636 303.899 719.529 315.935 720.45 316.301C721.371 316.667 741.459 310.804 741.459 310.804L755.958 303.899L775.876 316.807L796.611 309.452L815.823 316.807L823.151 304.105L835.629 298L843.552 309.451L850.682 317.362L873.284 322.431L890.691 318.378L899.405 309.308L921.723 323.725L940.237 322.231L960.78 328.297L985.634 336.725H608.965V336.726Z" fill="#202675"/>
</g>
<defs>
<radialGradient id="paint0_radial_79_793" cx="0" cy="0" r="1" gradientUnits="userSpaceOnUse" gradientTransform="translate(839 328.737) scale(1307.57 125.424)">
<stop stop-color="#C05099"/>
<stop offset="0.0039" stop-color="#BF5099" stop-opacity="0.9961"/>
<stop offset="0.6922" stop-color="#5B1B72" stop-opacity="0.3078"/>
<stop offset="1" stop-color="#330663" stop-opacity="0"/>
</radialGradient>
<radialGradient id="paint1_radial_79_793" cx="0" cy="0" r="1" gradientUnits="userSpaceOnUse" gradientTransform="translate(825.5 268.607) scale(221.5 228.093)">
<stop stop-color="#E71F80"/>
<stop offset="0.0039" stop-color="#E71F80" stop-opacity="0.9961"/>
<stop offset="0.6922" stop-color="#A8135B" stop-opacity="0.3078"/>
<stop offset="1" stop-color="#37021A" stop-opacity="0"/>
</radialGradient>
<radialGradient id="paint2_radial_79_793" cx="0" cy="0" r="1" gradientUnits="userSpaceOnUse" gradientTransform="translate(825.5 268.607) scale(221.96 228.568)">
<stop stop-color="#E71F80"/>
<stop offset="0.514" stop-color="#6D0939"/>
<stop offset="1" stop-color="#330663" stop-opacity="0"/>
</radialGradient>
<linearGradient id="paint3_linear_79_793" x1="825.266" y1="106.419" x2="825.266" y2="347.412" gradientUnits="userSpaceOnUse">
<stop stop-color="#FBB03B"/>
<stop offset="1" stop-color="#781F99"/>
</linearGradient>
<linearGradient id="paint4_linear_79_793" x1="825.266" y1="103.043" x2="825.266" y2="261.369" gradientUnits="userSpaceOnUse">
<stop stop-color="#FFFF00"/>
<stop offset="0.2941" stop-color="#E0CD22" stop-opacity="0.7059"/>
<stop offset="1" stop-color="#995773" stop-opacity="0"/>
</linearGradient>
<linearGradient id="paint5_linear_79_793" x1="640" y1="575.266" x2="640" y2="334.816" gradientUnits="userSpaceOnUse">
<stop stop-color="#0A0D36" stop-opacity="0.54"/>
<stop offset="1" stop-color="#0A0D36"/>
</linearGradient>
<linearGradient id="paint6_linear_79_793" x1="640" y1="334.366" x2="640" y2="454.054" gradientUnits="userSpaceOnUse">
<stop stop-color="#E71F80"/>
<stop offset="0.6395" stop-color="#5B1675" stop-opacity="0.3605"/>
<stop offset="1" stop-color="#330663" stop-opacity="0"/>
</linearGradient>
</defs>
</svg>
