<svg width="390" height="146" viewBox="0 0 390 146" fill="none" xmlns="http://www.w3.org/2000/svg">
<g filter="url(#filter0_d_60_3)">
<path fill-rule="evenodd" clip-rule="evenodd" d="M126.568 142.391L127.5 142.753L128.432 142.391L396 38.3728L395.068 38.0105L127.5 142.028L-140.068 38.0105L-141 38.3728L126.568 142.391Z" fill="#F4FF61"/>
<path d="M127.5 142.753L127.319 143.219L127.5 143.289L127.681 143.219L127.5 142.753ZM126.568 142.391L126.749 141.925V141.925L126.568 142.391ZM128.432 142.391L128.251 141.925L128.432 142.391ZM396 38.3728L396.181 38.8389L397.38 38.3728L396.181 37.9068L396 38.3728ZM395.068 38.0105L395.249 37.5445L395.068 37.474L394.887 37.5445L395.068 38.0105ZM127.5 142.028L127.319 142.494L127.5 142.565L127.681 142.494L127.5 142.028ZM-140.068 38.0105L-139.887 37.5445L-140.068 37.474L-140.249 37.5445L-140.068 38.0105ZM-141 38.3728L-141.181 37.9068L-142.38 38.3728L-141.181 38.8389L-141 38.3728ZM127.681 142.287L126.749 141.925L126.387 142.857L127.319 143.219L127.681 142.287ZM128.251 141.925L127.319 142.287L127.681 143.219L128.613 142.857L128.251 141.925ZM128.613 142.857L396.181 38.8389L395.819 37.9068L128.251 141.925L128.613 142.857ZM396.181 37.9068L395.249 37.5445L394.887 38.4765L395.819 38.8389L396.181 37.9068ZM394.887 37.5445L127.319 141.562L127.681 142.494L395.249 38.4765L394.887 37.5445ZM-140.249 38.4765L127.319 142.494L127.681 141.562L-139.887 37.5445L-140.249 38.4765ZM-140.819 38.8389L-139.887 38.4765L-140.249 37.5445L-141.181 37.9068L-140.819 38.8389ZM126.749 141.925L-140.819 37.9068L-141.181 38.8389L126.387 142.857L126.749 141.925Z" fill="#EE70C4"/>
</g>
<g filter="url(#filter1_d_60_3)">
<path fill-rule="evenodd" clip-rule="evenodd" d="M126.568 126.38L127.5 126.742L128.432 126.38L396 22.3623L395.068 22L127.5 126.018L-140.068 22L-141 22.3623L126.568 126.38Z" fill="#F4FF61"/>
<path d="M127.5 126.742L127.319 127.208L127.5 127.279L127.681 127.208L127.5 126.742ZM126.568 126.38L126.749 125.914V125.914L126.568 126.38ZM128.432 126.38L128.251 125.914L128.432 126.38ZM396 22.3623L396.181 22.8284L397.38 22.3623L396.181 21.8963L396 22.3623ZM395.068 22L395.249 21.534L395.068 21.4635L394.887 21.534L395.068 22ZM127.5 126.018L127.319 126.484L127.5 126.554L127.681 126.484L127.5 126.018ZM-140.068 22L-139.887 21.534L-140.068 21.4635L-140.249 21.534L-140.068 22ZM-141 22.3623L-141.181 21.8963L-142.38 22.3623L-141.181 22.8284L-141 22.3623ZM127.681 126.276L126.749 125.914L126.387 126.846L127.319 127.208L127.681 126.276ZM128.251 125.914L127.319 126.276L127.681 127.208L128.613 126.846L128.251 125.914ZM128.613 126.846L396.181 22.8284L395.819 21.8963L128.251 125.914L128.613 126.846ZM396.181 21.8963L395.249 21.534L394.887 22.466L395.819 22.8284L396.181 21.8963ZM394.887 21.534L127.319 125.552L127.681 126.484L395.249 22.466L394.887 21.534ZM-140.249 22.466L127.319 126.484L127.681 125.552L-139.887 21.534L-140.249 22.466ZM-140.819 22.8284L-139.887 22.466L-140.249 21.534L-141.181 21.8963L-140.819 22.8284ZM126.749 125.914L-140.819 21.8963L-141.181 22.8284L126.387 126.846L126.749 125.914Z" fill="#F4FF61"/>
</g>
<g filter="url(#filter2_d_60_3)">
<path d="M127.5 109.742L127.319 110.208L127.5 110.279L127.681 110.208L127.5 109.742ZM126.568 109.38L126.749 108.914V108.914L126.568 109.38ZM128.432 109.38L128.251 108.914L128.432 109.38ZM396 5.36234L396.181 5.82836L397.38 5.36233L396.181 4.89631L396 5.36234ZM395.068 5L395.249 4.53397L395.068 4.46355L394.887 4.53398L395.068 5ZM127.5 109.018L127.319 109.484L127.5 109.554L127.681 109.484L127.5 109.018ZM-140.068 5L-139.887 4.53398L-140.068 4.46355L-140.249 4.53398L-140.068 5ZM-141 5.36234L-141.181 4.89631L-142.38 5.36234L-141.181 5.82836L-141 5.36234ZM127.681 109.276L126.749 108.914L126.387 109.846L127.319 110.208L127.681 109.276ZM128.251 108.914L127.319 109.276L127.681 110.208L128.613 109.846L128.251 108.914ZM128.613 109.846L396.181 5.82836L395.819 4.89631L128.251 108.914L128.613 109.846ZM396.181 4.89631L395.249 4.53397L394.887 5.46603L395.819 5.82836L396.181 4.89631ZM394.887 4.53398L127.319 108.552L127.681 109.484L395.249 5.46602L394.887 4.53398ZM-140.249 5.46602L127.319 109.484L127.681 108.552L-139.887 4.53398L-140.249 5.46602ZM-140.819 5.82836L-139.887 5.46602L-140.249 4.53398L-141.181 4.89631L-140.819 5.82836ZM126.749 108.914L-140.819 4.89631L-141.181 5.82836L126.387 109.846L126.749 108.914Z" fill="#FF9900"/>
</g>
<defs>
<filter id="filter0_d_60_3" x="-144.38" y="35.4741" width="543.76" height="109.815" filterUnits="userSpaceOnUse" color-interpolation-filters="sRGB">
<feFlood flood-opacity="0" result="BackgroundImageFix"/>
<feColorMatrix in="SourceAlpha" type="matrix" values="0 0 0 0 0 0 0 0 0 0 0 0 0 0 0 0 0 0 127 0" result="hardAlpha"/>
<feOffset/>
<feGaussianBlur stdDeviation="1"/>
<feComposite in2="hardAlpha" operator="out"/>
<feColorMatrix type="matrix" values="0 0 0 0 0.933333 0 0 0 0 0.439216 0 0 0 0 0.768627 0 0 0 1 0"/>
<feBlend mode="normal" in2="BackgroundImageFix" result="effect1_dropShadow_60_3"/>
<feBlend mode="normal" in="SourceGraphic" in2="effect1_dropShadow_60_3" result="shape"/>
</filter>
<filter id="filter1_d_60_3" x="-144.38" y="19.4636" width="543.76" height="109.815" filterUnits="userSpaceOnUse" color-interpolation-filters="sRGB">
<feFlood flood-opacity="0" result="BackgroundImageFix"/>
<feColorMatrix in="SourceAlpha" type="matrix" values="0 0 0 0 0 0 0 0 0 0 0 0 0 0 0 0 0 0 127 0" result="hardAlpha"/>
<feOffset/>
<feGaussianBlur stdDeviation="1"/>
<feComposite in2="hardAlpha" operator="out"/>
<feColorMatrix type="matrix" values="0 0 0 0 0.956863 0 0 0 0 1 0 0 0 0 0.380392 0 0 0 1 0"/>
<feBlend mode="normal" in2="BackgroundImageFix" result="effect1_dropShadow_60_3"/>
<feBlend mode="normal" in="SourceGraphic" in2="effect1_dropShadow_60_3" result="shape"/>
</filter>
<filter id="filter2_d_60_3" x="-146.38" y="0.463623" width="547.76" height="113.815" filterUnits="userSpaceOnUse" color-interpolation-filters="sRGB">
<feFlood flood-opacity="0" result="BackgroundImageFix"/>
<feColorMatrix in="SourceAlpha" type="matrix" values="0 0 0 0 0 0 0 0 0 0 0 0 0 0 0 0 0 0 127 0" result="hardAlpha"/>
<feOffset/>
<feGaussianBlur stdDeviation="2"/>
<feComposite in2="hardAlpha" operator="out"/>
<feColorMatrix type="matrix" values="0 0 0 0 1 0 0 0 0 0.6 0 0 0 0 0 0 0 0 1 0"/>
<feBlend mode="normal" in2="BackgroundImageFix" result="effect1_dropShadow_60_3"/>
<feBlend mode="normal" in="SourceGraphic" in2="effect1_dropShadow_60_3" result="shape"/>
</filter>
</defs>
</svg>
