<svg viewBox="0 0 1625 530" fill="none" class="relative top-2 w-full opacity-60">
<g clip-path="url(#clip0_459_679)">
<path d="M56.451 432.278C56.451 432.278 40.6589 350.075 40.8678 311.084L57.579 297.752L125.552 255.376C125.552 255.376 198.997 253.203 204.178 255.376C209.358 257.549 225.067 266.701 229.913 266.827C234.759 266.952 282.637 270.504 288.82 268.54C295.003 266.576 296.215 261.979 300.267 259.388C304.32 256.797 349.44 259.388 349.44 259.388C349.44 259.388 380.815 263.943 388.335 262.815C395.855 261.687 400.869 257.048 406.049 255.376C411.23 253.704 421.298 257.006 426.061 257.675C433.362 257.787 440.593 256.229 447.201 253.119C452.164 248.619 457.535 244.59 463.243 241.083C468.382 238.785 481.709 242.337 487.266 241.083C492.822 239.83 500.3 230.218 505.564 226.791C510.828 223.364 523.613 228.421 530.631 226.791C537.65 225.161 538.318 220.648 541.494 218.767C544.669 216.886 551.353 219.101 555.197 218.767C559.04 218.433 560.294 216.845 564.931 210.785C580.431 190.433 608.088 191.227 613.519 190.182C615.399 175.764 629.645 175.262 636.413 174.719C643.181 174.176 650.868 167.615 657.553 166.152C665.261 164.227 673.324 164.227 681.032 166.152C688.97 168.576 702.673 167.489 713.034 175.889C723.395 184.289 760.16 176.516 766.217 175.889C771.615 175.126 777.106 176.343 781.675 179.316C787.185 182.683 793.518 184.462 799.974 184.457C805.196 183.997 823.077 190.224 828.55 194.194C834.023 198.164 834.942 204.934 838.828 208.486C842.713 212.039 859.341 211.579 863.435 212.666C867.529 213.752 871.582 214.713 876.595 215.507C881.102 216.255 885.729 215.444 889.713 213.209C893.891 211.203 904.92 213.209 912.023 212.08C919.125 210.952 935.084 202.176 940.641 201.8C946.197 201.424 946.448 203.471 949.79 205.979C953.132 208.486 980.998 202.636 989.813 205.979C998.628 209.322 999.673 215.716 1009.82 217.388C1032.8 217.388 1040.78 229.925 1044.12 235.149C1047.47 240.373 1073.91 250.654 1078.42 251.866C1090.33 252.11 1102.22 251.045 1113.89 248.689C1119.99 246.976 1153.37 246.976 1164.03 244.51C1174.68 242.045 1197.78 248.689 1197.78 248.689L1212.66 256.421L1333.31 261.561L1444.61 266.451L1486.97 338.958L1467.46 430.564H499.047L56.451 432.278Z" fill="#0065A5"></path>
<path d="M1174.63 280.434L1310.57 268.862V462.704H1177.52L1174.63 280.434Z" fill="#D9D9D9"></path>
<path d="M1142.81 176.281H1076.29V370.123H1142.81V176.281Z" fill="#D9D9D9"></path>
<path d="M1177.53 289.114H1056.05V482.956H1177.53V289.114Z" fill="#D9D9D9"></path>
<path d="M1490 34.2606L1523.5 14H1541.05H1584.5V23.5L1579.5 29L1568.18 394L1490 425V34.2606Z" fill="#D9D9D9"></path>
<path d="M1565.73 210.859H1337.89V496.808H1565.73V210.859Z" fill="#D9D9D9"></path>
<path d="M399.332 313.88H315.861V318.104H399.332V313.88Z" fill="black"></path>
<path d="M321.415 211.998C321.415 211.446 321.863 210.998 322.415 210.998H395.614C396.166 210.998 396.614 211.446 396.614 211.998V369.123C396.614 369.675 396.166 370.123 395.614 370.123H322.415C321.863 370.123 321.415 369.675 321.415 369.123V211.998Z" fill="#D9D9D9"></path>
<path d="M208.616 283.328H17.7271V494.529H208.616V283.328Z" fill="#D9D9D9"></path>
<path d="M399.332 218.868H315.861V223.092H399.332V218.868Z" fill="black"></path>
<path d="M399.332 228.415H315.861V232.639H399.332V228.415Z" fill="black"></path>
<path d="M399.332 239.005H315.861V243.229H399.332V239.005Z" fill="black"></path>
<path d="M399.332 249.593H315.861V253.817H399.332V249.593Z" fill="black"></path>
<path d="M399.332 260.183H315.861V264.407H399.332V260.183Z" fill="black"></path>
<path d="M399.332 270.772H315.861V274.996H399.332V270.772Z" fill="black"></path>
<path d="M399.332 281.389H315.861V285.613H399.332V281.389Z" fill="black"></path>
<path d="M399.332 292.673H315.861V296.897H399.332V292.673Z" fill="black"></path>
<path d="M399.332 303.261H315.861V307.486H399.332V303.261Z" fill="black"></path>
<path d="M396.411 208.568V197.69H392.333V191.209H390.829V197.777C372.81 198.182 353.779 194.218 341.082 195.144V208.308H327.749V212.156H398.753V208.597L396.411 208.568ZM346.288 201.682H343.656V197.69H346.288V201.682ZM351.812 201.682H347.445V197.69H351.696L351.812 201.682ZM355.543 201.682H352.911V197.69H355.543V201.682ZM359.592 201.682H356.845V197.69H359.592V201.682ZM364.885 201.682H362.166V197.69H364.798L364.885 201.682ZM370.033 201.682H367.372V197.69H370.033V201.682ZM375.413 201.682H372.665V197.69H375.413V201.682Z" fill="black"></path>
<path d="M323.758 214.21H319.998V315.789H323.758V214.21Z" fill="black"></path>
<path d="M335.644 210.188H331.884V317.236H335.644V210.188Z" fill="black"></path>
<path d="M350.51 210.015H346.75V319.956H350.51V210.015Z" fill="black"></path>
<path d="M439.997 211.998C439.997 211.446 440.445 210.998 440.997 210.998H514.196C514.748 210.998 515.196 211.446 515.196 211.998V369.123C515.196 369.675 514.748 370.123 514.196 370.123H440.997C440.445 370.123 439.997 369.675 439.997 369.123V211.998Z" fill="#D9D9D9"></path>
<path d="M367.17 210.015H363.41V319.956H367.17V210.015Z" fill="black"></path>
<path d="M381.718 209.437H377.958V322.27H381.718V209.437Z" fill="black"></path>
<path d="M394.703 210.015H390.943V319.956H394.703V210.015Z" fill="black"></path>
<path d="M436.266 223.121H519.736V218.897H436.266V223.121Z" fill="black"></path>
<path d="M436.266 232.639H519.736V228.415H436.266V232.639Z" fill="black"></path>
<path d="M436.266 243.229H519.736V239.005H436.266V243.229Z" fill="black"></path>
<path d="M436.266 253.846H519.736V249.622H436.266V253.846Z" fill="black"></path>
<path d="M436.266 264.436H519.736V260.212H436.266V264.436Z" fill="black"></path>
<path d="M436.266 275.024H519.736V270.8H436.266V275.024Z" fill="black"></path>
<path d="M436.266 285.613H519.736V281.389H436.266V285.613Z" fill="black"></path>
<path d="M436.266 296.926H519.736V292.702H436.266V296.926Z" fill="black"></path>
<path d="M436.266 307.515H519.736V303.291H436.266V307.515Z" fill="black"></path>
<path d="M436.699 208.568V212.127H507.733V208.279H494.4V195.115C481.703 194.189 462.585 198.008 444.653 197.748V191.18H443.265V197.661H439.187V208.539L436.699 208.568ZM489.165 197.69H492.057V201.683H489.165V197.69ZM483.669 197.69H487.921V201.683H483.669V197.69ZM479.91 197.69H482.57V201.683H479.91V197.69ZM475.889 197.69H478.608V201.683H475.889V197.69ZM470.568 197.69H473.315V201.683H470.568V197.69ZM465.448 197.69H468.109V201.683H465.448V197.69ZM460.069 197.69H462.787V201.683H460.242L460.069 197.69Z" fill="black"></path>
<path d="M511.84 341.509H515.6V214.21H511.84V341.509Z" fill="black"></path>
<path d="M499.954 338.674H503.714V211.375H499.954V338.674Z" fill="black"></path>
<path d="M484.278 329.069H488.038V210.68H484.278V329.069Z" fill="black"></path>
<path d="M467.589 329.069H471.349V210.68H467.589V329.069Z" fill="black"></path>
<path d="M453.07 331.557H456.83V210.044H453.07V331.557Z" fill="black"></path>
<path d="M440.055 329.069H443.814V210.68H440.055V329.069Z" fill="black"></path>
<path d="M436.266 318.104H519.736V313.88H436.266V318.104Z" fill="black"></path>
<path d="M436.266 328.693H519.736V324.469H436.266V328.693Z" fill="black"></path>
<path d="M1020.99 165.026L916.15 361.183H897.495L1006.04 169.424C1006.04 169.424 1017.61 167.746 1020.99 165.026Z" fill="black"></path>
<path d="M855.151 348.279L1000.81 184.092" stroke="#1D1D1B" stroke-width="0.75" stroke-miterlimit="10"></path>
<path d="M833.951 346.63L999.678 190.573" stroke="#1D1D1B" stroke-width="0.75" stroke-miterlimit="10"></path>
<path d="M808.528 348.656L1003.47 187.911" stroke="#1D1D1B" stroke-width="0.75" stroke-miterlimit="10"></path>
<path d="M784.147 350.565L996.236 198.963" stroke="#1D1D1B" stroke-width="0.75" stroke-miterlimit="10"></path>
<path d="M765.723 349.813L999.678 200.091" stroke="#1D1D1B" stroke-width="0.75" stroke-miterlimit="10"></path>
<path d="M740.387 350.941L993.951 210.015" stroke="#1D1D1B" stroke-width="0.75" stroke-miterlimit="10"></path>
<path d="M1160.17 280.434H937.465V439.558H1160.17V280.434Z" fill="#D9D9D9"></path>
<path d="M718.607 350.189L980.617 226.014" stroke="#1D1D1B" stroke-width="0.75" stroke-miterlimit="10"></path>
<path d="M696.858 349.813L979.489 236.661" stroke="#1D1D1B" stroke-width="0.75" stroke-miterlimit="10"></path>
<path d="M1113.89 303.58H894.081V439.559H1113.89V303.58Z" fill="#D9D9D9"></path>
<path d="M1580.79 48.7498V32.8953L1585.19 31.767V13.2796H1580.62V2.40133H1585.1V0H1559.07V1.41765H1557.54V13.2796H1524.13L1508.25 22.2484L1502.32 25.6045V27.1958L1508.25 23.8108V32.8663L1489.89 43.3975V46.2907L1500.85 39.9546V59.5703L1489.28 66.1667V207.035H1473.17V159.153H1471.03L1464.75 160.108C1464.75 160.108 1437.02 161.815 1430.71 166.212C1428.74 167.601 1427.56 171.333 1426.86 175.818L1359.13 206.485H1358.11H1328.99V212.85H1337.12V230.614H1318.75V245.254H1336.28V258.562H1322.6V270.309H1336.28V284.398H1322.6V297.794H1336.28V313.07H1322.86V318.046H1318.72V281.505L1322.77 276.066H1317.85V260.182H1183.8C1183.8 260.182 1183.34 268.341 1181.83 268.37H1175.12L1178.16 272.999V277.136H1146.34V171.507H1143.45V165.344H1134.14V140.405H1118.69V135.082H1117.1V140.405H1085.29V165.344H1077.25V157.533H1074.62V165.344H1073.43V168.238H1074.62V171.594H1071.72V269.498H1017.7V274.938H1005.03L1004.36 279.596C999.995 279.596 978.477 278.178 973.56 278.207V273.173H946.46C946.46 273.173 946.142 278.67 944.146 278.67H935.874V293.396H886.33L890.842 301.699V346.283L529.136 344.894L516.728 335.723L506.605 335.26L502.469 326.06L419.751 325.134C418.961 323.628 417.84 322.322 416.473 321.313C415.105 320.304 413.525 319.619 411.854 319.31C410.183 319.001 408.463 319.075 406.825 319.528C405.187 319.98 403.673 320.799 402.397 321.923L396.41 321.46V313.648L290.265 311.334C289.474 307.119 287.164 303.341 283.773 300.717C280.382 298.093 276.147 296.806 271.87 297.099C264.986 297.678 266.75 303.088 261.747 303.522C256.743 303.956 254.256 297.562 248.876 298.488C243.497 299.414 247.488 304.824 242.456 306.3C237.423 307.775 222.21 304.911 222.21 304.911L237.828 271.35H0.142394L0.142288 303.58V398.302V400.69V403.365V501.733C69.0358 538.042 320.518 478.356 329.657 475.984C338.797 473.611 424.436 472.541 437.683 458.075C453.214 467.854 487.545 461.258 491.913 460.361C496.28 459.464 499.664 460.592 504.32 458.509C508.977 456.426 509.035 450.437 507.994 447.949C507.494 447.122 506.827 446.409 506.034 445.856C505.242 445.303 504.343 444.922 503.395 444.738C503.395 444.738 617.003 437.042 622.44 433.165C617.61 427.176 593.778 425.932 588.427 423.965C583.077 421.997 586.056 416.211 582.903 414.764C579.751 413.318 563.612 414.764 563.612 414.764C563.612 414.764 564.364 405.94 566.359 403.192C574.544 402.96 835.889 403.655 844.421 404.551C847.313 423.328 833.691 433.483 816.829 416.5C811.449 425.787 798.463 420.203 798.463 420.203C796.727 423.132 794.367 425.641 791.55 427.552C786.46 431.284 761.702 433.078 761.702 433.078C761.702 433.078 797.595 438.546 800.748 441.353C803.9 444.159 798.347 443.407 799.851 445.924C801.355 448.441 807.747 445.49 812.693 447.775C807.689 455.269 810.466 461.344 813.618 462.502C816.771 463.659 853.387 464.961 856.829 463.861C860.27 462.762 860.386 453.677 858.68 452.289C856.973 450.9 850.408 452.289 850.408 452.289C850.408 452.289 849.396 447.862 850.842 446.3C864.175 451.131 907.848 450.9 907.848 450.9C907.865 452.539 907.38 454.144 906.46 455.5C904.898 457.901 892.23 455.037 892.23 455.037C892.23 455.037 896.424 467.941 894.515 471.586C892.606 475.232 988.86 477.372 991.955 476.649C992.707 494.297 1021.34 529.247 1021.34 529.247H1625V48.7498H1580.79ZM183.135 293.772C184.228 293.772 185.296 294.096 186.204 294.703C187.113 295.311 187.821 296.174 188.239 297.183C188.657 298.193 188.767 299.304 188.553 300.376C188.34 301.448 187.814 302.433 187.042 303.206C186.269 303.978 185.285 304.505 184.213 304.718C183.141 304.931 182.031 304.822 181.021 304.403C180.012 303.985 179.149 303.277 178.542 302.368C177.935 301.459 177.611 300.391 177.611 299.298C177.611 297.832 178.193 296.427 179.229 295.391C180.265 294.354 181.67 293.772 183.135 293.772ZM145.999 293.772C147.091 293.772 148.159 294.096 149.068 294.703C149.976 295.311 150.684 296.174 151.102 297.183C151.521 298.193 151.63 299.304 151.417 300.376C151.204 301.448 150.678 302.433 149.905 303.206C149.132 303.978 148.148 304.505 147.077 304.718C146.005 304.931 144.894 304.822 143.885 304.403C142.875 303.985 142.013 303.277 141.406 302.368C140.799 301.459 140.475 300.391 140.475 299.298C140.475 297.832 141.057 296.427 142.093 295.391C143.129 294.354 144.534 293.772 145.999 293.772ZM110.106 293.772C111.198 293.772 112.267 294.096 113.175 294.703C114.083 295.311 114.791 296.174 115.21 297.183C115.628 298.193 115.737 299.304 115.524 300.376C115.311 301.448 114.785 302.433 114.012 303.206C113.24 303.978 112.255 304.505 111.184 304.718C110.112 304.931 109.001 304.822 107.992 304.403C106.982 303.985 106.12 303.277 105.513 302.368C104.906 301.459 104.582 300.391 104.582 299.298C104.589 297.835 105.174 296.434 106.208 295.399C107.242 294.364 108.643 293.78 110.106 293.772ZM73.1139 293.772C74.2065 293.772 75.2745 294.096 76.183 294.703C77.0915 295.311 77.7995 296.174 78.2176 297.183C78.6357 298.193 78.7451 299.304 78.532 300.376C78.3188 301.448 77.7927 302.433 77.0201 303.206C76.2475 303.978 75.2632 304.505 74.1916 304.718C73.12 304.931 72.0093 304.822 70.9999 304.403C69.9905 303.985 69.1277 303.277 68.5207 302.368C67.9137 301.459 67.5897 300.391 67.5897 299.298C67.5973 297.835 68.1818 296.434 69.2161 295.399C70.2505 294.364 71.6512 293.78 73.1139 293.772ZM36.2666 293.772C37.3592 293.772 38.4272 294.096 39.3357 294.703C40.2441 295.311 40.9522 296.174 41.3703 297.183C41.7884 298.193 41.8978 299.304 41.6846 300.376C41.4715 301.448 40.9454 302.433 40.1728 303.206C39.4002 303.978 38.4159 304.505 37.3443 304.718C36.2727 304.931 35.162 304.822 34.1526 304.403C33.1431 303.985 32.2804 303.277 31.6734 302.368C31.0663 301.459 30.7424 300.391 30.7424 299.298C30.7424 297.832 31.3244 296.427 32.3604 295.391C33.3964 294.354 34.8015 293.772 36.2666 293.772ZM51.6823 488.743H22.7597V429.809C22.7597 425.972 24.2833 422.293 26.9953 419.58C29.7074 416.867 33.3856 415.343 37.221 415.343C41.0564 415.343 44.7347 416.867 47.4467 419.58C50.1587 422.293 51.6823 425.972 51.6823 429.809V488.743ZM51.6823 396.74H22.7597V337.777C22.7597 333.941 24.2833 330.261 26.9953 327.548C29.7074 324.835 33.3856 323.311 37.221 323.311C41.0564 323.311 44.7347 324.835 47.4467 327.548C50.1587 330.261 51.6823 333.941 51.6823 337.777V396.74ZM87.5173 488.743H58.5948V429.809C58.5948 425.972 60.1184 422.293 62.8304 419.58C65.5424 416.867 69.2207 415.343 73.0561 415.343C76.8914 415.343 80.5697 416.867 83.2817 419.58C85.9938 422.293 87.5173 425.972 87.5173 429.809V488.743ZM87.5173 396.74H58.5948V337.777C58.5948 333.941 60.1184 330.261 62.8304 327.548C65.5424 324.835 69.2207 323.311 73.0561 323.311C76.8914 323.311 80.5697 324.835 83.2817 327.548C85.9938 330.261 87.5173 333.941 87.5173 337.777V396.74ZM124.133 488.743H120.084V446.676H99.2021V488.743H95.3265V429.809C95.3265 425.972 96.85 422.293 99.5621 419.58C102.274 416.867 105.952 415.343 109.788 415.343C113.623 415.343 117.301 416.867 120.013 419.58C122.725 422.293 124.249 425.972 124.249 429.809L124.133 488.743ZM124.133 396.74H95.2108V337.777C95.2108 333.941 96.7343 330.261 99.4464 327.548C102.158 324.835 105.837 323.311 109.672 323.311C113.507 323.311 117.186 324.835 119.898 327.548C122.61 330.261 124.133 333.941 124.133 337.777V396.74ZM160.402 488.743H131.48V429.809C131.48 425.972 133.003 422.293 135.715 419.58C138.427 416.867 142.106 415.343 145.941 415.343C149.776 415.343 153.455 416.867 156.167 419.58C158.879 422.293 160.402 425.972 160.402 429.809V488.743ZM160.402 396.74H131.48V337.777C131.48 333.941 133.003 330.261 135.715 327.548C138.427 324.835 142.106 323.311 145.941 323.311C149.776 323.311 153.455 324.835 156.167 327.548C158.879 330.261 160.402 333.941 160.402 337.777V396.74ZM196.613 488.743H167.691V429.809C167.691 425.972 169.214 422.293 171.926 419.58C174.638 416.867 178.317 415.343 182.152 415.343C185.987 415.343 189.666 416.867 192.378 419.58C195.09 422.293 196.613 425.972 196.613 429.809V488.743ZM196.613 396.74H167.691V337.777C167.691 333.941 169.214 330.261 171.926 327.548C174.638 324.835 178.317 323.311 182.152 323.311C185.987 323.311 189.666 324.835 192.378 327.548C195.09 330.261 196.613 333.941 196.613 337.777V396.74ZM546.374 376.488H539.346V355.078H546.374V376.488ZM550.365 376.488H547.473V355.078H550.365V376.488ZM555.745 376.488H552.795V355.078H555.687L555.745 376.488ZM566.186 376.488H558.116V355.078H566.186V376.488ZM571.247 376.488H568.789V355.078H571.247V376.488ZM575.354 376.488H572.664V355.078H575.354V376.488ZM585.795 376.488H577.986V355.078H585.795V376.488ZM589.931 376.488H587.039V355.078H589.931V376.488ZM595.05 376.488H591.03V355.078H595.05V376.488ZM605.752 376.488H596.323V355.078H605.752V376.488ZM610.958 376.488H607.169V355.078H610.958V376.488ZM615.065 376.488H612.173V355.078H615.065V376.488ZM626.634 376.488H617.321V355.078H626.634V376.488ZM630.683 376.488H627.993V355.078H630.886L630.683 376.488ZM633.373 376.488H631.869V355.078H633.373V376.488ZM643.959 376.488H635.831V355.078H643.959V376.488ZM647.371 376.488H645.347V355.078H647.487L647.371 376.488ZM655.904 376.488H649.107V355.078H655.904V376.488ZM659.721 376.488H657.032V355.078H659.808L659.721 376.488ZM665.969 376.488H661.283V355.078H665.969V376.488ZM670.249 376.488H667.357V355.078H670.249V376.488ZM674.038 376.488H671.493V355.078H674.038V376.488ZM685.983 376.488H676.728V355.078H685.983V376.488ZM691.131 376.488H687.314V355.078H691.131V376.488ZM696.655 376.488H692.635V355.078H696.655V376.488ZM707.183 376.488H697.755V355.078H707.183V376.488ZM712.476 376.488H709.584V355.078H712.476V376.488ZM717.624 376.488H713.893V355.078H717.653L717.624 376.488ZM729.193 376.488H719.447V355.078H729.222L729.193 376.488ZM734.718 376.488H730.929V355.078H734.718V376.488ZM738.767 376.488H735.874V355.078H738.767V376.488ZM750.336 376.488H741.341V355.078H750.336V376.488ZM755.484 376.488H752.013V355.078H755.484V376.488ZM759.851 376.488H757.161V355.078H759.851V376.488ZM771.42 376.488H761.905V355.078H771.478L771.42 376.488ZM776.713 376.488H772.982V355.078H776.713V376.488ZM781.052 376.488H778.391V355.078H781.138L781.052 376.488ZM792.621 376.488H783.51V355.078H792.621V376.488ZM798 376.488H794.674V355.078H798V376.488ZM803.062 376.488H799.562V355.078H803.062V376.488ZM813.965 376.488H804.884V355.078H813.965V376.488ZM819.114 376.488H815.99V355.078H819.229L819.114 376.488ZM824.262 376.488H820.618V355.078H824.262V376.488ZM834.847 376.488H826.171V355.078H834.847V376.488ZM840.14 376.488H837.537V355.078H840.14V376.488ZM844.276 376.488H841.731V355.078H844.276V376.488ZM1001.47 285.787H1009.77V293.917H1001.62L1001.47 285.787ZM1001.47 294.669H1009.77V297.562H1001.62L1001.47 294.669ZM991.087 285.787H999.214V293.917H991.087V285.787ZM991.087 294.669H999.214V297.562H991.087V294.669ZM980.675 285.787H988.802V293.917H980.849L980.675 285.787ZM980.675 294.669H988.802V297.562H980.849L980.675 294.669ZM970.292 285.787H978.419V293.917H970.292V285.787ZM970.292 294.669H978.419V297.562H970.292V294.669ZM959.88 285.787H968.007V293.917H959.88V285.787ZM959.88 294.669H968.007V297.562H959.88V294.669ZM949.468 285.787H957.711V293.917H949.554L949.468 285.787ZM949.468 294.669H957.711V297.562H949.554L949.468 294.669ZM939.085 285.787H947.212V293.917H939.085V285.787ZM929.338 294.669H935.325V297.562H929.338V294.669ZM923.293 294.669H927.949V297.562H923.293V294.669ZM916.93 294.669H921.21V297.562H916.93V294.669ZM911.348 294.669H915.513V297.562H911.435L911.348 294.669ZM898.39 294.669H902.237V297.562H898.39V294.669ZM892.837 294.669H895.73V297.562H892.837V294.669ZM856.048 376.488H846.706V355.078H856.048V376.488ZM861.341 376.488H858.651V355.078H861.341V376.488ZM866.576 376.488H862.931V355.078H866.576V376.488ZM878.376 376.488H868.398V355.078H878.376V376.488ZM883.495 376.488H881.21V355.078H883.495V376.488ZM889.048 376.488H885.491V355.078H889.048V376.488ZM893.242 376.488H890.35V355.078H893.242V376.488ZM899.374 316.946H895.816V308.267H899.432L899.374 316.946ZM905.332 316.946H901.167V308.267H905.332V316.946ZM908.773 297.591H904.609V294.698H908.773V297.591ZM925.896 380.827H919.07V371.338H925.896V380.827ZM926.416 367.287H919.07V347.469H926.416V367.287ZM925.896 340.555V345.444H919.07V340.555H925.896ZM919.07 338.211V329.242H925.896V338.298L919.07 338.211ZM937.175 316.889H909.381V308.209H937.175V316.889ZM939.085 294.611H947.212V297.504H939.085V294.611ZM956.612 380.972H949.786V371.512H956.612V380.972ZM957.161 367.461H949.786V347.643H957.161V367.461ZM956.612 340.699V345.618H949.786V340.699H956.612ZM949.786 338.356V329.416H956.612V338.298L949.786 338.356ZM964.016 316.889H940.357V308.209H963.987L964.016 316.889ZM982.758 380.827H975.961V371.338H982.758V380.827ZM983.307 367.287H975.961V347.469H983.307V367.287ZM982.758 340.555V345.444H975.961V340.555H982.758ZM975.961 338.211V329.242H982.758V338.298L975.961 338.211ZM992.678 316.889H966.648V308.209H992.678V316.889ZM1018.45 316.889H994.442V308.209H1018.45V316.889ZM1020.01 297.533H1011.88V294.64H1020.01V297.533ZM1020.01 293.859H1011.88V285.729H1020.01V293.859ZM1053.47 285.729H1061.83V293.859H1053.68L1053.47 285.729ZM1053.47 294.611H1061.83V297.504H1053.68L1053.47 294.611ZM1043.09 285.729H1051.22V293.859H1043.09V285.729ZM1043.09 294.611H1051.22V297.504H1043.09V294.611ZM1032.68 285.729H1040.81V293.859H1032.68V285.729ZM1032.68 294.611H1040.81V297.504H1032.68V294.611ZM1022.27 285.729H1030.42V293.859H1022.27V285.729ZM1022.27 294.611H1030.42V297.504H1022.27V294.611ZM1044.33 316.889H1021.2V308.209H1044.33V316.889ZM1072.01 316.889H1047.37V308.209H1071.95L1072.01 316.889ZM1072.01 297.533H1063.89V294.64H1072.01V297.533ZM1072.01 293.859H1063.89V285.729H1072.01V293.859ZM1125.78 152.094H1131.77V165.344H1125.78V152.094ZM1124.8 168.151H1130.41V171.507H1124.8V168.151ZM1119.79 152.094H1123.61V165.344H1119.79V152.094ZM1119.36 168.151H1123.61V171.507H1119.36V168.151ZM1112.74 152.094H1117.07V165.344H1112.74V152.094ZM1112.74 168.151H1118V171.507H1112.74V168.151ZM1105.22 152.094H1110.74V165.344H1105.22V152.094ZM1087.86 152.094H1090.75V165.344H1087.86V152.094ZM1089.74 196.677C1089.74 202.464 1087.57 207.18 1084.91 207.18C1082.25 207.18 1080.05 202.493 1080.05 196.677C1080.05 190.862 1082.22 186.146 1084.91 186.146C1087.6 186.146 1089.77 190.746 1089.77 196.677H1089.74ZM1086.85 236.632V277.541H1082.92V236.632H1086.85ZM1077.48 168.151H1085.52V171.507H1077.48V168.151ZM1077.48 236.632H1081.41V277.541H1077.48V236.632ZM1077.48 289.056H1081.04V294.061H1077.48V289.056ZM1084.19 336.562H1081.04V332.193H1084.19V336.562ZM1087.08 328.837H1084.19V312.578H1087.08V328.837ZM1087.08 308.267H1079.19V303.349H1087.08V308.267ZM1087.08 300.976H1079.19V296.087H1087.08V300.976ZM1092 277.57H1088.06V236.632H1092V277.57ZM1094.23 171.507H1087.86V168.151H1094.37L1094.23 171.507ZM1095.87 165.344H1091.8V152.094H1095.87V165.344ZM1103.65 168.238H1110.07V171.594H1103.65V168.238ZM1112.88 277.541H1104.98V235.214H1112.88V277.541ZM1116.87 305.779H1113.98V298.488H1116.87V305.779ZM1115.57 277.541V235.214H1125.23V277.541H1115.57ZM1126.16 305.779H1123.26V298.488H1126.16V305.779ZM1119.42 207.411C1117.3 207.411 1115.24 206.784 1113.48 205.61C1111.73 204.436 1110.36 202.766 1109.55 200.814C1108.75 198.862 1108.54 196.714 1108.95 194.642C1109.37 192.57 1110.39 190.668 1111.88 189.176C1113.38 187.684 1115.28 186.67 1117.35 186.261C1119.42 185.852 1121.57 186.068 1123.52 186.88C1125.47 187.693 1127.14 189.066 1128.3 190.825C1129.47 192.585 1130.09 194.652 1130.09 196.764C1130.09 198.169 1129.82 199.56 1129.29 200.859C1128.75 202.157 1127.96 203.337 1126.97 204.332C1125.98 205.326 1124.8 206.115 1123.51 206.654C1122.21 207.192 1120.82 207.469 1119.42 207.469V207.411ZM1127.63 235.157H1135.35V277.541H1127.63V235.157ZM1137.23 305.75H1134.86V298.459H1137.23V305.75ZM1141.05 171.449H1134.14V168.093H1141.02L1141.05 171.449ZM1152.04 305.75H1149.15V298.459H1152.04V305.75ZM1166.68 305.75H1164.3V298.459H1166.68V305.75ZM1176.13 307.254H1172.78V296.029H1176.13V307.254ZM1184.06 315.558H1179.11V281.621H1184.06V315.558ZM1194.33 309.019H1187.41V281.563H1194.33V309.019ZM1206.56 304.274H1198.87V281.563H1206.44L1206.56 304.274ZM1218.13 302.104H1211.62V281.563H1218.13V302.104ZM1243.06 311.594H1226.86V297.794H1243.06V311.594ZM1243.06 296.029H1226.86V281.563H1243.06V296.029ZM1273.46 311.42H1257.26V297.562H1273.46V311.42ZM1273.46 295.826H1257.26V281.36H1273.46V295.826ZM1303.86 311.594H1287.66V297.794H1303.86V311.594ZM1303.86 296.029H1287.66V281.563H1303.86V296.029ZM1339.69 313.041H1337.7V297.794H1339.69V313.041ZM1339.69 284.283H1337.7V270.193H1339.69V284.283ZM1339.69 258.447H1337.7V245.138H1339.69V258.447ZM1341.08 230.499H1338.19V212.735H1341.08V230.499ZM1345.27 313.098H1341.54V297.794H1345.27V313.098ZM1345.27 284.34H1341.54V270.251H1345.27V284.34ZM1345.27 258.504H1341.54V245.196H1345.27V258.504ZM1345.27 230.556H1342.61V212.792H1345.27V230.556ZM1351.58 224.77H1348.17V214.065H1351.84L1351.58 224.77ZM1359.42 224.77H1354.24V212.706H1359.53L1359.42 224.77ZM1360.83 212.706H1366.13V224.77H1360.83V212.706ZM1381.83 242.823V258.418H1366.24V242.823H1381.83ZM1367.37 224.77V212.706H1372.87V224.77H1367.37ZM1381.83 303.782V319.348H1366.24V303.869L1381.83 303.782ZM1381.57 379.005H1365.98V363.411H1381.57V379.005ZM1382 349.176H1366.42V333.582H1382V349.176ZM1382 288.593H1366.42V272.999H1382V288.593ZM1364.45 206.37L1389.06 195.289L1384.35 206.456L1364.45 206.37ZM1390.48 197.69L1397.88 206.601H1386.17L1390.48 197.69ZM1402.25 225.262H1388.66V211.462H1402.42L1402.25 225.262ZM1403.12 242.823V258.418H1387.53V242.823H1403.12ZM1403.12 303.782V319.348H1387.53V303.869L1403.12 303.782ZM1402.86 379.005H1387.27V363.411H1402.86V379.005ZM1403.29 349.176H1387.79V333.582H1403.38L1403.29 349.176ZM1403.29 288.593H1387.79V272.999H1403.38L1403.29 288.593ZM1425.13 379.005H1409.54V363.411H1425.13V379.005ZM1425.39 242.795V258.389H1409.8V242.823L1425.39 242.795ZM1410.7 225.146V211.346H1424.49V225.146H1410.7ZM1425.53 349.176H1409.94V333.582H1425.53V349.176ZM1409.8 319.319V303.869H1425.39V319.434L1409.8 319.319ZM1425.53 288.593H1409.94V272.999H1425.53V288.593ZM1425.85 197.43V206.572H1409.28L1425.97 184.121C1425.71 189.907 1425.97 195.231 1425.97 197.488L1425.85 197.43ZM1426.08 182.096L1407.66 206.514H1400.66L1391.55 195.665L1392.39 193.9L1426.46 178.566C1426.26 179.752 1426.26 180.968 1426.26 182.212L1426.08 182.096ZM1446.33 379.005H1430.74V363.411H1446.5L1446.33 379.005ZM1446.59 242.795V258.389H1431.17V242.823L1446.59 242.795ZM1431.46 224.741V211.346H1446.13V224.741H1431.46ZM1446.76 349.147H1431.17V333.553H1446.76V349.147ZM1431 319.29V303.869H1446.59V319.434L1431 319.29ZM1446.76 288.564H1431.17V272.97H1446.76V288.564ZM1468.77 378.976H1453.18V363.382H1468.77V378.976ZM1469.03 242.766V258.36H1453.44V242.823L1469.03 242.766ZM1453.85 224.712V211.317H1468.66V224.712H1453.85ZM1469.21 349.118H1453.62V333.524H1469.21V349.118ZM1453.44 319.261V303.869H1469.03V319.434L1453.44 319.261ZM1469.21 288.535H1453.62V272.941H1469.21V288.535ZM1470.83 206.659H1429.15V198.616H1464.72V162.017L1471 161.149L1470.83 206.659ZM1578.68 13.106H1570.84V2.40133H1578.68V13.106ZM1559.47 4.05044H1565.92V13.106H1559.47V4.05044ZM1525.84 15.6231H1529.91V23.5793H1525.84V15.6231ZM1509.26 22.9428L1516.7 18.6899V27.7165L1509.26 31.9984V22.9428ZM1475.42 211.462H1489.6V224.741H1475.42V211.462ZM1474.09 242.823H1489.68V258.418H1474.09V242.823ZM1474.09 303.782H1489.68V319.348H1474.09V303.782ZM1489.42 379.005H1473.83V363.411H1489.42V379.005ZM1489.89 349.292H1474.27V333.698H1489.89V349.292ZM1489.89 288.709H1474.27V273.115H1489.89V288.709ZM1502.35 379.121H1491.22V362.051L1502.35 361.733V379.121ZM1502.35 348.308L1491.22 348.887V331.817L1502.35 330.891V348.308ZM1502.35 315.239L1491.22 316.454V299.385L1502.35 297.851V315.239ZM1502.35 285.382L1491.22 287.234V270.164L1502.35 267.994V285.382ZM1502.35 254.194L1491.22 256.624V239.554L1502.35 236.661V254.194ZM1502.35 220.72L1491.22 223.844V206.775L1502.35 203.332V220.72ZM1502.35 189.155L1491.22 192.887V175.818L1502.35 171.767V189.155ZM1502.35 154.755L1491.22 159.124V142.054L1502.35 137.368V154.755ZM1502.35 122.728L1491.22 127.733V110.664L1502.35 105.311V122.728ZM1502.35 89.2831L1491.22 94.8669V77.913L1502.35 71.982V89.2831ZM1502.35 38.9709L1508.71 35.2966V54.9412L1502.35 58.5577V38.9709ZM1516.81 379.063H1504.98V361.704L1516.81 361.356V379.063ZM1516.81 347.498L1504.98 348.106V330.747L1516.81 329.792V347.498ZM1516.81 313.619L1504.98 314.892V297.533L1516.81 295.884V313.619ZM1516.81 282.952L1504.98 284.89V267.531L1516.81 265.217V282.952ZM1516.81 250.982L1504.98 253.557V236.198L1516.81 233.305V250.982ZM1516.81 216.611L1504.98 219.91V202.551L1516.81 198.876V216.611ZM1516.81 184.266L1504.98 188.2V170.841L1516.81 166.56V184.266ZM1516.81 148.998L1504.98 153.656V136.297L1516.81 131.321V148.998ZM1516.81 116.103L1504.98 121.455V104.096L1516.81 98.3098V116.103ZM1516.81 81.9056L1504.98 87.8655V70.5065L1516.81 64.1993V81.9056ZM1519.42 48.8077L1510.13 54.1022V34.5155L1519.44 29.1631L1519.42 48.8077ZM1523.99 48.8077H1520.6V28.5556L1523.99 26.6171V48.8077ZM1523.99 23.8976L1517.77 27.4561V18.4005L1524.07 14.813L1523.99 23.8976ZM1531.36 48.8077H1525.95V29.7707H1531.36V48.8077ZM1531.36 15.8835H1544.23V23.8397H1531.36V15.8835ZM1553.66 48.8077H1538.36V33.7922H1553.66V48.8077ZM1557.48 23.8397H1545.91V15.8835H1557.48V23.8397ZM1570.52 23.8397H1558.66V15.8835H1570.52V23.8397ZM1572.2 15.8835H1584.06V23.8397H1572.2V15.8835Z" fill="#1D1D1B"></path>
<g id="flying-alien">
<path d="M1302 39.3128C1293.23 40.373 1285.48 42.5266 1278.52 45.8399C1275.26 47.3971 1269.39 51.3399 1266.77 53.7254C1264.94 55.4152 1262 59.1592 1262 59.7887C1262 59.9875 1262.42 60.0537 1263.06 59.9212C1264.77 59.623 1280.71 58.4302 1287.97 58.0658C1296.68 57.6351 1325.78 57.6351 1333.94 58.0658C1341.33 58.4634 1351.78 59.2586 1356.45 59.7887C1358.26 59.9875 1359.84 60.0537 1359.97 59.9543C1360.23 59.6561 1358.71 57.3369 1357.04 55.4814C1355.39 53.626 1351.26 50.3128 1348.29 48.4573C1341.55 44.1833 1332.78 41.1682 1322.81 39.6441C1318.26 38.9483 1306.61 38.7827 1302 39.3128ZM1313.36 47.7947C1316.23 50.114 1314.71 54.4212 1311.03 54.4212C1309.71 54.4212 1309.32 54.2555 1308.49 53.3941C1307.65 52.5326 1307.49 52.1351 1307.49 50.7766C1307.49 49.4182 1307.65 49.0206 1308.49 48.1592C1309.32 47.2977 1309.71 47.132 1311 47.132C1312.07 47.132 1312.81 47.3308 1313.36 47.7947ZM1288.78 48.2917C1290.65 49.2857 1291.32 52.2345 1290.03 53.8579C1289.68 54.3549 1288.84 54.9182 1288.16 55.117C1285.87 55.8128 1283.48 54.0236 1283.48 51.5718C1283.48 48.6561 1286.26 46.9664 1288.78 48.2917ZM1336.36 48.2586C1338.65 49.2525 1339.33 52.3007 1337.65 54.0899C1336.03 55.8459 1333.42 55.7134 1332 53.8248C1330.71 52.1682 1331.49 49.12 1333.39 48.2917C1334.71 47.6953 1335 47.6953 1336.36 48.2586Z" fill="#262626"></path>
<path d="M1293.09 60.0742C1266.15 61.2222 1250.62 62.7209 1230.19 66.1329C1207.95 69.8319 1186.41 76.1776 1180.94 80.5781C1179.7 81.5985 1178.51 83.0973 1178.1 84.2452C1177.87 84.7873 1177.97 84.8192 1179.06 84.6279C1184.84 83.6394 1199.38 82.1406 1211.43 81.2797C1266.25 77.2937 1325.31 76.7197 1379.23 79.6534C1405.6 81.0883 1435.19 83.7031 1439.41 84.9468C1441.11 85.457 1438.84 82.1725 1436.41 80.5462C1434.04 78.9837 1433.12 78.5373 1428.16 76.5602C1420.97 73.6903 1408.67 70.2146 1397.42 67.8867C1390.9 66.5474 1374.53 63.8689 1367.08 62.9441C1360.28 62.0831 1348.52 61.0627 1339.28 60.5206C1333.65 60.1699 1298.46 59.851 1293.09 60.0742ZM1282 68.3651C1282.9 68.9709 1282.93 70.5015 1282.07 71.3625C1281.52 71.9046 1281.01 72.0003 1278.26 72.0003C1275.32 72.0003 1275.04 71.9365 1274.59 71.2987C1273.53 69.8 1274.27 68.4926 1276.35 68.1737C1278.9 67.7592 1281.24 67.823 1282 68.3651ZM1314.19 68.652C1315.15 69.5768 1315.18 70.087 1314.32 71.1712C1313.71 71.9684 1313.52 72.0003 1310.7 72.0003C1307.35 72.0003 1306.36 71.5857 1306.36 70.1508C1306.36 68.3969 1307.35 67.8867 1310.77 67.8548C1313.17 67.8548 1313.49 67.9186 1314.19 68.652ZM1342.89 68.1737C1344.78 68.1737 1345.16 68.2694 1345.83 68.9709C1346.85 69.9594 1346.82 70.5653 1345.83 71.5538C1345.03 72.351 1344.94 72.351 1341.9 72.1278C1339.82 72.0003 1338.61 71.7452 1338.26 71.4263C1337.68 70.948 1337.49 69.5768 1337.94 68.939C1338.35 68.3332 1339.44 67.8548 1340.08 68.0143C1340.43 68.11 1341.71 68.1737 1342.89 68.1737ZM1251.86 69.9276C1252.82 70.8523 1252.82 71.0755 1252.09 72.0003C1251.45 72.7656 1249.56 73.212 1246.72 73.2439C1244.77 73.2758 1243.84 72.5424 1244.16 71.235C1244.45 70.1189 1245.22 69.7681 1248.13 69.4811C1249.47 69.3217 1250.71 69.1941 1250.84 69.1622C1250.97 69.1622 1251.45 69.4811 1251.86 69.9276ZM1372.49 69.7681C1375.04 70.1189 1376.03 70.6929 1376.03 71.8727C1376.03 73.499 1374.66 73.8817 1370.63 73.3077C1368.24 72.9569 1367.28 71.4582 1368.59 70.0232C1369.16 69.3536 1369.29 69.3536 1372.49 69.7681ZM1226.58 72.1916C1227.29 72.8931 1227.22 73.6903 1226.39 74.4556C1225.85 74.9658 1224.89 75.221 1222.56 75.5079C1219.04 75.9544 1218.47 75.763 1218.47 74.2324C1218.47 73.0207 1219.17 72.5424 1221.63 72.1278C1224.7 71.5857 1226.01 71.6176 1226.58 72.1916ZM1398.28 72.351C1401.63 72.8612 1402.88 74.2324 1401.31 75.6355C1400.74 76.1457 1400.42 76.1776 1397.64 75.8268C1393.55 75.3166 1392.33 74.3919 1393.29 72.6061C1393.71 71.8727 1394.7 71.8408 1398.28 72.351Z" fill="#262626"></path>
<path d="M1272.55 82.2937C1254.44 82.7118 1229.06 83.8698 1213.91 84.9957C1199.58 86.0572 1180.46 88.0515 1180.01 88.5018C1179.92 88.5983 1180.46 89.306 1181.15 90.078C1184.78 94.0667 1194.34 97.2512 1218.83 102.72C1237.45 106.869 1247.42 110.118 1261.24 116.616C1271.53 121.441 1276.39 123.338 1283.73 125.365C1293.39 128.035 1300.6 129 1311.43 129C1329.47 129.032 1342.37 125.847 1362.03 116.551C1375 110.407 1384.84 107.159 1408.32 101.272C1426.9 96.6079 1434.84 93.6485 1438.15 90.1745C1438.85 89.4668 1439.13 88.92 1438.94 88.727C1438.5 88.2767 1426.62 86.9257 1413.24 85.7998C1391.48 83.9985 1370.64 82.937 1343.51 82.2615C1329 81.9077 1288.34 81.9077 1272.55 82.2937ZM1329.38 103.845C1344.98 104.81 1360.51 107.223 1364.45 109.282C1365.94 110.054 1366.36 110.986 1365.56 111.887C1364.89 112.659 1364.48 112.659 1363.15 111.887C1360.41 110.311 1348.38 108.477 1332.87 107.287C1325.53 106.74 1296.53 106.74 1289.51 107.287C1273.6 108.574 1262.89 110.182 1259.43 111.887C1258.35 112.402 1257.97 112.466 1257.43 112.177C1256.31 111.565 1256.7 110.247 1258.22 109.378C1262.41 106.998 1281.35 104.296 1299.36 103.492C1306.44 103.17 1321.88 103.363 1329.38 103.845Z" fill="#262626"></path>
</g></g>
<defs>
<clipPath id="clip0_459_679">
<rect width="1625" height="530" fill="white"></rect>
</clipPath>
</defs>
</svg>